<?xml version="1.0" encoding="utf-8"?>
<!-- Generator: Adobe Illustrator 23.0.1, SVG Export Plug-In . SVG Version: 6.00 Build 0)  -->
<svg version="1.0" id="图层_1" xmlns="http://www.w3.org/2000/svg" xmlns:xlink="http://www.w3.org/1999/xlink" x="0px" y="0px"
	 viewBox="0 0 70 70" style="enable-background:new 0 0 70 70;" xml:space="preserve">
<style type="text/css">
	.st0{fill:#10A957;}
	.st1{fill:none;stroke:#062613;stroke-width:3;stroke-linecap:round;stroke-linejoin:round;stroke-miterlimit:10;}
</style>
<path class="st0" d="M55,52.1c-7.7-1.8-11.5-6.1-12.2-7c-0.7-0.9-0.7-2-0.7-3.4c0-0.5,0.2-1.1,0.5-1.6c0.1-0.1,0.2-0.3,0.2-0.5
	c0.2-0.5,1.5-2.6,1.8-4.1c0.1-0.2,0.5-0.9,0.9-1.4l0,0c0.7-0.5,1.4-1.1,2.5-2.5c1.9-2.6,0.2-4.6-0.7-6.3c-0.1-0.1,0-0.3,0-0.5
	c0.6-2.6,1.3-5.4,1.1-9c-0.2-3.8-3.8-9.7-13.1-9.7c-9.3,0-12.9,5.7-13.1,9.7c-0.2,3.6,0.5,6.5,1.1,8.8c0,0.1,0,0.3,0,0.5
	c-0.9,1.9-2.3,3.9-0.7,6.6c0.9,1.4,1.8,2,2.5,2.5l0,0c0.5,0.5,0.9,1.1,0.9,1.4c0.3,1.5,1.5,3.4,1.8,4.1c0,0.1,0.2,0.3,0.2,0.5
	c0.3,0.7,0.5,1.1,0.5,1.6c0,1.1,0,2.5-0.7,3.4c-0.7,0.9-4.5,5.2-12.2,7C9,53.7,4.7,54.8,4.7,61.8c0,0.5,0.5,1.1,1.1,1.1
	c14.7,0,44.2,0,59,0c0.5,0,1.1-0.5,1.1-1.1C66,54.8,62.1,53.7,55,52.1L55,52.1L55,52.1z"/>
<path class="st1" d="M55,52.1c-7.7-1.8-11.5-6.1-12.2-7c-0.7-0.9-0.7-2-0.7-3.4c0-0.5,0.2-1.1,0.5-1.6c0.1-0.1,0.2-0.3,0.2-0.5
	c0.2-0.5,1.5-2.6,1.8-4.1c0.1-0.2,0.5-0.9,0.9-1.4l0,0c0.7-0.5,1.4-1.1,2.5-2.5c1.9-2.6,0.2-4.6-0.7-6.3c-0.1-0.1,0-0.3,0-0.5
	c0.6-2.6,1.3-5.4,1.1-9c-0.2-3.8-3.8-9.7-13.1-9.7c-9.3,0-12.9,5.7-13.1,9.7c-0.2,3.6,0.5,6.5,1.1,8.8c0,0.1,0,0.3,0,0.5
	c-0.9,1.9-2.3,3.9-0.7,6.6c0.9,1.4,1.8,2,2.5,2.5l0,0c0.5,0.5,0.9,1.1,0.9,1.4c0.3,1.5,1.5,3.4,1.8,4.1c0,0.1,0.2,0.3,0.2,0.5
	c0.3,0.7,0.5,1.1,0.5,1.6c0,1.1,0,2.5-0.7,3.4c-0.7,0.9-4.5,5.2-12.2,7C9,53.7,4.7,54.8,4.7,61.8c0,0.5,0.5,1.1,1.1,1.1
	c14.7,0,44.2,0,59,0c0.5,0,1.1-0.5,1.1-1.1C66,54.8,62.1,53.7,55,52.1L55,52.1L55,52.1z"/>
</svg>
