<?xml version="1.0" encoding="UTF-8"?>
<svg width="31px" height="37px" viewBox="0 0 31 37" version="1.1" xmlns="http://www.w3.org/2000/svg" xmlns:xlink="http://www.w3.org/1999/xlink">
    <!-- Generator: Sketch 54.1 (76490) - https://sketchapp.com -->
    <title>编组 6</title>
    <desc>Created with Sketch.</desc>
    <g id="Page-1" stroke="none" stroke-width="1" fill="none" fill-rule="evenodd">
        <g id="工单" transform="translate(-362.000000, -1253.000000)">
            <g id="底部导航" transform="translate(0.000000, 1230.000000)">
                <g id="工单" transform="translate(358.500000, 24.000000)">
                    <g id="编组-6" transform="translate(4.000000, 0.000000)">
                        <rect id="矩形" fill="#10A957" x="2" y="0" width="27" height="34" rx="4"></rect>
                        <path d="M21.9230769,14 L8.07692308,14 L8.07692303,14 C7.43967092,14 6.92307687,14.522334 6.92307687,15.1666667 C6.9230769,15.8109993 7.43967092,16.3333333 8.07692303,16.3333333 L21.9230769,16.3333333 L21.9230768,16.3333333 C22.5603289,16.3333334 23.076923,15.8109993 23.076923,15.1666667 C23.076923,14.522334 22.5603289,14 21.9230769,14 L21.9230769,14 Z M21.9230769,21 L8.07692308,21 L8.07692308,21 C7.43967097,21 6.92307692,21.522334 6.92307692,22.1666667 C6.92307695,22.8109993 7.43967097,23.3333333 8.07692308,23.3333333 L21.9230769,23.3333333 L21.9230769,23.3333333 C22.560329,23.3333334 23.076923,22.8109993 23.076923,22.1666667 C23.0769231,21.522334 22.560329,21 21.9230769,21 L21.9230769,21 Z M26.5384615,1.0793835e-15 L3.46153846,1.0793835e-15 C1.55384615,1.0793835e-15 0,1.57111111 0,3.5 L0,31.5 C0,33.4288889 1.55384615,35 3.46153846,35 L26.5384615,35 C28.4461538,35 30,33.4288889 30,31.5 L30,3.5 C30,1.57111111 28.4461538,0 26.5384615,1.0793835e-15 Z M8.07692308,2.33333333 L21.9230769,2.33333333 L21.9230769,5.83333333 L8.07692308,5.83333333 L8.07692308,2.33333333 Z M27.6923077,31.5 L27.6923077,31.5 C27.6923077,32.1443327 27.1757136,32.6666667 26.5384615,32.6666667 C26.5384615,32.6666667 26.5384615,32.6666667 26.5384615,32.6666667 L3.46153846,32.6666667 L3.46153841,32.6666667 C2.82428631,32.6666666 2.30769226,32.1443327 2.30769226,31.5 C2.30769226,31.5 2.30769226,31.5 2.30769226,31.5 L2.30769226,3.5 C2.30769226,2.85833333 2.82692303,2.33333333 3.46153841,2.33333333 L5.76923072,2.33333333 L5.76923072,5.83333333 C5.76923072,7.12055556 6.8038461,8.16666667 8.07692303,8.16666667 L21.9230769,8.16666667 C23.1961538,8.16666667 24.2307692,7.12055556 24.2307692,5.83333333 L24.2307692,2.33333333 L26.5384615,2.33333333 L26.5384614,2.33333333 C27.1757135,2.33333331 27.6923076,2.85566732 27.6923076,3.5 C27.6923076,3.5 27.6923076,3.5 27.6923076,3.5 L27.6923076,31.5 L27.6923077,31.5 Z" id="形状" stroke="#062613" stroke-width="0.5" fill="#062613" fill-rule="nonzero"></path>
                    </g>
                </g>
            </g>
        </g>
    </g>
</svg>