<?xml version="1.0" encoding="utf-8"?>
<!-- Generator: Adobe Illustrator 23.0.1, SVG Export Plug-In . SVG Version: 6.00 Build 0)  -->
<svg version="1.0" id="图层_1" xmlns="http://www.w3.org/2000/svg" xmlns:xlink="http://www.w3.org/1999/xlink" x="0px" y="0px"
	 viewBox="0 0 60 60" style="enable-background:new 0 0 60 60;" xml:space="preserve">
<style type="text/css">
	.st0{fill:none;stroke:#9E9E9E;stroke-width:3;stroke-linecap:round;stroke-linejoin:round;stroke-miterlimit:10;}
</style>
<path class="st0" d="M48.3,47.5c-7.1-1.8-10.7-6.1-11.3-7c-0.6-0.9-0.6-2-0.6-3.4c0-0.5,0.2-1.1,0.4-1.6c0.1-0.1,0.2-0.3,0.2-0.5
	c0.2-0.5,1.3-2.6,1.7-4.1c0-0.2,0.4-0.9,0.8-1.4l0,0c0.6-0.5,1.3-1.1,2.3-2.5c1.8-2.6,0.2-4.6-0.6-6.3c0-0.1,0-0.3,0-0.5
	c0.6-2.6,1.2-5.4,1-9C42,7.5,38.7,1.6,30.1,1.6c-8.6,0-11.9,5.7-12.1,9.7c-0.2,3.6,0.5,6.5,1,8.8c0,0.1,0,0.3,0,0.5
	c-0.8,1.9-2.2,3.9-0.6,6.6c0.8,1.4,1.7,2,2.3,2.5l0,0c0.4,0.5,0.8,1.1,0.8,1.4c0.3,1.5,1.4,3.4,1.7,4.1c0,0.1,0.2,0.3,0.2,0.5
	c0.3,0.7,0.4,1.1,0.4,1.6c0,1.1,0,2.5-0.6,3.4c-0.6,0.9-4.2,5.2-11.3,7c-6.3,1.6-10.2,2.7-10.2,9.7c0,0.5,0.4,1.1,1,1.1
	c13.6,0,40.9,0,54.6,0c0.4,0,1-0.5,1-1.1C58.4,50.2,54.8,49.1,48.3,47.5L48.3,47.5L48.3,47.5z"/>
</svg>
