<?xml version="1.0" encoding="utf-8"?>
<!-- Generator: Adobe Illustrator 23.0.1, SVG Export Plug-In . SVG Version: 6.00 Build 0)  -->
<svg version="1.0" id="图层_1" xmlns="http://www.w3.org/2000/svg" xmlns:xlink="http://www.w3.org/1999/xlink" x="0px" y="0px"
	 viewBox="0 0 60 60" style="enable-background:new 0 0 60 60;" xml:space="preserve">
<style type="text/css">
	.st0{fill:#10A957;}
	.st1{fill:none;stroke:#062613;stroke-width:3;stroke-linecap:round;stroke-linejoin:round;stroke-miterlimit:10;}
</style>
<g>
	<path class="st0" d="M29.4,1.7C17.6,1.7,8,11.3,8,23.1V49h42.8V23.1h0.1C50.9,11.3,41.3,1.7,29.4,1.7z"/>
	<g>
		<path class="st1" d="M8.1,22.9c0-11.8,9.5-21.3,21.3-21.3"/>
		<path class="st1" d="M17.7,22.9c0-7.2,5.8-12.9,12.9-12.9"/>
		<path class="st1" d="M50.8,22.9c0-11.8-9.5-21.3-21.3-21.3"/>
		<path class="st1" d="M39,49c0,5.3-4.3,9.5-9.5,9.5"/>
		<path class="st1" d="M19.9,49c0,5.3,4.3,9.5,9.5,9.5"/>
		<line class="st1" x1="8.1" y1="22.9" x2="8.1" y2="49"/>
		<line class="st1" x1="50.8" y1="22.9" x2="50.8" y2="49"/>
		<line class="st1" x1="1.5" y1="49" x2="58.5" y2="49"/>
	</g>
</g>
</svg>
