<?xml version="1.0" encoding="utf-8"?>
<!-- Generator: Adobe Illustrator 23.0.1, SVG Export Plug-In . SVG Version: 6.00 Build 0)  -->
<svg version="1.0" id="图层_1" xmlns="http://www.w3.org/2000/svg" xmlns:xlink="http://www.w3.org/1999/xlink" x="0px" y="0px"
	 viewBox="0 0 70 70" style="enable-background:new 0 0 70 70;" xml:space="preserve">
<style type="text/css">
	.st0{fill:#10A957;}
	.st1{fill:none;stroke:#062613;stroke-width:3;stroke-linecap:round;stroke-linejoin:round;stroke-miterlimit:10;}
</style>
<g>
	<polygon class="st0" points="60,31.4 23.8,31.4 23.8,13.7 60,13.7 67.3,22.5 	"/>
	<g>
		<g>
			<line class="st1" x1="10.2" y1="23.9" x2="18.2" y2="23.9"/>
			<line class="st1" x1="2.9" y1="32.7" x2="10.2" y2="23.9"/>
			<line class="st1" x1="10.2" y1="41.5" x2="46.3" y2="41.5"/>
			<line class="st1" x1="2.9" y1="32.7" x2="10.2" y2="41.5"/>
			<line class="st1" x1="46.3" y1="41.5" x2="46.3" y2="36.5"/>
		</g>
		<g>
			<line class="st1" x1="60" y1="13.7" x2="23.8" y2="13.7"/>
			<line class="st1" x1="67.3" y1="22.5" x2="60" y2="13.7"/>
			<line class="st1" x1="60" y1="31.4" x2="23.8" y2="31.4"/>
			<line class="st1" x1="67.3" y1="22.5" x2="60" y2="31.4"/>
			<line class="st1" x1="23.8" y1="31.4" x2="23.8" y2="13.7"/>
		</g>
		<line class="st1" x1="30.5" y1="13.7" x2="30.5" y2="6.9"/>
		<line class="st1" x1="37.6" y1="13.7" x2="37.6" y2="6.9"/>
		<line class="st1" x1="30.5" y1="6.9" x2="37.6" y2="6.9"/>
		<line class="st1" x1="30.5" y1="41.6" x2="30.5" y2="63.6"/>
		<line class="st1" x1="37.6" y1="41.6" x2="37.6" y2="63.6"/>
		<line class="st1" x1="22.5" y1="63.6" x2="45.6" y2="63.6"/>
	</g>
</g>
</svg>
