<?xml version="1.0" encoding="UTF-8"?>
<svg width="82px" height="82px" viewBox="0 0 82 82" version="1.1" xmlns="http://www.w3.org/2000/svg" xmlns:xlink="http://www.w3.org/1999/xlink">
    <!-- Generator: Sketch 51 (57462) - http://www.bohemiancoding.com/sketch -->
    <title>Slice 1</title>
    <desc>Created with Sketch.</desc>
    <defs></defs>
    <g id="Page-1" stroke="none" stroke-width="1" fill="none" fill-rule="evenodd">
        <g id="icon" transform="translate(1.000000, 1.000000)">
            <circle id="bg" stroke="#10A957" stroke-width="2" fill="#F4FCF8" fill-rule="nonzero" cx="40" cy="40" r="40"></circle>
            <g transform="translate(20.000000, 19.000000)" fill="#10A957">
                <path d="M2.4,10.40064 L37.6,10.40064 L37.6,2.40064 L2.4,2.40064 L2.4,10.40064 Z M38,12.80064 L2,12.80064 C0.8976,12.80064 0,11.90304 0,10.80064 L0,2.00064 C0,0.89744 0.8976,0.00064 2,0.00064 L38,0.00064 C39.1024,0.00064 40,0.89744 40,2.00064 L40,10.80064 C40,11.90304 39.1024,12.80064 38,12.80064 Z" id="Fill-1"></path>
                <path d="M12.87312,7.60032 L6.89872,7.60032 C6.23552,7.60032 5.69872,7.06272 5.69872,6.40032 C5.69872,5.73712 6.23552,5.20032 6.89872,5.20032 L12.87312,5.20032 C13.53632,5.20032 14.07312,5.73712 14.07312,6.40032 C14.07312,7.06272 13.53632,7.60032 12.87312,7.60032" id="Fill-3"></path>
                <path d="M2.4,24.80064 L37.6,24.80064 L37.6,16.80064 L2.4,16.80064 L2.4,24.80064 Z M38,27.20064 L2,27.20064 C0.8976,27.20064 0,26.30304 0,25.20064 L0,16.40064 C0,15.29744 0.8976,14.40064 2,14.40064 L38,14.40064 C39.1024,14.40064 40,15.29744 40,16.40064 L40,25.20064 C40,26.30304 39.1024,27.20064 38,27.20064 Z" id="Fill-4"></path>
                <path d="M12.87312,22.00032 L6.89872,22.00032 C6.23552,22.00032 5.69872,21.46272 5.69872,20.80032 C5.69872,20.13712 6.23552,19.60032 6.89872,19.60032 L12.87312,19.60032 C13.53632,19.60032 14.07312,20.13712 14.07312,20.80032 C14.07312,21.46272 13.53632,22.00032 12.87312,22.00032" id="Fill-5"></path>
                <path d="M2.4,39.25184 L37.6,39.25184 L37.6,31.25184 L2.4,31.25184 L2.4,39.25184 Z M38,41.65184 L2,41.65184 C0.8976,41.65184 0,40.75424 0,39.65184 L0,30.85184 C0,29.74864 0.8976,28.85184 2,28.85184 L38,28.85184 C39.1024,28.85184 40,29.74864 40,30.85184 L40,39.65184 C40,40.75424 39.1024,41.65184 38,41.65184 Z" id="Fill-6"></path>
                <path d="M12.87312,36.45192 L6.89872,36.45192 C6.23552,36.45192 5.69872,35.91432 5.69872,35.25192 C5.69872,34.58872 6.23552,34.05192 6.89872,34.05192 L12.87312,34.05192 C13.53632,34.05192 14.07312,34.58872 14.07312,35.25192 C14.07312,35.91432 13.53632,36.45192 12.87312,36.45192" id="Fill-7"></path>
            </g>
        </g>
    </g>
</svg>