<?xml version="1.0" encoding="UTF-8"?>
<svg width="37px" height="37px" viewBox="0 0 37 37" version="1.1" xmlns="http://www.w3.org/2000/svg" xmlns:xlink="http://www.w3.org/1999/xlink">
    <!-- Generator: Sketch 54.1 (76490) - https://sketchapp.com -->
    <title>新东方-刷新图标</title>
    <desc>Created with Sketch.</desc>
    <g id="Page-1" stroke="none" stroke-width="1" fill="none" fill-rule="evenodd">
        <g id="新东方-刷新图标" fill="#353535" fill-rule="nonzero">
            <path d="M35.1661772,13.847336 L27.8681414,13.847336 C26.9370977,13.847336 26.1840136,13.0929715 26.1840136,12.1631266 C26.1840136,11.2333591 26.9371407,10.4789989 27.8681414,10.4789989 L30.7978358,10.4789989 C28.155087,6.74473087 23.8093472,4.3037378 18.8858962,4.3037378 C10.8246485,4.3037378 4.28973856,10.8386907 4.28973856,18.8998095 C4.28973856,26.9610142 10.8246915,33.4959241 18.8858962,33.4959241 C26.9471009,33.4959241 33.4820108,26.9609712 33.4820108,18.8998095 C33.4820108,17.970042 34.2350992,17.2156817 35.1660999,17.2156817 C36.0959447,17.2156817 36.8503522,17.9700463 36.8503522,18.8998095 C36.8503522,28.8212624 28.8065929,36.8642913 18.8858704,36.8642913 C8.965019,36.8642913 0.921345579,28.8213054 0.921345579,18.8998095 C0.921345579,8.97839949 8.965019,0.935370595 18.8858704,0.935370595 C24.9069594,0.935370595 30.2251219,3.90393889 33.481985,8.45211762 L33.481985,5.42649965 C33.481985,4.49665482 34.2350734,3.74232894 35.1660741,3.74232894 C36.0959189,3.74232894 36.8503264,4.49665482 36.8503264,5.42649965 L36.8503264,12.1631481 C36.8504253,13.0929758 36.0959361,13.847336 35.1661772,13.847336 Z" id="路径"></path>
        </g>
    </g>
</svg>
