<?xml version="1.0" encoding="UTF-8"?>
<svg width="29px" height="38px" viewBox="0 0 29 38" version="1.1" xmlns="http://www.w3.org/2000/svg" xmlns:xlink="http://www.w3.org/1999/xlink">
    <!-- Generator: Sketch 49 (51002) - http://www.bohemiancoding.com/sketch -->
    <title>Slice 1</title>
    <desc>Created with Sketch.</desc>
    <defs></defs>
    <g id="Page-1" stroke="none" stroke-width="1" fill="none" fill-rule="evenodd">
        <g id="icon" fill="#10A957">
            <polygon id="Fill-1" points="0 1.86885246 28.5 1.86885246 28.5 0 0 0"></polygon>
            <polygon id="Fill-2" points="0 37.3782951 28.5 37.3782951 28.5 35.5094426 0 35.5094426"></polygon>
            <polygon id="Fill-3" points="0 37.3253443 1.90063333 37.3253443 1.90063333 0 0 0"></polygon>
            <polygon id="Fill-4" points="26.6 37.3240984 28.5 37.3240984 28.5 0 26.6 0"></polygon>
            <polygon id="Fill-5" points="4.1477 5.7037377 24.3523 5.7037377 24.3523 3.83488525 4.1477 3.83488525"></polygon>
            <polygon id="Fill-6" points="4.14713 28.5766852 4.14776333 3.83494754 6.04776333 3.83494754 6.04713 28.5766852"></polygon>
            <polygon id="Fill-7" points="22.4523 28.576623 24.3523 28.576623 24.3523 3.83488525 22.4523 3.83488525"></polygon>
            <polygon id="Fill-8" points="4.14706667 28.576623 24.3523 28.576623 24.3523 26.7077705 4.14706667 26.7077705"></polygon>
            <polygon id="Fill-9" points="9.5304 33.0992459 18.9689667 33.0992459 18.9689667 31.2303934 9.5304 31.2303934"></polygon>
        </g>
    </g>
</svg>