<?xml version="1.0" encoding="UTF-8"?>
<svg width="34px" height="34px" viewBox="0 0 34 34" version="1.1" xmlns="http://www.w3.org/2000/svg" xmlns:xlink="http://www.w3.org/1999/xlink">
    <!-- Generator: Sketch 49 (51002) - http://www.bohemiancoding.com/sketch -->
    <title>Slice 1</title>
    <desc>Created with Sketch.</desc>
    <defs>
        <polygon id="path-1" points="5.66666667e-05 0.000113333333 34 0.000113333333 34 34 5.66666667e-05 34"></polygon>
    </defs>
    <g id="Page-1" stroke="none" stroke-width="1" fill="none" fill-rule="evenodd">
        <g id="icon">
            <g id="Group-3">
                <mask id="mask-2" fill="white">
                    <use xlink:href="#path-1"></use>
                </mask>
                <g id="Clip-2"></g>
                <path d="M17.0000567,32.3001133 C8.54992333,32.3001133 1.70005667,25.4502467 1.70005667,17.0001133 C1.70005667,8.54998 8.54992333,1.70011333 17.0000567,1.70011333 C25.45019,1.70011333 32.3000567,8.54998 32.3000567,17.0001133 C32.3000567,25.4502467 25.45019,32.3001133 17.0000567,32.3001133 M17.0000567,0.000113333333 C7.61095667,0.000113333333 5.66666667e-05,7.61101333 5.66666667e-05,17.0001133 C5.66666667e-05,26.3886467 7.61095667,34.0001133 17.0000567,34.0001133 C26.38859,34.0001133 34.0000567,26.3886467 34.0000567,17.0001133 C34.0000567,7.61101333 26.38859,0.000113333333 17.0000567,0.000113333333" id="Fill-1" fill="#10A957" mask="url(#mask-2)"></path>
            </g>
            <path d="M17.0000567,18.4997967 C23.0894567,18.4997967 28.11069,23.07393 28.8156233,28.9734967 C28.8711567,29.4409967 28.8156233,28.4906967 28.8156233,28.9734967 L29.9098567,27.6151967 C29.9098567,26.59123 30.11669,27.6219967 30.2725233,27.41913 C28.91309,21.34163 23.4872567,16.7997967 17.0000567,16.7997967 C10.5825567,16.7997967 5.20375667,21.24473 3.77292333,27.22363 C3.52925667,28.2424967 3.77292333,26.1293967 3.77292333,27.22363 L5.18279,28.9904967 C5.18279,28.5133633 5.12782333,29.4528967 5.18279,28.9904967 C5.87979,23.08243 10.90499,18.4997967 17.0000567,18.4997967" id="Fill-4" fill="#10A957"></path>
            <path d="M17.0000567,16.80807 C14.49709,16.80807 12.4678567,14.7788367 12.4678567,12.27587 C12.4678567,9.77233667 14.49709,7.74310333 17.0000567,7.74310333 C19.5030233,7.74310333 21.5322567,9.77233667 21.5322567,12.27587 C21.5322567,14.7788367 19.5030233,16.80807 17.0000567,16.80807 M17.0000567,6.04253667 C13.5575567,6.04253667 10.7667233,8.83337 10.7667233,12.27587 C10.7667233,15.71837 13.5575567,18.5092033 17.0000567,18.5092033 C20.4425567,18.5092033 23.23339,15.71837 23.23339,12.27587 C23.23339,8.83337 20.4425567,6.04253667 17.0000567,6.04253667" id="Fill-6" fill="#10A957"></path>
        </g>
    </g>
</svg>