<?xml version="1.0" encoding="UTF-8"?>
<svg width="34px" height="28px" viewBox="0 0 34 28" version="1.1" xmlns="http://www.w3.org/2000/svg" xmlns:xlink="http://www.w3.org/1999/xlink">
    <!-- Generator: Sketch 49 (51002) - http://www.bohemiancoding.com/sketch -->
    <title>Slice 1</title>
    <desc>Created with Sketch.</desc>
    <defs></defs>
    <g id="Page-1" stroke="none" stroke-width="1" fill="none" fill-rule="evenodd">
        <g id="icon" fill="#10A957">
            <polygon id="Fill-1" points="31.9761639 27.8688525 33.6482951 27.8688525 33.6482951 0.000557377049 31.9761639 0.000557377049"></polygon>
            <polygon id="Fill-2" points="0 1.67213115 33.6477377 1.67213115 33.6477377 0 0 0"></polygon>
            <polygon id="Fill-3" points="0 27.8688525 33.6477377 27.8688525 33.6477377 26.1967213 0 26.1967213"></polygon>
            <polygon id="Fill-4" points="20.1040328 11.3292459 24.3540328 11.3292459 24.3540328 9.65711475 20.1040328 9.65711475"></polygon>
            <polygon id="Fill-5" points="20.1040328 16.7742623 28.1681639 16.7742623 28.1681639 15.1021311 20.1040328 15.1021311"></polygon>
            <polygon id="Fill-6" points="0 27.8688525 1.67268852 27.8688525 1.67268852 0.000557377049 0 0.000557377049"></polygon>
            <g id="Group-11" transform="translate(5.016393, 7.245902)">
                <path d="M6.26893115,6.76728197 C4.94181639,6.76728197 3.86552131,5.69098689 3.86552131,4.36387213 C3.86552131,3.03675738 4.94181639,1.9604623 6.26893115,1.9604623 C7.5960459,1.9604623 8.67234098,3.03675738 8.67234098,4.36387213 C8.67234098,5.69098689 7.5960459,6.76728197 6.26893115,6.76728197 M6.26558689,0.313970492 C4.02883279,0.313970492 2.21568525,2.12711803 2.21568525,4.36387213 C2.21568525,6.60062623 4.02883279,8.41377377 6.26558689,8.41377377 C8.50234098,8.41377377 10.3154885,6.60062623 10.3154885,4.36387213 C10.3154885,2.12711803 8.50234098,0.313970492 6.26558689,0.313970492" id="Fill-7"></path>
                <path d="M2.18034754,12.2501443 C2.35815082,10.1382426 4.12559344,8.47893115 6.2832,8.47893115 C8.44080656,8.47893115 10.2082492,10.1382426 10.3866098,12.2501443 L12.0932984,12.2501443 C11.9115934,9.19293115 9.38165902,6.76722623 6.27874098,6.76722623 C3.17526557,6.76722623 0.645331148,9.19293115 0.46362623,12.2501443 L2.18034754,12.2501443 Z" id="Fill-9"></path>
            </g>
        </g>
    </g>
</svg>