<?xml version="1.0" encoding="UTF-8"?>
<svg width="99px" height="90px" viewBox="0 0 99 90" version="1.1" xmlns="http://www.w3.org/2000/svg" xmlns:xlink="http://www.w3.org/1999/xlink">
    <!-- Generator: Sketch 49 (51002) - http://www.bohemiancoding.com/sketch -->
    <title>Slice 1</title>
    <desc>Created with Sketch.</desc>
    <defs>
        <polygon id="path-1" points="0 89.4562364 98.1818182 89.4562364 98.1818182 -0.000490909091 0 -0.000490909091"></polygon>
    </defs>
    <g id="Page-1" stroke="none" stroke-width="1" fill="none" fill-rule="evenodd">
        <g id="icon">
            <rect id="Rectangle" fill-opacity="0.2" fill="#1B95F5" x="0" y="0" width="99" height="71"></rect>
            <path d="M39.7962,30.4489636 C40.7240182,29.5211455 42.2311091,29.5211455 43.1622,30.4489636 L54.2223818,41.2882364 C55.1534727,42.2176909 55.1534727,43.7231455 54.2223818,44.6542364 C53.2945636,45.5820545 51.7874727,45.5820545 50.8596545,44.6542364 L39.7962,33.8149636 C38.8667455,32.8838727 38.8667455,31.3784182 39.7962,30.4489636" id="Fill-1" fill="#1B95F5"></path>
            <path d="M59.4212727,25.0731818 C59.3132727,23.7624545 60.2852727,22.6137273 61.596,22.5057273 L71.2309091,21.6580909 C72.54,21.5500909 73.6903636,22.5220909 73.7983636,23.8328182 C73.908,25.1419091 72.9343636,26.2922727 71.6236364,26.4019091 L61.9887273,27.2462727 C60.6812727,27.3559091 59.5292727,26.3822727 59.4212727,25.0731818" id="Fill-3" fill="#1B95F5"></path>
            <path d="M71.2305818,21.6582545 C72.5396727,21.5502545 73.6900364,22.5222545 73.7980364,23.8329818 L74.5589455,31.9444364 C74.6685818,33.2551636 73.6949455,34.4038909 72.3858545,34.5118909 C71.0751273,34.6215273 69.9264,33.6478909 69.8184,32.3388 L69.0558545,24.2257091 C68.9462182,22.9182545 69.9198545,21.7662545 71.2305818,21.6582545" id="Fill-5" fill="#1B95F5"></path>
            <path d="M70.0960909,25.7635636 C71.0059091,26.7126545 70.9715455,28.2181091 70.0224545,29.1279273 L54.189,44.6897455 C53.2399091,45.5979273 51.7328182,45.5652 50.8262727,44.6161091 C49.9164545,43.6653818 49.9491818,42.1615636 50.8999091,41.2517455 L66.7317273,25.6882909 C67.6824545,24.7801091 69.1879091,24.8144727 70.0960909,25.7635636" id="Fill-7" fill="#1B95F5"></path>
            <path d="M43.1599091,30.4794 C44.0697273,31.4301273 44.0353636,32.9355818 43.0862727,33.8454 L27.639,49.1470364 C26.6899091,50.0568545 25.1828182,50.0224909 24.2746364,49.0734 C23.3648182,48.1243091 23.3991818,46.6172182 24.3482727,45.7106727 L39.7955455,30.4057636 C40.7446364,29.4959455 42.2517273,29.5303091 43.1599091,30.4794" id="Fill-9" fill="#1B95F5"></path>
            <mask id="mask-2" fill="white">
                <use xlink:href="#path-1"></use>
            </mask>
            <g id="Clip-12"></g>
            <polygon id="Fill-11" fill="#1B95F5" mask="url(#mask-2)" points="0 4.91187273 98.1818182 4.91187273 98.1818182 0.00278181818 0 0.00278181818"></polygon>
            <polygon id="Fill-13" fill="#1B95F5" mask="url(#mask-2)" points="0 71.4562364 98.1818182 71.4562364 98.1818182 66.5471455 0 66.5471455"></polygon>
            <polygon id="Fill-14" fill="#1B95F5" mask="url(#mask-2)" points="6.54545455 89.4562364 91.6363636 89.4562364 91.6363636 84.5471455 6.54545455 84.5471455"></polygon>
            <polygon id="Fill-15" fill="#1B95F5" mask="url(#mask-2)" points="0.00163636364 71.4562364 4.91072727 71.4562364 4.91072727 0.00278181818 0.00163636364 0.00278181818"></polygon>
            <polygon id="Fill-16" fill="#1B95F5" mask="url(#mask-2)" points="93.2743636 71.4546 98.1834545 71.4546 98.1834545 0.00114545455 93.2743636 0.00114545455"></polygon>
        </g>
    </g>
</svg>