<?xml version="1.0" encoding="UTF-8"?>
<svg width="110px" height="88px" viewBox="0 0 110 88" version="1.1" xmlns="http://www.w3.org/2000/svg" xmlns:xlink="http://www.w3.org/1999/xlink">
    <!-- Generator: Sketch 49 (51002) - http://www.bohemiancoding.com/sketch -->
    <title>Slice 1</title>
    <desc>Created with Sketch.</desc>
    <defs></defs>
    <g id="Page-1" stroke="none" stroke-width="1" fill="none" fill-rule="evenodd">
        <g id="icon" fill="#10A957">
            <polygon id="Fill-1" fill-opacity="0.2" points="0 86.19655 110 86.19655 110 42.19655 0 42.19655"></polygon>
            <polygon id="Fill-3" points="89.8333333 69.69655 95.3333333 69.69655 95.3333333 58.69655 89.8333333 58.69655"></polygon>
            <polygon id="Fill-4" points="77 69.69655 82.5 69.69655 82.5 58.69655 77 58.69655"></polygon>
            <polygon id="Fill-5" points="64.1666667 69.69655 69.6666667 69.69655 69.6666667 58.69655 64.1666667 58.69655"></polygon>
            <polygon id="Fill-6" points="0 86.19655 109.998167 86.19655 109.998167 80.6947167 0 80.6947167"></polygon>
            <polygon id="Fill-7" points="0 47.6947167 109.998167 47.6947167 109.998167 42.1947167 0 42.1947167"></polygon>
            <polygon id="Fill-8" points="7.33333333 27.5298833 102.666667 27.5298833 102.666667 22.0298833 7.33333333 22.0298833"></polygon>
            <polygon id="Fill-9" points="14.6666667 7.33388333 95.3315 7.33388333 95.3315 1.83205 14.6666667 1.83205"></polygon>
            <polygon id="Fill-10" points="104.5 86.19655 110 86.19655 110 42.19655 104.5 42.19655"></polygon>
            <polygon id="Fill-11" points="0 86.19655 5.5 86.19655 5.5 42.19655 0 42.19655"></polygon>
            <g id="Group-16" transform="translate(16.500000, 58.696550)">
                <path d="M11.0001833,5.49963333 C11.0001833,8.53746667 8.53801667,10.9996333 5.50018333,10.9996333 C2.46235,10.9996333 0.000183333333,8.53746667 0.000183333333,5.49963333 C0.000183333333,2.46363333 2.46235,-0.000366666667 5.50018333,-0.000366666667 C8.53801667,-0.000366666667 11.0001833,2.46363333 11.0001833,5.49963333" id="Fill-12"></path>
                <path d="M32.9992667,5.49963333 C32.9992667,8.53746667 30.5371,10.9996333 27.4992667,10.9996333 C24.4632667,10.9996333 21.9992667,8.53746667 21.9992667,5.49963333 C21.9992667,2.46363333 24.4632667,-0.000366666667 27.4992667,-0.000366666667 C30.5371,-0.000366666667 32.9992667,2.46363333 32.9992667,5.49963333" id="Fill-14"></path>
            </g>
        </g>
    </g>
</svg>