<?xml version="1.0" encoding="UTF-8"?>
<svg width="85px" height="100px" viewBox="0 0 85 100" version="1.1" xmlns="http://www.w3.org/2000/svg" xmlns:xlink="http://www.w3.org/1999/xlink">
    <!-- Generator: Sketch 49 (51002) - http://www.bohemiancoding.com/sketch -->
    <title>Slice 1</title>
    <desc>Created with Sketch.</desc>
    <defs></defs>
    <g id="Page-1" stroke="none" stroke-width="1" fill="none" fill-rule="evenodd">
        <g id="icon" fill="#EE6E73">
            <path d="M74.4444444,56.6666667 L74.4444444,84.4444444 L8.88888889,84.4444444 L8.88888889,56.6666667 L7.79535967,56.6666667 C7.78366787,56.2977345 7.77777778,55.9273329 7.77777778,55.5555556 C7.77777778,36.5324142 23.1990808,21.1111111 42.2222222,21.1111111 C61.2453636,21.1111111 76.6666667,36.5324142 76.6666667,55.5555556 C76.6666667,55.9273329 76.6607766,56.2977345 76.6490846,56.6666721 L74.4444444,56.6666667 Z" id="Combined-Shape" fill-opacity="0.2"></path>
            <path d="M23.7264119,80.5844502 L23.7264119,57.0947523 L28.7274121,57.0947523 L28.7274121,80.5844502 L73.0696139,80.5844502 L73.0696139,55.6077882 L78.0706141,55.6077882 L78.0706141,80.5844502 L78.0706141,85.5854504 L6.22291125,85.5854504 L6.22291125,80.5844502 L6.22291125,55.6077882 L11.2239114,55.6077882 L11.2239114,80.5844502 L23.7264119,80.5844502 Z M2.5071681,100 L2.5071681,94.9973328 L81.7880243,94.9973328 L81.7880243,100 L2.5071681,100 Z M39.6462626,12.6025205 L39.6462626,0 L44.6472628,0 L44.6472628,12.6025205 L39.6462626,12.6025205 Z M0,18.3821764 L3.53570714,14.8464693 L12.4474895,23.7582517 L8.91178236,27.2939588 L0,18.3821764 Z M71.8478696,23.7577516 L80.7579849,14.8459692 L84.2936921,18.3816763 L75.3819097,27.2934587 L71.8478696,23.7577516 Z M42.1472628,24.6981063 C25.0771821,24.6981063 11.2377475,38.5375408 11.2377475,55.6076215 L6.30676135,55.6076215 C6.30676135,35.8136627 22.353304,19.7671201 42.1472628,19.7671201 C61.9412216,19.7671201 77.9877642,35.8136627 77.9877642,55.6076215 L73.055111,55.6076215 C73.055111,38.5375408 59.2173435,24.6981063 42.1472628,24.6981063 Z" id="Combined-Shape"></path>
        </g>
    </g>
</svg>