<?xml version="1.0" encoding="UTF-8"?>
<svg width="27px" height="38px" viewBox="0 0 27 38" version="1.1" xmlns="http://www.w3.org/2000/svg" xmlns:xlink="http://www.w3.org/1999/xlink">
    <!-- Generator: Sketch 49 (51002) - http://www.bohemiancoding.com/sketch -->
    <title>Slice 1</title>
    <desc>Created with Sketch.</desc>
    <defs>
        <polygon id="path-1" points="0 0.00038 26.59962 0.00038 26.59962 20.5311467 0 20.5311467"></polygon>
    </defs>
    <g id="Page-1" stroke="none" stroke-width="1" fill="none" fill-rule="evenodd">
        <g id="icon">
            <polygon id="Fill-1" fill="#101010" points="2.1375 20.53121 13.0891 37.99981 13.0891 34.3473767 3.7829 19.58121"></polygon>
            <polygon id="Fill-2" fill="#101010" points="13.08891 34.34744 13.08891 37.9998733 24.4629433 20.5312733 22.8175433 19.5812733"></polygon>
            <g id="Group-8">
                <g id="Group-5">
                    <mask id="mask-2" fill="white">
                        <use xlink:href="#path-1"></use>
                    </mask>
                    <g id="Clip-4"></g>
                    <path d="M3.78315333,19.5811467 C2.84835333,18.0282133 1.89962,15.8603133 1.89962,13.30038 C1.89962,7.00378 7.00365333,1.90038 13.29962,1.90038 C19.59622,1.90038 24.69962,7.00378 24.69962,13.30038 C24.69962,15.8603133 23.60142,18.4861133 22.4626867,20.11948 L24.4627533,20.5311467 C25.65912,18.5355133 26.59962,15.7963467 26.59962,13.30038 C26.59962,5.95434667 20.6456533,0.00038 13.29962,0.00038 C5.95485333,0.00038 -0.00038,5.95434667 -0.00038,13.30038 C-0.00038,15.7963467 0.941386667,18.5355133 2.13775333,20.5311467 L3.78315333,19.5811467 Z" id="Fill-3" fill="#101010" mask="url(#mask-2)"></path>
                </g>
                <path d="M13.2998733,18.37756 C10.5018067,18.37756 8.23320667,16.10896 8.23320667,13.3108933 C8.23320667,10.5128267 10.5018067,8.24422667 13.2998733,8.24422667 C16.09794,8.24422667 18.36654,10.5128267 18.36654,13.3108933 C18.36654,16.10896 16.09794,18.37756 13.2998733,18.37756 M13.2998733,6.34422667 C9.45237333,6.34422667 6.33320667,9.46339333 6.33320667,13.3108933 C6.33320667,17.1583933 9.45237333,20.27756 13.2998733,20.27756 C17.1473733,20.27756 20.26654,17.1583933 20.26654,13.3108933 C20.26654,9.46339333 17.1473733,6.34422667 13.2998733,6.34422667" id="Fill-6" fill="#101010"></path>
            </g>
        </g>
    </g>
</svg>