<?xml version="1.0" encoding="UTF-8"?>
<svg width="293px" height="70px" viewBox="0 0 293 70" version="1.1" xmlns="http://www.w3.org/2000/svg" xmlns:xlink="http://www.w3.org/1999/xlink">
    <!-- Generator: Sketch 49 (51002) - http://www.bohemiancoding.com/sketch -->
    <title>Slice 1</title>
    <desc>Created with Sketch.</desc>
    <defs></defs>
    <g id="Page-1" stroke="none" stroke-width="1" fill="none" fill-rule="evenodd">
        <g id="logo" fill="#10A957" fill-rule="nonzero">
            <g id="文字" transform="translate(79.800000, 11.200000)">
                <path d="M8.79412451,17.8582476 C9.31142595,17.1913421 9.60702678,16.820839 9.75482719,16.6726378 L9.75482719,28.1582327 L15.8885443,28.1582327 L15.8885443,9.04027472 C16.1841451,8.59567104 16.7753468,7.85466492 18.0316503,6.59495451 C19.6574548,4.37193613 20.4703571,3.18632633 20.4703571,2.88992388 C20.3225566,2.59352144 17.8838498,1.63021347 12.932536,0 C8.86802472,7.41006124 4.50791257,13.1158084 0,17.0431409 C1.62580453,18.6733543 3.39940948,20.2294672 5.32081483,21.5632782 C6.57711833,20.3776684 7.75952163,19.117958 8.79412451,17.8582476 Z" id="Shape"></path>
                <path d="M29.0103022,30.51336 C29.0103022,30.1173957 29.0858908,29.6422384 29.2370682,29.0086954 C29.3882455,28.5335381 29.4638342,28.2167666 29.4638342,27.8999951 C29.5394229,27.4248378 27.8764721,27.1872592 24.3993932,27.1872592 L21.451435,27.1872592 L21.451435,31.7804461 L1.94955782,31.7804461 L1.94955782,38.1158763 L21.451435,38.1158763 L21.5270237,38.1158763 L21.5270237,49.5196507 L29.2370682,49.5196507 L29.2370682,38.1950692 L48.7389454,38.1950692 L48.7389454,31.859639 L29.0858908,31.859639 L29.0858908,30.51336 L29.0103022,30.51336 Z" id="Shape"></path>
                <path d="M17.5460203,15.2702048 C18.7195406,17.4187764 19.7463708,19.2604091 20.5531659,20.9485724 C22.0200662,20.3346949 23.5603116,19.797552 25.0272119,19.030205 L25.0272119,22.2530623 C24.8805218,25.7061237 26.5674572,27.3175524 30.0880179,27.164083 L39.6228698,27.164083 C42.9967405,27.3175524 45.0504009,26.7036748 45.9305411,25.4759196 C46.8106813,24.5551032 47.4707864,21.6391847 47.7641665,16.9583682 C45.1970909,16.49796 42.8500505,15.9608171 40.8697351,15.0400007 C41.3098052,19.7208173 39.9895949,21.7926541 37.0557943,21.1787765 L33.8286136,21.1787765 C32.5084034,21.3322459 31.7749532,20.4881643 31.7749532,18.8000009 L31.7749532,16.0375518 C33.6819236,15.1167354 35.588894,13.8889803 37.4225194,12.6612251 C41.2364601,10.3591842 44.0235707,8.82449023 45.7838511,7.98040855 C45.7838511,7.82693916 43.8768807,5.83183702 40.1362849,2.07183684 C39.9895949,2.22530623 39.6962148,2.53224502 39.3294898,2.91591851 C37.4225194,4.91102065 34.9287889,6.82938809 31.8482982,8.59428613 L31.8482982,3.83673488 C31.8482982,3.0693879 31.9216433,2.53224502 32.0683333,1.91836744 C32.2150233,1.53469395 32.2883683,1.15102046 32.2883683,0.690612279 C32.1416783,0.537142883 31.5549182,0.383673488 30.674778,0.230204093 C29.7946378,0.230204093 28.4010825,0.153469395 26.8608372,0 L25.0272119,0 L25.0272119,12.5077557 C23.1202415,13.5820415 21.066581,14.5028578 18.7195406,14.963266 L17.5460203,15.2702048 Z" id="Shape"></path>
                <path d="M76.7466774,26.0897573 C75.9915669,28.024757 74.254813,29.9597567 71.5364155,31.8203334 C73.4997026,33.2343716 75.1609455,34.8716791 76.3691222,36.8066788 C79.616097,34.0530254 81.8059172,31.373795 82.8630718,28.7689877 C83.9202264,26.3130265 84.5243147,22.5918732 84.5243147,17.6055278 L87.2427122,17.6055278 L87.2427122,31.5970642 C86.789646,35.4670636 88.9039552,37.1787941 93.5101287,36.8066788 L95.850971,36.8066788 C100.8347,37.4764864 103.326564,34.4251407 103.326564,27.5037956 C101.212255,27.3549494 99.0979458,26.833988 96.8326146,25.8664881 C96.9836367,29.2899491 96.2285262,30.7784105 94.7183054,30.1830259 C94.038706,30.1830259 93.7366618,29.7364875 93.7366618,28.7689877 L93.7366618,17.6055278 L102.722476,17.6055278 L102.722476,11.6516825 L71.1588602,11.6516825 L71.1588602,17.6055278 L77.7283209,17.6055278 C77.879343,21.6243733 77.6528099,24.4524499 76.7466774,26.0897573 Z" id="Shape"></path>
                <path d="M64.608346,13.5424375 C64.2184344,13.8502202 66.4019392,12.7729809 71.1588602,10.2337738 C69.5212317,6.38649043 67.9615854,3.00088105 66.4019392,0 C65.7780807,0 63.5165936,1.00029368 59.4615134,3.00088105 C59.4615134,3.30866372 59.8514249,4.3089574 60.7092304,6.00176209 C62.5808059,9.84904549 63.9065052,12.3113069 64.608346,13.5424375 Z" id="Shape"></path>
                <polygon id="Shape" points="99.4274486 1.94194708 74.083197 1.94194708 74.083197 1.94194708 74.083197 8.73876188 99.4274486 8.73876188"></polygon>
                <path d="M85.7055609,39.4088609 C75.5078738,39.4088609 70.1090983,37.4739499 69.5092344,33.6815243 L69.5092344,14.5646031 L56.3872107,14.5646031 L56.3872107,20.5241292 L62.6107991,20.5241292 L62.6107991,33.8363171 C62.6107991,35.2294531 60.8861902,37.0869677 57.4369726,39.4088609 C56.2372447,40.1054289 55.5623977,40.4924111 55.5623977,40.647204 C56.4621936,42.04034 58.1868025,44.0526474 60.7362242,46.60673 C61.0361562,46.2971443 61.5610372,45.2909905 62.6107991,43.5882688 C64.2604249,41.1889791 65.3851698,39.7958432 66.1349997,39.5636538 C66.2849657,39.7184467 66.6598807,40.1054289 67.3347276,40.8019969 C69.5842174,42.5047186 71.4587922,43.6656652 73.1084181,44.4396297 C75.8827888,45.368387 81.3565473,45.9101621 89.5296935,45.9101621 L101.97687,45.9101621 C102.276802,44.0526474 102.951649,41.5759613 104.301343,38.5575001 C102.576734,39.0218787 100.252261,39.3314645 97.2529418,39.4088609 C94.70352,39.5636538 90.8044044,39.5636538 85.7055609,39.4088609 Z" id="Shape"></path>
                <rect id="Rectangle-path" x="116.973469" y="2.91292063" width="32.1677039" height="6.7968148"></rect>
                <path d="M110.30193,22.4376201 L126.480728,22.4376201 C124.505851,27.7014447 122.151191,31.927332 119.340789,35.1894204 C118.277394,36.7463263 116.530388,37.7101252 114.09977,38.3032321 C113.795943,38.7480624 113.8719,40.0084147 114.32764,42.1584276 C114.555511,44.2343021 114.935295,45.4946544 115.315079,46.013623 C115.922733,46.013623 117.213999,45.6429312 119.264832,44.9756858 C120.783968,44.5308556 122.227147,44.2343021 123.442456,44.1601637 C130.050698,42.9739497 137.418507,42.232566 145.697798,42.0842892 C146.001625,42.5291195 146.457366,43.4929183 147.140977,44.9756858 C147.596718,45.8653463 147.900545,46.4584533 147.976502,46.60673 C152.837737,43.8636102 155.268355,42.4549811 155.268355,42.3067043 C149.419681,33.9290681 145.242057,28.4428284 142.887396,25.6997086 C142.735483,25.6997086 142.279742,26.0704005 141.444217,26.7376458 C139.165513,28.2945517 137.646377,29.1842122 136.810853,29.6290424 C136.810853,29.9255959 137.11468,30.3704261 137.798291,31.2600866 C138.861686,32.4463006 140.304865,34.2256216 141.975915,36.5980495 C139.545297,36.894603 134.835976,37.1911565 128.151778,37.4135717 C127.164339,37.4135717 126.480728,37.4135717 126.024987,37.4135717 C130.810266,30.9635331 134.152365,25.9221237 136.127241,22.4376201 L156.939404,22.4376201 L156.939404,16.5065502 L110.150017,16.5065502 L110.150017,22.4376201 L110.30193,22.4376201 Z" id="Shape"></path>
                <polygon id="Shape" points="197.880118 7.23065404 194.636316 0 189.107108 2.06590115 192.35091 9.70973542"></polygon>
                <path d="M200.828086,28.6197448 L211.042587,28.6197448 L211.042587,23.0756058 L200.444082,23.0756058 L200.444082,16.4076548 L209.813775,16.4076548 L209.813775,11.0133573 L204.130519,11.0133573 C205.666534,7.26731741 207.048948,4.42032708 208.27776,2.47238633 C208.584963,2.17270314 208.815365,1.87301995 208.968967,1.64825756 C208.815365,1.49841596 206.28094,0.973970374 201.135289,0 C200.367281,3.37143591 199.368871,7.04255501 198.140059,11.0133573 L186.543144,11.0133573 L186.543144,16.4076548 L194.376822,16.4076548 L194.376822,23.0756058 L186.08234,23.0756058 L186.08234,28.6197448 L193.916017,28.6197448 C193.301611,34.5384879 190.15278,39.333419 184.546324,42.9296173 L184.546324,38.8089734 C186.235941,38.3594486 187.234351,38.0597654 187.695156,37.9848446 L187.695156,32.5905471 C186.005539,33.0400719 185.007129,33.2648343 184.546324,33.2648343 L184.546324,7.86668379 L186.235941,7.86668379 L186.235941,2.24762394 L162.888509,2.24762394 L162.888509,7.79176299 L166.728547,7.79176299 L166.728547,36.1867454 L161.813299,36.8610326 L163.502915,43.3042213 C169.03257,42.1054885 173.871018,40.9816765 178.171861,40.0077061 L178.171861,48.3239147 L184.546324,48.3239147 L184.546324,45.0273996 C185.928738,46.375974 186.927148,47.4997859 187.695156,48.5486771 C191.919198,45.252162 195.22163,41.4312013 197.679255,36.9359534 C200.751285,41.7308845 204.130519,45.5518452 207.663354,48.5486771 C208.738564,46.6007364 210.044177,44.877558 211.27299,43.5289836 C211.810595,43.0794589 212.194599,42.7797757 212.501802,42.4800925 C205.973737,39.4832606 202.133699,34.8381711 200.828086,28.6197448 Z M172.411804,7.94160459 L177.941459,7.94160459 L177.941459,13.4857436 L172.411804,13.4857436 L172.411804,7.94160459 Z M172.411804,18.5054371 L177.941459,18.5054371 L177.941459,24.0495762 L172.411804,24.0495762 L172.411804,18.5054371 Z M178.09506,34.3886463 C176.09824,34.8381711 174.178221,35.1378543 172.411804,35.2127751 L172.411804,28.9943488 L178.09506,28.9943488 L178.09506,34.3886463 Z" id="Shape"></path>
            </g>
            <g id="Shape">
                <path d="M34.750632,0 C15.4987819,0 0,15.5682832 0,34.750632 C0,54.0024822 15.4987819,69.5012641 34.750632,69.5012641 C53.9329809,69.5012641 69.5012641,54.0024822 69.5012641,34.750632 C69.5012641,15.5682832 54.0024822,0 34.750632,0 Z M34.750632,65.4006895 C18.0008274,65.4006895 4.10057458,51.7784417 4.10057458,34.750632 C4.10057458,18.0008274 17.9313261,4.10057458 34.750632,4.10057458 C51.7784417,4.10057458 65.4006895,18.0008274 65.4006895,34.750632 C65.4006895,51.7784417 51.7784417,65.4006895 34.750632,65.4006895 Z"></path>
                <path d="M36.0806411,59.4123709 C50.1547144,59.4123709 61.6508635,48.0034356 61.6508635,34.0361331 C61.7205371,29.9565744 60.7451063,25.8770157 58.724571,22.4197626 L35.8716202,59.4123709 L36.0806411,59.4123709 Z"></path>
                <polygon points="38.1135964 41.9677803 34.5128467 35.8716202 34.5128467 35.8716202 26.9037151 35.8716202 34.3090307 48.2024896"></polygon>
                <path d="M7.84691691,34.0361331 C7.84691691,48.0725807 19.3455846,59.2740808 33.6296439,59.4123709 L10.8465694,22.4197626 C8.77538077,26.0844509 7.84691691,29.9565744 7.84691691,34.0361331 Z"></path>
                <path d="M34.1560362,7.84691691 C28.3587262,7.84691691 23.0388419,10.0759711 18.7420122,13.7910615 C16.1502736,16.0201157 13.9677569,18.7692825 12.3308694,21.9642602 L19.4922523,21.9642602 L23.3116564,28.7257247 L31.0186684,28.7257247 L27.4720788,21.9642602 L36.0657382,21.9642602 L42.2040664,33.6296439 L48.6152091,21.667053 L56.0494065,21.667053 C51.5479659,13.568156 43.3635284,7.84691691 34.1560362,7.84691691 Z"></path>
            </g>
        </g>
    </g>
</svg>