<?xml version="1.0" encoding="UTF-8"?>
<svg width="34px" height="34px" viewBox="0 0 34 34" version="1.1" xmlns="http://www.w3.org/2000/svg" xmlns:xlink="http://www.w3.org/1999/xlink">
    <!-- Generator: Sketch 49 (51002) - http://www.bohemiancoding.com/sketch -->
    <title>Slice 1</title>
    <desc>Created with Sketch.</desc>
    <defs>
        <polygon id="path-1" points="0 0.000283333333 33.9999433 0.000283333333 33.9999433 34 0 34"></polygon>
    </defs>
    <g id="Page-1" stroke="none" stroke-width="1" fill="none" fill-rule="evenodd">
        <g id="icon">
            <g id="Group-3">
                <mask id="mask-2" fill="white">
                    <use xlink:href="#path-1"></use>
                </mask>
                <g id="Clip-2"></g>
                <path d="M16.9999433,32.3002833 C8.55037667,32.3002833 1.69994333,25.44985 1.69994333,17.0002833 C1.69994333,8.55015 8.55037667,1.70028333 16.9999433,1.70028333 C25.4500767,1.70028333 32.2999433,8.55015 32.2999433,17.0002833 C32.2999433,25.44985 25.4500767,32.3002833 16.9999433,32.3002833 M16.9999433,0.000283333333 C7.61141,0.000283333333 -5.66666667e-05,7.61118333 -5.66666667e-05,17.0002833 C-5.66666667e-05,26.3888167 7.61141,34.0002833 16.9999433,34.0002833 C26.3884767,34.0002833 33.9999433,26.3888167 33.9999433,17.0002833 C33.9999433,7.61118333 26.3884767,0.000283333333 16.9999433,0.000283333333" id="Fill-1" fill="#10A957" mask="url(#mask-2)"></path>
            </g>
            <polygon id="Fill-4" fill="#10A957" points="10.3886433 11.5903733 11.5905433 10.3884733 23.6112433 22.40974 22.4093433 23.61164"></polygon>
            <polygon id="Fill-6" fill="#10A957" points="22.4092867 10.3884167 23.6111867 11.5903167 11.5904867 23.6115833 10.3885867 22.4096833"></polygon>
        </g>
    </g>
</svg>