<?xml version="1.0" encoding="UTF-8"?>
<svg width="34px" height="34px" viewBox="0 0 34 34" version="1.1" xmlns="http://www.w3.org/2000/svg" xmlns:xlink="http://www.w3.org/1999/xlink">
    <!-- Generator: Sketch 49 (51002) - http://www.bohemiancoding.com/sketch -->
    <title>Slice 1</title>
    <desc>Created with Sketch.</desc>
    <defs></defs>
    <g id="Page-1" stroke="none" stroke-width="1" fill="none" fill-rule="evenodd">
        <g id="icon" fill="#10A957">
            <polygon id="Fill-1" points="0 1.67268852 16.7213115 1.67268852 16.7213115 7.10542736e-15 0 7.10542736e-15"></polygon>
            <polygon id="Fill-2" points="0 33.4437377 33.442623 33.4437377 33.442623 31.7716066 0 31.7716066"></polygon>
            <polygon id="Fill-3" points="0 33.442623 1.67213115 33.442623 1.67213115 0 0 0"></polygon>
            <polygon id="Fill-4" points="31.7710492 33.442623 33.4431803 33.442623 33.4431803 16.9308852 31.7710492 16.9308852"></polygon>
            <path d="M26.2342328,1.64030492 L24.9974131,3.09338689 L24.0214459,4.23991148 L13.4881344,16.5897148 L13.4886918,16.5897148 L12.1548885,24.8054525 L19.6131508,21.8351902 L33.4427902,5.61328852 L27.3183311,0.367813115 L26.2342328,1.64030492 Z M26.3741344,4.04761639 L27.5039377,2.72105902 L31.0895443,5.80614098 L29.9602984,7.13214098 L26.3741344,4.04761639 Z M15.9545279,16.2642066 L25.2905934,5.3201082 L28.8762,8.40463279 L19.5406918,19.3487311 L15.9545279,16.2642066 Z M15.3414131,17.9368951 L17.9867246,20.2210262 L14.4434787,22.1400754 L15.3414131,17.9368951 Z" id="Fill-5"></path>
        </g>
    </g>
</svg>