<?xml version="1.0" encoding="utf-8"?>
<!-- Generator: Adobe Illustrator 22.0.1, SVG Export Plug-In . SVG Version: 6.00 Build 0)  -->
<svg version="1.0" id="图层_1" xmlns="http://www.w3.org/2000/svg" xmlns:xlink="http://www.w3.org/1999/xlink" x="0px" y="0px"
	 viewBox="0 0 500 500" style="enable-background:new 0 0 500 500;" xml:space="preserve">
<rect style="fill:#FFFFFF;" width="500" height="500"/>
<g>
	<rect x="151" y="190.9" style="fill:#EAEAEA;" width="8.5" height="50.9"/>
	<rect x="340.5" y="190.9" style="fill:#EAEAEA;" width="8.5" height="50.9"/>
	<rect x="151" y="190.9" style="fill:#EAEAEA;" width="198" height="8.5"/>
	<rect x="306.6" y="212.1" style="fill:#EAEAEA;" width="22.6" height="8.5"/>
	<rect x="170.8" y="207.9" style="fill:#EAEAEA;" width="8.5" height="17"/>
	<rect x="190.6" y="207.9" style="fill:#EAEAEA;" width="8.5" height="17"/>
	<rect x="210.4" y="207.9" style="fill:#EAEAEA;" width="8.5" height="17"/>
	<rect x="151" y="233.3" style="fill:#EAEAEA;" width="198" height="8.5"/>
</g>
<g>
	<rect x="151" y="254.8" style="fill:#EAEAEA;" width="8.5" height="50.9"/>
	<rect x="340.5" y="254.8" style="fill:#EAEAEA;" width="8.5" height="50.9"/>
	<rect x="151" y="254.8" style="fill:#EAEAEA;" width="198" height="8.5"/>
	<rect x="306.6" y="277.5" style="fill:#EAEAEA;" width="22.6" height="8.5"/>
	<rect x="170.8" y="273.2" style="fill:#EAEAEA;" width="8.5" height="17"/>
	<rect x="190.6" y="273.2" style="fill:#EAEAEA;" width="8.5" height="17"/>
	<rect x="210.4" y="273.2" style="fill:#EAEAEA;" width="8.5" height="17"/>
	<rect x="151" y="297.3" style="fill:#EAEAEA;" width="198" height="8.5"/>
</g>
</svg>
