<?xml version="1.0" encoding="UTF-8"?>
<svg width="34px" height="34px" viewBox="0 0 34 34" version="1.1" xmlns="http://www.w3.org/2000/svg" xmlns:xlink="http://www.w3.org/1999/xlink">
    <!-- Generator: Sketch 49 (51002) - http://www.bohemiancoding.com/sketch -->
    <title>Slice 1</title>
    <desc>Created with Sketch.</desc>
    <defs>
        <polygon id="path-1" points="0.000113333333 0.000113333333 34 0.000113333333 34 34 0.000113333333 34"></polygon>
    </defs>
    <g id="Page-1" stroke="none" stroke-width="1" fill="none" fill-rule="evenodd">
        <g id="icon">
            <path d="M24.7193033,8.20182 C24.7153367,8.17858667 24.7119367,8.15592 24.7040033,8.13325333 C24.6966367,8.10322 24.6813367,8.07262 24.6700033,8.04202 C24.66207,8.01935333 24.6547033,7.99668667 24.64337,7.97742 C24.62807,7.94738667 24.60937,7.92075333 24.59407,7.89412 C24.57877,7.87485333 24.5674367,7.85218667 24.5521367,7.83348667 C24.54817,7.82952 24.54817,7.82555333 24.5442033,7.82215333 C24.5255033,7.79892 24.5028367,7.78022 24.48357,7.75698667 C24.4688367,7.74168667 24.4535367,7.72298667 24.4382367,7.70768667 C24.40027,7.67368667 24.3623033,7.64705333 24.32037,7.62042 C24.3130033,7.61645333 24.3090367,7.61305333 24.30167,7.60908667 C24.2518033,7.57848667 24.2025033,7.55582 24.1498033,7.53712 L24.1039033,7.52578667 C24.0659367,7.51445333 24.0240033,7.50255333 23.98207,7.49518667 C23.9747033,7.49518667 23.9707367,7.49122 23.96337,7.49122 C23.94807,7.48782 23.9367367,7.49122 23.9214367,7.49122 C23.88347,7.48782 23.8455033,7.48782 23.8075367,7.48782 C23.78827,7.48782 23.7656033,7.49122 23.7469033,7.49122 C23.7089367,7.49518667 23.67437,7.50255333 23.6364033,7.51048667 C23.6177033,7.51445333 23.5984367,7.51785333 23.5797367,7.52578667 C23.5457367,7.53712 23.51117,7.54845333 23.47717,7.56375333 C23.4579033,7.57112 23.4392033,7.57848667 23.4239033,7.58982 C23.41257,7.59775333 23.4012367,7.60115333 23.3899033,7.60512 L6.09353667,17.5965867 C6.08560333,17.5999867 6.08163667,17.6039533 6.07823667,17.60792 C6.04763667,17.62662 6.01760333,17.6492867 5.99097,17.67252 L5.93373667,17.7178533 C5.91107,17.7410867 5.88840333,17.7637533 5.86913667,17.78982 C5.85043667,17.8090867 5.83117,17.8283533 5.81643667,17.85102 C5.79717,17.8736867 5.78583667,17.90032 5.77053667,17.9269533 C5.75523667,17.9535867 5.73993667,17.9762533 5.72860333,18.0028867 C5.71727,18.0255533 5.70990333,18.0521867 5.70197,18.07882 C5.69063667,18.10942 5.67930333,18.1394533 5.67193667,18.17402 C5.67193667,18.1813867 5.66797,18.18932 5.66400333,18.1966867 C5.66060333,18.2153867 5.66060333,18.2346533 5.65663667,18.2533533 C5.65267,18.28792 5.64530333,18.31852 5.64530333,18.35252 C5.64530333,18.3825533 5.64530333,18.4091867 5.64870333,18.43582 C5.64870333,18.46642 5.65267,18.4964533 5.65663667,18.5270533 C5.66060333,18.5576533 5.66797,18.5876867 5.67590333,18.6148867 C5.68327,18.6409533 5.69063667,18.6675867 5.69857,18.6981867 C5.70990333,18.72822 5.72463667,18.75882 5.73993667,18.78942 C5.74787,18.80812 5.75523667,18.82342 5.76260333,18.84212 C5.76657,18.8500533 5.77053667,18.85402 5.77790333,18.8613867 L5.83513667,18.9412867 C5.85043667,18.9639533 5.86913667,18.98662 5.88443667,19.0058867 C5.90313667,19.0245867 5.92637,19.0438533 5.94507,19.06312 C5.96830333,19.08182 5.99097,19.1044867 6.01760333,19.1231867 C6.03630333,19.1384867 6.05897,19.14982 6.08163667,19.16172 C6.11223667,19.18042 6.13887,19.19572 6.17287,19.21102 C6.19213667,19.2183867 6.21480333,19.22632 6.23407,19.2336867 C6.26807,19.2489867 6.30603667,19.26032 6.34400333,19.2676867 C6.35137,19.2676867 6.35533667,19.2716533 6.36270333,19.2716533 L11.17257,20.2933533 C11.23717,20.3086533 11.2978033,20.31262 11.3624033,20.31262 C11.7806033,20.31262 12.1563033,20.02022 12.2475367,19.5946533 C12.3501033,19.1044867 12.0390033,18.6222533 11.5488367,18.5196867 L9.04870333,17.9875867 L19.1467033,12.1446867 L13.17857,18.62622 C13.0227367,18.79282 12.93887,19.0132533 12.93887,19.2410533 L12.93887,24.9207533 C12.93887,25.4222533 13.3457367,25.8285533 13.84667,25.8285533 C14.34817,25.8285533 14.7550367,25.4222533 14.7550367,24.9207533 L14.7550367,19.5946533 L22.5427367,11.13432 L20.7685033,23.94042 L16.8137367,20.9087533 C16.4148033,20.60502 15.8487033,20.6809533 15.5410033,21.07592 C15.23727,21.4748533 15.3132033,22.04492 15.70817,22.3486533 L20.90167,26.3260867 C20.9090367,26.33402 20.91697,26.33402 20.9243367,26.33742 C20.9963033,26.3906867 21.0722367,26.43262 21.1595033,26.46322 C21.1674367,26.46662 21.1748033,26.46662 21.1867033,26.4705867 C21.2320367,26.4858867 21.27737,26.49722 21.3306367,26.5045867 C21.37257,26.5085533 21.4139367,26.51252 21.45247,26.51252 C21.51707,26.51252 21.5777033,26.5045867 21.6383367,26.4892867 C21.6576033,26.4858867 21.6729033,26.4779533 21.6876367,26.4745533 C21.72957,26.46322 21.7715033,26.44792 21.8134367,26.4286533 C21.8321367,26.4212867 21.8508367,26.4099533 21.8701033,26.40202 C21.90807,26.3793533 21.9460367,26.3566867 21.9840033,26.3300533 C21.9993033,26.31872 22.0146033,26.3113533 22.0299033,26.30002 C22.0792033,26.2580867 22.1211367,26.2121867 22.1625033,26.1628867 L22.1704367,26.15552 C22.18177,26.1441867 22.18517,26.1288867 22.1931033,26.1175533 C22.21577,26.0869533 22.2350367,26.0523867 22.2537367,26.0183867 C22.26507,25.99572 22.2730033,25.9730533 22.2843367,25.94982 C22.29567,25.9197867 22.3070033,25.8931533 22.3183367,25.8591533 C22.3257033,25.83252 22.3336367,25.8058867 22.3376033,25.7792533 C22.3410033,25.7599867 22.3489367,25.7452533 22.3489367,25.7259867 L24.7306367,8.51348667 L24.7306367,8.47495333 C24.7346033,8.44095333 24.7346033,8.40695333 24.7346033,8.36898667 C24.7346033,8.34575333 24.7346033,8.32308667 24.7306367,8.29645333 C24.7306367,8.26642 24.7272367,8.23582 24.7193033,8.20182" id="Fill-1" fill="#10A957"></path>
            <g id="Group-5">
                <mask id="mask-2" fill="white">
                    <use xlink:href="#path-1"></use>
                </mask>
                <g id="Clip-4"></g>
                <path d="M17.0001133,32.3001133 C8.54998,32.3001133 1.70011333,25.4502467 1.70011333,17.0001133 C1.70011333,8.54998 8.54998,1.70011333 17.0001133,1.70011333 C25.4502467,1.70011333 32.3001133,8.54998 32.3001133,17.0001133 C32.3001133,25.4502467 25.4502467,32.3001133 17.0001133,32.3001133 M17.0001133,0.000113333333 C7.61101333,0.000113333333 0.000113333333,7.61101333 0.000113333333,17.0001133 C0.000113333333,26.3886467 7.61101333,34.0001133 17.0001133,34.0001133 C26.3886467,34.0001133 34.0001133,26.3886467 34.0001133,17.0001133 C34.0001133,7.61101333 26.3886467,0.000113333333 17.0001133,0.000113333333" id="Fill-3" fill="#10A957" mask="url(#mask-2)"></path>
            </g>
        </g>
    </g>
</svg>