<?xml version="1.0" encoding="UTF-8"?>
<svg width="20px" height="22px" viewBox="0 0 20 22" version="1.1" xmlns="http://www.w3.org/2000/svg" xmlns:xlink="http://www.w3.org/1999/xlink">
    <!-- Generator: Sketch 49 (51002) - http://www.bohemiancoding.com/sketch -->
    <title>Slice 1</title>
    <desc>Created with Sketch.</desc>
    <defs>
        <polygon id="path-1" points="7.54285714e-05 0 19.5666743 0 19.5666743 21.9365771 7.54285714e-05 21.9365771"></polygon>
    </defs>
    <g id="Page-1" stroke="none" stroke-width="1" fill="none" fill-rule="evenodd">
        <g id="icon">
            <mask id="mask-2" fill="white">
                <use xlink:href="#path-1"></use>
            </mask>
            <g id="Clip-2"></g>
            <path d="M17.5949211,9.999 L9.80553829,9.999 L9.80553829,20.0390457 C10.3068869,19.921 10.8522354,19.7393429 11.4405783,19.4975943 C12.0284183,19.2547143 12.6098469,18.9674571 13.1827269,18.6364514 C13.7557326,18.3036857 14.309504,17.9354686 14.8395154,17.5304171 C15.3701554,17.1246114 15.8399497,16.6892629 16.2496526,16.225 C16.6592297,15.7606114 16.9845783,15.2778686 17.2292183,14.7763943 C17.4724754,14.27492 17.5949211,13.7666571 17.5949211,13.2499714 L17.5949211,9.999 Z M9.80553829,1.61737714 L9.69692114,1.59512571 L1.97215543,2.94466857 L1.97215543,9.999 L9.80553829,9.999 L9.80553829,1.61737714 Z M19.5667497,1.84944571 L19.5667497,13.02884 C19.5667497,13.6995257 19.4028183,14.3658114 19.0775954,15.0295829 C18.751744,15.6928514 18.3244411,16.3360057 17.7953097,16.9599257 C17.2676869,17.58372 16.6632526,18.1729429 15.9855269,18.7296057 C15.3069211,19.2862686 14.6200183,19.7823371 13.9220526,20.2176857 C13.2238354,20.6534114 12.545104,21.0160971 11.8867383,21.3033543 C11.2287497,21.5916171 10.6518469,21.7896171 10.1554011,21.8966 L9.920944,21.9365771 L9.70484114,21.8966 C9.19645257,21.7896171 8.60572114,21.5916171 7.93402971,21.3033543 C7.26183543,21.0160971 6.56399543,20.6534114 5.839504,20.2176857 C5.11589257,19.7823371 4.40535543,19.2862686 3.70738971,18.7296057 C3.00954971,18.1729429 2.38676114,17.58372 1.83839543,16.9599257 C1.29002971,16.3360057 0.846384,15.6928514 0.508338286,15.0295829 C0.170669714,14.3658114 7.54285714e-05,13.6995257 7.54285714e-05,13.02884 L7.54285714e-05,1.84944571 L0.802509714,1.72850857 L9.80402971,-6.28571429e-05 L18.9812983,1.72863429 L19.5667497,1.84944571 Z" id="Fill-1" fill="#ffffff" mask="url(#mask-2)"></path>
        </g>
    </g>
</svg>
