<?xml version="1.0" encoding="utf-8"?>
<!-- Generator: Adobe Illustrator 22.0.1, SVG Export Plug-In . SVG Version: 6.00 Build 0)  -->
<svg version="1.1" id="图层_1" xmlns="http://www.w3.org/2000/svg" xmlns:xlink="http://www.w3.org/1999/xlink" x="0px" y="0px"
	 viewBox="0 0 402 254" style="enable-background:new 0 0 402 254;" xml:space="preserve">
<style type="text/css">
	.st0{enable-background:new    ;}
	.st1{fill:#101010;}
	.st2{filter:url(#Adobe_OpacityMaskFilter);}
	.st3{fill:#FFFFFF;}
	.st4{mask:url(#mask-2_1_);fill:#3A3A3A;}
	.st5{fill:#2B2B2B;}
	.st6{filter:url(#Adobe_OpacityMaskFilter_1_);}
	.st7{mask:url(#mask-4_1_);fill:#2B2B2B;}
	.st8{filter:url(#Adobe_OpacityMaskFilter_2_);}
	.st9{mask:url(#mask-4_2_);fill:#FFFFFF;}
	.st10{filter:url(#Adobe_OpacityMaskFilter_3_);}
	.st11{mask:url(#mask-4_3_);fill:#F0F3F4;}
	.st12{fill:#DBDBDB;}
</style>
<title>Slice 1</title>
<desc>Created with Sketch.</desc>
<g id="文案">
	<g class="st0">
		<path class="st1" d="M26.5,222.8v2h-3.7v19c0,1.8-0.9,2.8-2.7,2.8h-4.7l-0.4-2c1.5,0.1,3,0.1,4.4,0.1c0.9,0,1.4-0.5,1.4-1.5v-18.5
			H1.5v-2H26.5z M15.7,239.3H6.7v2.5h-2V229h10.9V239.3z M13.7,237.5v-6.6h-7v6.6H13.7z"/>
		<path class="st1" d="M39.4,234.5c-1.1,0.5-2.2,1-3.3,1.4v8.2c0,1.6-0.8,2.4-2.4,2.4h-2.4l-0.4-2c0.7,0.1,1.4,0.1,2.1,0.1
			s1-0.4,1-1.1v-7c-1.2,0.4-2.4,0.8-3.7,1.1l-0.5-1.9c1.4-0.3,2.8-0.7,4.1-1.1v-6.5h-3.8v-1.9H34v-5.1h2v5.1h3.1v1.9H36v5.8
			c1.1-0.4,2.2-0.9,3.3-1.5V234.5z M54.1,223.3v22.9h-2v-1.7H39.6v-2h12.5v-7.8H40.9v-1.9h11.1v-7.4H40.2v-2H54.1z"/>
		<path class="st1" d="M59.4,246.4l-0.4-1.9c0.8,0.1,1.6,0.1,2.3,0.1c0.7,0,1.1-0.4,1.1-1.1v-6.9c-1.2,0.4-2.4,0.9-3.6,1.3l-0.5-2
			c1.4-0.4,2.7-0.8,4.1-1.3v-6.4h-3.5v-2h3.5v-5.1h2v5.1H67v2h-2.7v5.6c1.1-0.5,2.1-1,3.1-1.6v2c-1,0.6-2.1,1.1-3.1,1.5v8.3
			c0,1.6-0.8,2.4-2.4,2.4H59.4z M73.5,221.2v3.2h4.9v-3.2h1.9v3.2h3.7v1.9h-3.7v3.1h-1.9v-3.1h-4.9v3.1h-1.9v-3.1h-3.7v-1.9h3.7
			v-3.2H73.5z M82.9,246.7h-2v-1.2H70.9v1.2h-2v-16.1h14V246.7z M75,237.3v-4.7h-4.1v4.7H75z M75,243.7v-4.6h-4.1v4.6H75z
			 M76.9,237.3H81v-4.7h-4.1V237.3z M81,243.7v-4.6h-4.1v4.6H81z"/>
		<path class="st1" d="M93,229.7v12.4c1-0.8,2.1-1.8,3.2-2.9l0.6,2.1c-1.8,1.7-3.6,3.1-5.6,4.4l-0.8-1.8c0.4-0.4,0.6-0.8,0.6-1.3
			v-11.1h-3.9v-1.9H93z M94.9,225.8l-1.4,1.4c-1.1-1.3-2.6-2.7-4.5-4.2l1.4-1.3C92.2,223.1,93.7,224.4,94.9,225.8z M110.5,233v1.8
			c-0.9,2.6-2.4,4.9-4.4,6.8c1.9,1.3,4.2,2.5,7,3.5l-1.1,1.7c-2.9-1.2-5.4-2.5-7.3-4c-2.2,1.7-5,3-8.3,4l-1.1-1.7
			c3.1-0.9,5.7-2.1,7.8-3.6c-2.1-2-3.6-4.1-4.3-6.6h-1.5v-2H110.5z M108.7,222.2v6c0,0.7,0.4,1.1,1.1,1.1h2.6v1.8h-3.1
			c-1.7,0-2.6-0.8-2.6-2.5v-4.6h-5.4v1c0,3-1.5,5.3-4.3,6.9l-1.3-1.5c2.4-1.2,3.7-2.9,3.7-5.1v-3.1H108.7z M104.4,240.4
			c1.8-1.6,3.1-3.4,4-5.4h-7.9C101.3,237,102.6,238.8,104.4,240.4z"/>
		<path class="st1" d="M126.8,221.2c-0.4,0.7-0.9,1.3-1.3,1.9h11.4v1.5c-1.7,2.1-3.8,3.9-6.3,5.4c3,1.3,6.6,2.2,10.7,2.7l-0.9,1.8
			c-4.6-0.7-8.5-1.8-11.8-3.5c-3.4,1.7-7.4,2.9-12.1,3.7l-0.9-1.8c4.2-0.6,7.8-1.6,11-3c-1.7-1-3.2-2.2-4.5-3.5
			c-1.2,1.1-2.5,2.1-3.9,3l-1.3-1.6c3.1-1.8,5.7-4.2,7.8-7.2L126.8,221.2z M137.4,246.8h-1.9v-1.2h-13.8v1.2h-1.9v-12.2h17.6V246.8z
			 M127.6,239.2v-3h-5.9v3H127.6z M127.6,243.8v-3h-5.9v3H127.6z M128.6,229.2c2.2-1.2,4.2-2.7,5.8-4.3h-10.4l-0.6,0.6
			C124.9,226.9,126.6,228.1,128.6,229.2z M129.5,239.2h6v-3h-6V239.2z M135.5,243.8v-3h-6v3H135.5z"/>
		<path class="st1" d="M169.7,241.8v2h-25v-2H169.7z M167.2,224.2v2h-19.9v-2H167.2z"/>
		<path class="st1" d="M182.9,243.1c-2.8,1.1-5.9,1.9-9.5,2.6l-0.3-2c3.7-0.6,6.9-1.5,9.7-2.5V243.1z M179.8,221.8
			c-1.3,3.6-2.7,6.5-4,8.6c1.1-0.2,2.3-0.4,3.5-0.6c0.5-1.1,1-2.2,1.5-3.3l1.8,0.7c-2.4,4.8-4.3,8.3-5.8,10.3
			c1.8-0.4,3.7-1.1,5.5-1.9v1.8c-2.7,1.1-5.4,1.9-7.9,2.3l-0.6-1.8c0.4-0.1,0.7-0.3,0.9-0.6c1-1.1,2.2-3.1,3.6-5.7
			c-1.5,0.3-2.9,0.6-4.5,0.8l-0.5-1.8c0.3-0.1,0.6-0.4,0.8-0.8c1.4-2.6,2.6-5.5,3.6-8.8L179.8,221.8z M186.8,246.7h-2v-16.5
			c-0.8,1.3-1.6,2.6-2.5,3.8l-0.6-2c2.2-3.3,3.8-6.9,4.7-10.8l1.9,0.4c-0.4,1.5-0.8,2.9-1.4,4.3h5.1c-0.4-1.5-1-2.9-1.6-4.3l2-0.5
			c0.6,1.7,1.1,3.2,1.5,4.6l-0.8,0.3h5.1v1.9h-4.5v3.8h4v1.9h-4v3.8h4v1.8h-4v4.3h5v1.9h-11.9V246.7z M186.8,227.8v3.8h5v-3.8H186.8
			z M186.8,237.3h5v-3.8h-5V237.3z M186.8,243.4h5v-4.3h-5V243.4z"/>
		<path class="st1" d="M211.1,245.3h-1.8v-1.6h-3v2.1h-1.9v-11.4c-0.6,1-1.2,2-1.8,2.9l-1-1.6c2.1-3.2,3.5-7,4.2-11.1h-3.4v-2h9.5v2
			h-4.2c-0.4,2.2-0.9,4.3-1.7,6.3h5.2V245.3z M209.2,241.9v-9.1h-3v9.1H209.2z M222.7,238.8v1.9h-10.2v-1.9H222.7z M216.9,226.3
			l-1.2,7.1h5.9l1.4-9.2h-9.9v-1.9h12l-1.5,11.1h3c0,6.8-0.4,10.7-1.1,11.7c-0.8,1-2.4,1.5-4.8,1.5c-0.8,0-1.6,0-2.5-0.1l-0.6-2
			c1.2,0.1,2.1,0.2,2.6,0.2c2.2,0,3.4-0.5,3.9-1.4c0.4-1,0.7-3.7,0.7-8.1h-11.3l1.5-9.1L216.9,226.3z"/>
		<path class="st1" d="M248.7,244c-0.4-0.5-0.7-1.1-1-1.7c-1.6,1.9-3.3,3.4-5.2,4.5l-1.1-1.7c2-1.2,3.8-2.8,5.3-4.9
			c-0.4-1.1-0.7-2.2-1-3.4c-0.6-2.9-1-6.2-1-10.1h-14.1v-2h14.1v-3.6h2v3.6h4.1c-0.5-1-1-2-1.6-2.8l2-0.3c0.5,0.9,1,2,1.5,3.1h2.7v2
			h-8.8c0.1,3.4,0.3,6.4,0.8,9.1c0.2,0.9,0.3,1.7,0.6,2.4c1.6-2.6,2.9-5.6,3.9-9.2l1.8,1c-1.3,4.2-2.9,7.8-4.9,10.6
			c0.3,0.6,0.6,1.2,0.9,1.7c1,1.5,1.8,2.2,2.6,2.2c0.7,0,1.3-1.6,1.7-4.8l1.7,1.1c-0.8,3.9-1.8,5.8-3.2,5.8
			C251.3,246.7,250,245.8,248.7,244z M243.3,241.7c-3.7,1-7.8,1.9-12.1,2.6l-0.5-2c4.4-0.6,8.5-1.4,12.6-2.5V241.7z M242.4,229.6
			v8.5h-10.3v-8.5H242.4z M240.4,231.5h-6.3v4.8h6.3V231.5z"/>
		<path class="st1" d="M259.9,246.5l-0.4-1.9c0.7,0.1,1.4,0.1,2.1,0.1c0.5,0,0.8-0.3,0.8-0.8v-7c-1,0.4-1.9,0.7-2.8,1l-0.5-2
			c1.1-0.3,2.2-0.6,3.3-1v-6.7h-3.1v-1.9h3.1v-5.1h2v5.1h2.6v1.9h-2.6v5.9c0.8-0.4,1.7-0.8,2.5-1.3v2c-0.8,0.4-1.7,0.9-2.5,1.3v8.3
			c0,1.3-0.7,2-2.1,2H259.9z M283.9,235h-1.6v1.2c-1,2.2-2.5,4.2-4.6,5.9c1.9,1.1,4.3,2.1,7.1,2.9l-1.2,1.8
			c-3.1-0.9-5.6-2.1-7.6-3.5c-2.3,1.4-5.1,2.5-8.4,3.4l-1.1-1.9c3.1-0.7,5.7-1.7,7.8-2.8c-1.9-1.6-3.3-3.5-4.1-5.7H269V235h-1.3
			v-5.3h10.9c1-1.7,1.9-3.4,2.6-5.4l1.9,0.7c-0.8,1.8-1.6,3.4-2.4,4.7h3.4V235z M283.8,222.9c-3.9,0.8-9.2,1.1-15.8,1.1l-0.6-1.8
			c6.2,0,11.3-0.3,15.4-1L283.8,222.9z M272.3,228.4l-1.7,0.6c-0.5-1.3-1.1-2.5-1.9-3.8l1.7-0.5
			C271.2,226.1,271.9,227.3,272.3,228.4z M282,234.5v-2.8h-12.4v2.8H282z M276,240.9c1.8-1.3,3.3-2.9,4.3-4.6h-8.1
			C272.9,238,274.2,239.5,276,240.9z M277.2,228.4l-1.7,0.6c-0.5-1.3-1.1-2.6-1.9-3.9l1.7-0.4C276.1,226,276.8,227.3,277.2,228.4z"
			/>
		<path class="st1" d="M294.5,246.7h-2v-14.5c-1,3-2.4,5.6-4.1,8l-0.9-2.3c2.3-2.7,3.9-5.9,4.9-9.4h-4.3v-1.9h4.4v-5.5h2v5.5h3.7
			v1.9h-3.7v1.6c1.4,1.3,2.8,2.9,4.3,4.6l-1.1,1.7c-1.2-1.7-2.2-3.1-3.1-4.2V246.7z M300,224.8h-1.1v-1.9h12.6v1.9
			c-0.8,5.2-2.4,9.7-4.8,13.5c1.8,2.5,4,4.8,6.8,6.9l-1.4,1.6c-2.6-2.1-4.8-4.3-6.6-6.8c-2,2.7-4.4,4.9-7.2,6.7l-1.3-1.6
			c2.9-2,5.4-4.3,7.3-6.9C301.8,234.1,300.4,229.7,300,224.8z M301.9,224.8c0.3,4.3,1.5,8.2,3.6,11.6c2-3.4,3.3-7.2,4-11.6H301.9z"
			/>
		<path class="st1" d="M341.6,241.8v2h-25v-2H341.6z M339,224.2v2h-19.9v-2H339z"/>
		<path class="st1" d="M354.8,243.1c-2.8,1.1-5.9,1.9-9.5,2.6l-0.3-2c3.7-0.6,6.9-1.5,9.7-2.5V243.1z M351.7,221.8
			c-1.3,3.6-2.7,6.5-4,8.6c1.1-0.2,2.3-0.4,3.5-0.6c0.5-1.1,1-2.2,1.5-3.3l1.8,0.7c-2.4,4.8-4.3,8.3-5.8,10.3
			c1.8-0.4,3.7-1.1,5.5-1.9v1.8c-2.7,1.1-5.4,1.9-7.9,2.3l-0.6-1.8c0.4-0.1,0.7-0.3,0.9-0.6c1-1.1,2.2-3.1,3.6-5.7
			c-1.5,0.3-2.9,0.6-4.5,0.8l-0.5-1.8c0.3-0.1,0.6-0.4,0.8-0.8c1.4-2.6,2.6-5.5,3.6-8.8L351.7,221.8z M358.7,246.7h-2v-16.5
			c-0.8,1.3-1.6,2.6-2.5,3.8l-0.6-2c2.2-3.3,3.8-6.9,4.7-10.8l1.9,0.4c-0.4,1.5-0.8,2.9-1.4,4.3h5.1c-0.4-1.5-1-2.9-1.6-4.3l2-0.5
			c0.6,1.7,1.1,3.2,1.5,4.6l-0.8,0.3h5.1v1.9h-4.5v3.8h4v1.9h-4v3.8h4v1.8h-4v4.3h5v1.9h-11.9V246.7z M358.7,227.8v3.8h5v-3.8H358.7
			z M358.7,237.3h5v-3.8h-5V237.3z M358.7,243.4h5v-4.3h-5V243.4z"/>
		<path class="st1" d="M383,245.3h-1.8v-1.6h-3v2.1h-1.9v-11.4c-0.6,1-1.2,2-1.8,2.9l-1-1.6c2.1-3.2,3.5-7,4.2-11.1h-3.4v-2h9.5v2
			h-4.2c-0.4,2.2-0.9,4.3-1.7,6.3h5.2V245.3z M381.1,241.9v-9.1h-3v9.1H381.1z M394.6,238.8v1.9h-10.2v-1.9H394.6z M388.7,226.3
			l-1.2,7.1h5.9l1.4-9.2H385v-1.9h12l-1.5,11.1h3c0,6.8-0.4,10.7-1.1,11.7c-0.8,1-2.4,1.5-4.8,1.5c-0.8,0-1.6,0-2.5-0.1l-0.6-2
			c1.2,0.1,2.1,0.2,2.6,0.2c2.2,0,3.4-0.5,3.9-1.4c0.4-1,0.7-3.7,0.7-8.1h-11.3l1.5-9.1L388.7,226.3z"/>
	</g>
	<g id="icon" transform="translate(61.000000, 0.000000)">
		<g id="Group-10" transform="translate(0.000000, 0.136449)">
			<g id="Group-3">
				<g id="Clip-2">
				</g>
				<defs>
					<filter id="Adobe_OpacityMaskFilter" filterUnits="userSpaceOnUse" x="0" y="1.7" width="280.4" height="196.3">
						<feColorMatrix  type="matrix" values="1 0 0 0 0  0 1 0 0 0  0 0 1 0 0  0 0 0 1 0"/>
					</filter>
				</defs>
				<mask maskUnits="userSpaceOnUse" x="0" y="1.7" width="280.4" height="196.3" id="mask-2_1_">
					<g class="st2">
						<polygon id="path-1_1_" class="st3" points="0,1.7 280.4,1.7 280.4,198 0,198 						"/>
					</g>
				</mask>
				<path id="Fill-1" class="st4" d="M280.4,198H0V46.6C0,21.8,20.1,1.7,44.9,1.7h190.7c24.8,0,44.9,20.1,44.9,44.9V198z"/>
			</g>
			<path id="Fill-4" class="st5" d="M165.4,27.9H115c-1.5,0-2.8-1.3-2.8-2.8c0-1.5,1.3-2.8,2.8-2.8h50.5c1.5,0,2.8,1.3,2.8,2.8
				C168.2,26.6,167,27.9,165.4,27.9"/>
			<g id="Clip-7">
			</g>
			<defs>
				<filter id="Adobe_OpacityMaskFilter_1_" filterUnits="userSpaceOnUse" x="11.2" y="57.3" width="256.1" height="140.7">
					<feColorMatrix  type="matrix" values="1 0 0 0 0  0 1 0 0 0  0 0 1 0 0  0 0 0 1 0"/>
				</filter>
			</defs>
			<mask maskUnits="userSpaceOnUse" x="11.2" y="57.3" width="256.1" height="140.7" id="mask-4_1_">
				<g class="st6">
					<polygon id="path-3_1_" class="st3" points="0,198.1 280.4,198.1 280.4,1.7 0,1.7 					"/>
				</g>
			</mask>
			<polygon id="Fill-6" class="st7" points="11.2,198 267.3,198 267.3,57.3 11.2,57.3 			"/>
			<defs>
				<filter id="Adobe_OpacityMaskFilter_2_" filterUnits="userSpaceOnUse" x="13.1" y="59.1" width="252.3" height="143.9">
					<feColorMatrix  type="matrix" values="1 0 0 0 0  0 1 0 0 0  0 0 1 0 0  0 0 0 1 0"/>
				</filter>
			</defs>
			<mask maskUnits="userSpaceOnUse" x="13.1" y="59.1" width="252.3" height="143.9" id="mask-4_2_">
				<g class="st8">
					<polygon id="path-3_2_" class="st3" points="0,198.1 280.4,198.1 280.4,1.7 0,1.7 					"/>
				</g>
			</mask>
			<polygon id="Fill-8" class="st9" points="13.1,203 265.4,203 265.4,59.1 13.1,59.1 			"/>
			<defs>
				<filter id="Adobe_OpacityMaskFilter_3_" filterUnits="userSpaceOnUse" x="13.1" y="59.1" width="252.3" height="33.6">
					<feColorMatrix  type="matrix" values="1 0 0 0 0  0 1 0 0 0  0 0 1 0 0  0 0 0 1 0"/>
				</filter>
			</defs>
			<mask maskUnits="userSpaceOnUse" x="13.1" y="59.1" width="252.3" height="33.6" id="mask-4_3_">
				<g class="st10">
					<polygon id="path-3_3_" class="st3" points="0,198.1 280.4,198.1 280.4,1.7 0,1.7 					"/>
				</g>
			</mask>
			<polygon id="Fill-9" class="st11" points="13.1,92.8 265.4,92.8 265.4,59.1 13.1,59.1 			"/>
		</g>
		<g class="st0">
			<path class="st1" d="M121.5,76.7c0.7-0.2,1.4-0.4,2.1-0.6v-3h-1.9v-0.9h1.9v-2.7h1.1v2.7h1.9v0.9h-1.9v2.6
				c0.6-0.2,1.3-0.4,1.9-0.6c0,0.5,0,0.8,0,1.1c-0.6,0.2-1.3,0.4-1.9,0.6v4.3c0,1-0.5,1.4-1.4,1.4c-0.4,0-0.8,0-1.4,0
				c-0.1-0.4-0.1-0.8-0.2-1.1c0.6,0.1,1,0.1,1.3,0.1c0.4,0,0.6-0.2,0.6-0.6v-3.7c-0.7,0.2-1.3,0.4-1.9,0.7L121.5,76.7z M127.2,75.5
				h6v-4h-6.3v-1.1h7.5v12.3h-1.1V82h-6.9v-1h6.9v-4.4h-6V75.5z"/>
			<path class="st1" d="M135.6,75h13.6v1.2h-13.6V75z"/>
			<path class="st1" d="M149.5,76.7c0.7-0.2,1.4-0.4,2.1-0.6v-3h-1.9v-0.9h1.9v-2.7h1.1v2.7h1.9v0.9h-1.9v2.6
				c0.6-0.2,1.3-0.4,1.9-0.6c0,0.5,0,0.8,0,1.1c-0.6,0.2-1.3,0.4-1.9,0.6v4.3c0,1-0.5,1.4-1.4,1.4c-0.4,0-0.8,0-1.4,0
				c-0.1-0.4-0.1-0.8-0.2-1.1c0.6,0.1,1,0.1,1.3,0.1c0.4,0,0.6-0.2,0.6-0.6v-3.7c-0.7,0.2-1.3,0.4-1.9,0.7L149.5,76.7z M155.2,75.5
				h6v-4h-6.3v-1.1h7.5v12.3h-1.1V82h-6.9v-1h6.9v-4.4h-6V75.5z"/>
		</g>
		<g id="Group-52" transform="translate(41.121495, 127.239252)">
			<polygon id="Fill-11" class="st12" points="0.6,3.6 19.3,3.6 19.3,1.7 0.6,1.7 			"/>
			<polygon id="Fill-13" class="st12" points="0.6,20.4 2.5,20.4 2.5,1.7 0.6,1.7 			"/>
			<polygon id="Fill-14" class="st12" points="178.2,3.6 196.9,3.6 196.9,1.7 178.2,1.7 			"/>
			<polygon id="Fill-15" class="st12" points="195,20.4 196.9,20.4 196.9,1.7 195,1.7 			"/>
			<path id="Fill-16" class="st1" d="M32.2,56.5h24.3V32.2H32.2V56.5z M26.6,62.1h35.5V26.6H26.6V62.1z"/>
			<polygon id="Fill-17" class="st1" points="37.8,50.9 50.9,50.9 50.9,37.9 37.8,37.9 			"/>
			<path id="Fill-18" class="st1" d="M142.5,56.5h24.3V32.2h-24.3V56.5z M136.9,62.1h35.5V26.6h-35.5V62.1z"/>
			<polygon id="Fill-19" class="st1" points="148.1,50.9 161.2,50.9 161.2,37.9 148.1,37.9 			"/>
			<polygon id="Fill-20" class="st1" points="71.7,51.9 77.3,51.9 77.3,26.6 71.7,26.6 			"/>
			<polygon id="Fill-21" class="st1" points="66.5,67 72.1,67 72.1,51.9 66.5,51.9 			"/>
			<polygon id="Fill-22" class="st1" points="47.1,71 66.5,71 66.5,65.4 47.1,65.4 			"/>
			<polygon id="Fill-23" class="st1" points="82.5,42.1 88.1,42.1 88.1,26.6 82.5,26.6 			"/>
			<polygon id="Fill-24" class="st1" points="87.3,67 92.9,67 92.9,42.1 87.3,42.1 			"/>
			<polygon id="Fill-25" class="st1" points="96.6,62.1 102.2,62.1 102.2,51.3 96.6,51.3 			"/>
			<polygon id="Fill-26" class="st1" points="71.7,51.9 82.5,51.9 82.5,46.3 71.7,46.3 			"/>
			<polygon id="Fill-27" class="st1" points="75.9,62.5 82.5,62.5 82.5,56.9 75.9,56.9 			"/>
			<polygon id="Fill-28" class="st1" points="75.9,69.8 82.5,69.8 82.5,64.2 75.9,64.2 			"/>
			<polygon id="Fill-29" class="st1" points="92.9,71 99.5,71 99.5,65.4 92.9,65.4 			"/>
			<polygon id="Fill-30" class="st1" points="106.4,71 113.1,71 113.1,65.4 106.4,65.4 			"/>
			<polygon id="Fill-31" class="st1" points="106.4,62.5 113.1,62.5 113.1,56.9 106.4,56.9 			"/>
			<polygon id="Fill-32" class="st1" points="102.2,51.3 108.8,51.3 108.8,42.1 102.2,42.1 			"/>
			<polygon id="Fill-33" class="st1" points="107.9,42.1 117,42.1 117,37.5 107.9,37.5 			"/>
			<polygon id="Fill-34" class="st1" points="112.8,51.4 121.9,51.4 121.9,46.8 112.8,46.8 			"/>
			<polygon id="Fill-35" class="st1" points="122.3,42.5 132.4,42.5 132.4,37.9 122.3,37.9 			"/>
			<polygon id="Fill-36" class="st1" points="117.3,51.4 121.9,51.4 121.9,42.1 117.3,42.1 			"/>
			<polygon id="Fill-37" class="st1" points="112.8,56.9 117.4,56.9 117.4,46.8 112.8,46.8 			"/>
			<polygon id="Fill-38" class="st1" points="121.9,56.9 132.4,56.9 132.4,52.3 121.9,52.3 			"/>
			<polygon id="Fill-39" class="st1" points="122.5,66.8 132.4,66.8 132.4,62.1 122.5,62.1 			"/>
			<polygon id="Fill-40" class="st1" points="136.9,71 146.8,71 146.8,66.4 136.9,66.4 			"/>
			<polygon id="Fill-41" class="st1" points="162.6,71 167.6,71 167.6,66.4 162.6,66.4 			"/>
			<polygon id="Fill-42" class="st1" points="117.4,61.8 122,61.8 122,57.2 117.4,57.2 			"/>
			<polygon id="Fill-43" class="st1" points="127.8,69.8 132.4,69.8 132.4,52.3 127.8,52.3 			"/>
			<polygon id="Fill-44" class="st1" points="66.5,37.5 77.3,37.5 77.3,31.9 66.5,31.9 			"/>
			<polygon id="Fill-45" class="st1" points="82.5,37.9 93.3,37.9 93.3,32.2 82.5,32.2 			"/>
			<polygon id="Fill-46" class="st1" points="87.3,47.7 97.3,47.7 97.3,42.1 87.3,42.1 			"/>
			<polygon id="Fill-47" class="st1" points="87.3,56.9 102.1,56.9 102.1,51.3 87.3,51.3 			"/>
			<polygon id="Fill-48" class="st1" points="82.5,32.2 97.3,32.2 97.3,26.6 82.5,26.6 			"/>
			<polygon id="Fill-49" class="st1" points="112.1,32.2 132.4,32.2 132.4,26.6 112.1,26.6 			"/>
			<polygon id="Fill-50" class="st1" points="102,32.2 107.9,32.2 107.9,26.6 102,26.6 			"/>
			<polygon id="Fill-51" class="st1" points="107.9,37.9 132.4,37.9 132.4,32.2 107.9,32.2 			"/>
		</g>
	</g>
</g>
</svg>
