<?xml version="1.0" encoding="utf-8"?>
<!-- Generator: Adobe Illustrator 22.0.1, SVG Export Plug-In . SVG Version: 6.00 Build 0)  -->
<svg version="1.1" id="图层_1" xmlns="http://www.w3.org/2000/svg" xmlns:xlink="http://www.w3.org/1999/xlink" x="0px" y="0px"
	 viewBox="0 0 287 252" style="enable-background:new 0 0 287 252;" xml:space="preserve">
<style type="text/css">
	.st0{enable-background:new    ;}
	.st1{fill:#101010;}
	.st2{filter:url(#Adobe_OpacityMaskFilter);}
	.st3{fill:#FFFFFF;}
	.st4{mask:url(#mask-2_1_);fill:#3A3A3A;}
	.st5{fill:#2B2B2B;}
	.st6{filter:url(#Adobe_OpacityMaskFilter_1_);}
	.st7{mask:url(#mask-4_1_);fill:#2B2B2B;}
	.st8{filter:url(#Adobe_OpacityMaskFilter_2_);}
	.st9{mask:url(#mask-4_2_);fill:#FFFFFF;}
	.st10{filter:url(#Adobe_OpacityMaskFilter_3_);}
	.st11{mask:url(#mask-4_3_);fill:#F0F3F4;}
	.st12{filter:url(#Adobe_OpacityMaskFilter_4_);}
	.st13{mask:url(#mask-4_4_);}
	.st14{fill:none;stroke:#DBDBDB;}
	.st15{fill:#9E9E9E;}
	.st16{filter:url(#Adobe_OpacityMaskFilter_5_);}
	.st17{mask:url(#mask-4_5_);}
	.st18{fill:#10A957;}
</style>
<title>Slice 1</title>
<desc>Created with Sketch.</desc>
<g id="Page-1">
	<g id="文案">
		<g class="st0">
			<path class="st1" d="M7.1,227.7V240c0.8-0.8,1.7-1.7,2.7-2.6l0.5,2.1c-1.6,1.6-3.2,3.1-5,4.3L4.5,242c0.4-0.4,0.6-0.8,0.6-1.3
				v-11.1h-4v-1.9H7.1z M9.3,223.7l-1.4,1.4c-1.2-1.3-2.8-2.8-4.8-4.3l1.4-1.4C6.4,220.8,8,222.3,9.3,223.7z M19.1,219.1v1.8h6.9
				v1.7h-6.9v1.9h5.9v1.6h-5.9v1.9h7.6v1.7H9.6V228h7.6v-1.9h-5.7v-1.6h5.7v-1.9h-6.8v-1.7h6.8v-1.8H19.1z M13.7,244.8h-1.9v-13.4
				h12.9v10.9c0,1.5-0.8,2.3-2.4,2.3h-2.4l-0.5-1.8l2.2,0.1c0.7,0,1-0.3,1-1v-1.6h-9V244.8z M22.7,233.1h-9v2.1h9V233.1z
				 M13.7,238.8h9v-2h-9V238.8z"/>
			<path class="st1" d="M54.9,234.2v2H40c-1.5,2.9-2.8,4.9-4,6.1c4.3-0.2,8.6-0.6,12.8-1.1c-0.7-1-1.5-2.1-2.4-3.1l1.7-1
				c2.2,2.6,3.9,4.9,5.1,6.8l-1.7,1.2c-0.4-0.7-0.9-1.5-1.4-2.2c-5.1,0.6-10.6,1-16.5,1.3l-0.5-1.8c0.2-0.1,0.3-0.1,0.4-0.2
				c1.1-0.8,2.5-2.8,4.3-6h-7.3v-2H54.9z M43.7,219v4.7h3.5c0.9-1.3,1.7-2.7,2.3-4.2l1.9,0.7c-0.7,1.4-1.4,2.6-2.1,3.5h5v6.4h-2
				v-4.5H33v4.6h-2v-6.6h4.7c-0.6-1.1-1.2-2.2-2-3.2l1.9-0.7c0.8,1.1,1.5,2.4,2.1,3.9h3.9V219H43.7z M50.5,228.9v1.9H34.8v-1.9H50.5
				z"/>
			<path class="st1" d="M64.3,227.7v12.2c0.8-0.8,1.7-1.7,2.6-2.7l0.5,2.1c-1.5,1.7-3.2,3.2-4.9,4.5l-0.8-1.8
				c0.4-0.3,0.6-0.7,0.6-1.1v-11.2h-3.9v-1.9H64.3z M66.3,223.7l-1.4,1.4c-1.1-1.4-2.6-2.8-4.5-4.3l1.4-1.4
				C63.6,220.8,65.1,222.3,66.3,223.7z M78.5,242.2c-0.8-1.7-1.5-3.9-1.8-6.9c-0.3-2.5-0.5-5.5-0.6-9.2h-8.9v-2H76
				c-0.1-1.6-0.1-3.3-0.1-5.1h2c0,1.8,0,3.5,0.1,5.1h5.6v2H78c0.1,4.8,0.4,8.5,0.9,11.1c0.6,3.2,1.3,4.8,2.2,4.9
				c0.6-0.1,1.1-1.8,1.7-5.2l1.6,1.3c-0.9,4-2,6-3.3,6C80.1,244.4,79.2,243.7,78.5,242.2z M67.8,232.4v-1.9h7.3v1.9h-2.6v7.6
				c1.2-0.3,2.5-0.6,3.6-0.9v1.9c-2.4,0.7-5.1,1.3-7.9,1.8l-0.5-1.9c0.9-0.1,1.8-0.3,2.7-0.4v-8H67.8z M83.1,222.5l-1.4,1
				c-0.7-1.1-1.7-2.3-2.8-3.6l1.4-0.9C81.5,220.4,82.4,221.5,83.1,222.5z"/>
			<path class="st1" d="M110.3,221.1c-2.5,0.7-5.5,1.2-8.8,1.5v4.7h8.9v2h-8.9v4.6h11v1.9h-11v6.2c0,1.7-0.9,2.5-2.6,2.5h-4.3
				l-0.4-2c1.4,0.1,2.8,0.1,4.1,0.1c0.8,0,1.3-0.4,1.3-1.2v-5.7h-12v-1.9h12v-4.6h-9.7v-2h9.7v-4.6c-3,0.2-6.2,0.4-9.7,0.4l-0.6-1.8
				c8.1,0,14.8-0.7,20.2-2L110.3,221.1z"/>
			<path class="st1" d="M128.3,228.6v2h-6.5c-1.1,4.3-2.1,7.3-2.9,9.1c2.2-0.4,4.4-1.1,6.6-1.9c-0.7-1.5-1.4-2.9-2.2-4.2l1.7-0.8
				c1.3,2.4,2.6,5,3.8,7.8l-1.7,0.9c-0.3-0.7-0.6-1.4-0.8-2c-3,1.1-6.2,1.9-9.7,2.5l-0.5-1.9c0.2-0.1,0.3-0.1,0.4-0.2
				c0.8-1.1,2-4.3,3.4-9.4H116v-2H128.3z M127.2,221.1v1.9h-10.1v-1.9H127.2z M134.5,219.2v5.7h6.1c0,8.8-0.1,14.2-0.4,16.2
				c-0.3,2.3-1.7,3.4-4.1,3.4c-0.5,0-1.3,0-2.5-0.1l-0.4-1.8c1,0.1,1.9,0.1,2.7,0.1c1.4,0,2.2-0.8,2.4-2.4c0.2-1.5,0.3-6,0.3-13.5
				h-4.1v0.3c-0.1,8.1-2,14-5.9,17.7l-1.5-1.3c3.5-3.4,5.3-8.8,5.3-16.4v-0.3h-3.8v-2h3.8v-5.7H134.5z"/>
			<path class="st1" d="M151.5,226.9v4.2h2.6v1.8h-2.6v3.8c1-0.2,1.8-0.4,2.7-0.7v1.9l-2.7,0.7v6.2h-1.9V239c-1.6,0.3-3.2,0.6-5,0.8
				l-0.3-2c1.8-0.2,3.6-0.5,5.2-0.8v-4.2h-4.4l-0.4-1.7c0.8-1.7,1.5-3.8,2.1-6.3h-2.3V223h2.8c0.3-1.3,0.5-2.6,0.8-4l1.8,0.4
				c-0.3,1.3-0.5,2.5-0.8,3.6h4.9v1.9h-5.4c-0.6,2.3-1.3,4.3-2,6.1h2.8v-4.2H151.5z M154.7,228.2l-1.1-1.7c2.9-2.1,5.4-4.6,7.7-7.4
				h1.5c2.4,3,4.9,5.4,7.5,7.2l-1.1,1.6c-2.6-1.9-5-4.2-7.1-7c-1.3,1.6-2.7,3.1-4.1,4.5h8v1.7h-8v-1.7
				C156.8,226.5,155.8,227.4,154.7,228.2z M158.5,244.6l-0.4-1.7l1.2,0.1c0.6,0,0.9-0.3,0.9-0.9v-2.5h-3.1v5.2h-1.8v-15.4h6.6v13.1
				c0,1.4-0.7,2.2-2.1,2.2H158.5z M160.2,233.8V231h-3.1v2.8H160.2z M160.2,238v-2.7h-3.1v2.7H160.2z M165.2,230.2v10.1h-1.6v-10.1
				H165.2z M164.3,244.7l-0.4-1.8c0.8,0.1,1.5,0.1,2.2,0.1c0.6,0,0.9-0.4,0.9-1.2v-12.9h1.8v13.4c0,1.6-0.7,2.4-2,2.4H164.3z"/>
			<path class="st1" d="M180,220.2l1.7-1.1c2.5,1.7,4.6,4.9,6.3,9.4c2.6,6.7,6.1,11.4,10.6,14.2l-1.3,1.6
				c-4.5-2.7-8.2-7.8-11.1-15.2c-0.2-0.4-0.3-0.8-0.4-1.2c-1.8,7.1-5.7,12.6-11.6,16.4l-1.2-1.7c6-3.9,9.9-9.6,11.7-17.1
				C183.3,223.3,181.8,221.5,180,220.2z"/>
			<path class="st1" d="M212.7,219.3c-0.4,0.7-0.9,1.4-1.3,2h10.9v1.6c-1.6,2-3.5,3.6-5.8,5.1c3,1.3,6.6,2.2,10.8,2.7l-0.9,1.9
				c-4.6-0.7-8.6-1.8-11.8-3.4c-3.4,1.7-7.3,3-11.9,3.7l-0.9-1.8c4.1-0.6,7.8-1.6,10.8-3c-1.6-1-3-2.1-4.2-3.3
				c-1.1,1.1-2.4,2.1-3.7,2.9l-1.3-1.5c3-1.8,5.4-4.3,7.3-7.3L212.7,219.3z M210,238.9c-1.7,2-3.9,3.7-6.4,5.2l-1.3-1.7
				c2.5-1.3,4.6-2.9,6.3-4.7L210,238.9z M213.6,234v-2.7h2.1v2.7h9.3v1.9h-9.3v6.2c0,1.7-0.9,2.5-2.6,2.5h-3.1l-0.4-1.9
				c1,0.1,2,0.1,2.9,0.1c0.8,0,1.2-0.4,1.2-1.3V236H204V234H213.6z M214.6,227c2-1.1,3.8-2.5,5.2-3.9H210l-0.4,0.4
				C211,224.8,212.6,226,214.6,227z M218.5,238.8l1.3-1.2c1.8,1.1,3.9,2.8,6.4,5l-1.5,1.5C222.7,242.1,220.6,240.3,218.5,238.8z"/>
			<path class="st1" d="M237,219.7c-1.3,3.7-2.7,6.6-4,8.8c1.2-0.2,2.5-0.4,3.8-0.6c0.4-0.9,0.9-1.8,1.4-2.8l1.8,0.7
				c-2.5,4.6-4.5,7.9-6.1,9.9c2-0.4,4-1,6-1.7v1.8c-2.9,1-5.8,1.7-8.5,2.1L231,236c0.4-0.2,0.7-0.4,0.9-0.6c1.1-1.1,2.4-3,3.9-5.7
				c-1.5,0.3-3.1,0.5-4.6,0.8l-0.5-1.9c0.3-0.1,0.6-0.4,0.9-0.8c1.3-2.6,2.5-5.6,3.5-8.9L237,219.7z M240.3,241
				c-2.7,1.1-5.8,2-9.3,2.7l-0.3-2c3.6-0.7,6.8-1.6,9.5-2.7V241z M246.8,223.2c-0.4-1.3-0.9-2.6-1.5-3.7l2-0.3
				c0.5,1.2,1,2.5,1.4,4.1h6.8v1.9h-1.7c-0.8,4.9-2.2,9-4.3,12.2c1.8,2.1,3.9,4,6.4,5.6l-1.1,1.8c-2.5-1.7-4.7-3.6-6.5-5.7
				c-2,2.5-4.5,4.5-7.4,5.8l-1.1-1.8c2.9-1.3,5.3-3.2,7.2-5.7c-2.5-3.5-4.2-7.6-4.9-12.2h-2v-1.9H246.8z M248.2,235.6
				c1.7-2.9,2.9-6.4,3.6-10.4h-7.8C244.7,229.1,246.1,232.5,248.2,235.6z"/>
			<path class="st1" d="M268.4,243.3h-1.8v-1.6h-3v2.1h-1.9v-11.4c-0.6,1-1.2,2-1.8,2.9l-1-1.6c2.1-3.2,3.5-7,4.2-11.1h-3.4v-2h9.5
				v2h-4.2c-0.4,2.2-0.9,4.3-1.7,6.3h5.2V243.3z M266.5,239.9v-9.1h-3v9.1H266.5z M280,236.8v1.9h-10.2v-1.9H280z M274.1,224.3
				l-1.2,7.1h5.9l1.4-9.2h-9.9v-1.9h12l-1.5,11.1h3c0,6.8-0.4,10.7-1.1,11.7c-0.8,1-2.4,1.5-4.8,1.5c-0.8,0-1.6,0-2.5-0.1l-0.6-2
				c1.2,0.1,2.1,0.2,2.6,0.2c2.2,0,3.4-0.5,3.9-1.4c0.4-1,0.7-3.7,0.7-8.1h-11.3l1.5-9.1L274.1,224.3z"/>
		</g>
		<g id="icon" transform="translate(2.000000, 0.000000)">
			<g id="Group-10" transform="translate(0.000000, 0.136449)">
				<g id="Group-3">
					<g id="Clip-2">
					</g>
					<defs>
						<filter id="Adobe_OpacityMaskFilter" filterUnits="userSpaceOnUse" x="0" y="1.7" width="280.4" height="196.3">
							<feColorMatrix  type="matrix" values="1 0 0 0 0  0 1 0 0 0  0 0 1 0 0  0 0 0 1 0"/>
						</filter>
					</defs>
					<mask maskUnits="userSpaceOnUse" x="0" y="1.7" width="280.4" height="196.3" id="mask-2_1_">
						<g class="st2">
							<polygon id="path-1_1_" class="st3" points="0,1.7 280.4,1.7 280.4,198 0,198 							"/>
						</g>
					</mask>
					<path id="Fill-1" class="st4" d="M280.4,198H0V46.6C0,21.8,20.1,1.7,44.9,1.7h190.7c24.8,0,44.9,20.1,44.9,44.9V198z"/>
				</g>
				<path id="Fill-4" class="st5" d="M165.4,27.9H115c-1.5,0-2.8-1.3-2.8-2.8c0-1.5,1.3-2.8,2.8-2.8h50.5c1.5,0,2.8,1.3,2.8,2.8
					C168.2,26.6,167,27.9,165.4,27.9"/>
				<g id="Clip-7">
				</g>
				<defs>
					<filter id="Adobe_OpacityMaskFilter_1_" filterUnits="userSpaceOnUse" x="11.2" y="57.3" width="256.1" height="140.7">
						<feColorMatrix  type="matrix" values="1 0 0 0 0  0 1 0 0 0  0 0 1 0 0  0 0 0 1 0"/>
					</filter>
				</defs>
				<mask maskUnits="userSpaceOnUse" x="11.2" y="57.3" width="256.1" height="140.7" id="mask-4_1_">
					<g class="st6">
						<polygon id="path-3_1_" class="st3" points="0,198.1 280.4,198.1 280.4,1.7 0,1.7 						"/>
					</g>
				</mask>
				<polygon id="Fill-6" class="st7" points="11.2,198 267.3,198 267.3,57.3 11.2,57.3 				"/>
				<defs>
					<filter id="Adobe_OpacityMaskFilter_2_" filterUnits="userSpaceOnUse" x="13.1" y="59.1" width="252.3" height="142.9">
						<feColorMatrix  type="matrix" values="1 0 0 0 0  0 1 0 0 0  0 0 1 0 0  0 0 0 1 0"/>
					</filter>
				</defs>
				<mask maskUnits="userSpaceOnUse" x="13.1" y="59.1" width="252.3" height="142.9" id="mask-4_2_">
					<g class="st8">
						<polygon id="path-3_2_" class="st3" points="0,198.1 280.4,198.1 280.4,1.7 0,1.7 						"/>
					</g>
				</mask>
				<polygon id="Fill-8" class="st9" points="13.1,202 265.4,202 265.4,59.1 13.1,59.1 				"/>
				<defs>
					<filter id="Adobe_OpacityMaskFilter_3_" filterUnits="userSpaceOnUse" x="13.1" y="59.1" width="252.3" height="33.6">
						<feColorMatrix  type="matrix" values="1 0 0 0 0  0 1 0 0 0  0 0 1 0 0  0 0 0 1 0"/>
					</filter>
				</defs>
				<mask maskUnits="userSpaceOnUse" x="13.1" y="59.1" width="252.3" height="33.6" id="mask-4_3_">
					<g class="st10">
						<polygon id="path-3_3_" class="st3" points="0,198.1 280.4,198.1 280.4,1.7 0,1.7 						"/>
					</g>
				</mask>
				<polygon id="Fill-9" class="st11" points="13.1,92.8 265.4,92.8 265.4,59.1 13.1,59.1 				"/>
				<defs>
					<filter id="Adobe_OpacityMaskFilter_4_" filterUnits="userSpaceOnUse" x="35" y="133" width="150" height="36">
						<feColorMatrix  type="matrix" values="1 0 0 0 0  0 1 0 0 0  0 0 1 0 0  0 0 0 1 0"/>
					</filter>
				</defs>
				<mask maskUnits="userSpaceOnUse" x="35" y="133" width="150" height="36" id="mask-4_4_">
					<g class="st12">
						<polygon id="path-3_4_" class="st3" points="0,198.1 280.4,198.1 280.4,1.7 0,1.7 						"/>
					</g>
				</mask>
				<g id="请输入条码数字_1_" class="st13">
					<g transform="translate(35.000000, 133.000000)">
						<path id="Rectangle-2" class="st14" d="M4.5,0.5h141c2.2,0,4,1.8,4,4v27c0,2.2-1.8,4-4,4H4.5c-2.2,0-4-1.8-4-4v-27
							C0.5,2.3,2.3,0.5,4.5,0.5z"/>
						<g class="st0">
							<path class="st15" d="M12.5,16.9v4.4c0.3-0.3,0.6-0.6,0.9-0.9l0.2,0.8c-0.6,0.6-1.2,1.1-1.8,1.5L11.6,22
								c0.1-0.1,0.2-0.3,0.2-0.5v-4h-1.4v-0.7H12.5z M13.3,15.5L12.8,16c-0.4-0.5-1-1-1.7-1.5l0.5-0.5C12.3,14.4,12.9,15,13.3,15.5z
								 M16.8,13.8v0.6h2.5v0.6h-2.5v0.7h2.1v0.6h-2.1V17h2.7v0.6h-6.1V17h2.7v-0.7h-2v-0.6h2v-0.7h-2.4v-0.6h2.4v-0.6H16.8z
								 M14.9,23h-0.7v-4.8h4.6v3.9c0,0.5-0.3,0.8-0.8,0.8h-0.8l-0.2-0.6l0.8,0c0.2,0,0.4-0.1,0.4-0.3v-0.6h-3.2V23z M18.1,18.8
								h-3.2v0.7h3.2V18.8z M14.9,20.9h3.2v-0.7h-3.2V20.9z"/>
							<path class="st15" d="M23.4,16.6v1.5h0.9v0.6h-0.9v1.3c0.3-0.1,0.6-0.2,0.9-0.2v0.7l-0.9,0.2V23h-0.7v-2.1
								c-0.6,0.1-1.2,0.2-1.8,0.3l-0.1-0.7c0.7-0.1,1.3-0.2,1.9-0.3v-1.5h-1.6L21,18.2c0.3-0.6,0.5-1.3,0.8-2.2H21v-0.7h1
								c0.1-0.5,0.2-0.9,0.3-1.4l0.7,0.1c-0.1,0.5-0.2,0.9-0.3,1.3h1.8v0.7h-1.9c-0.2,0.8-0.4,1.5-0.7,2.2h1v-1.5H23.4z M24.5,17.1
								l-0.4-0.6c1-0.7,1.9-1.6,2.7-2.6h0.5c0.9,1.1,1.8,1.9,2.7,2.6L29.7,17c-0.9-0.7-1.8-1.5-2.5-2.5c-0.5,0.6-1,1.1-1.5,1.6h2.9
								v0.6h-2.9v-0.6C25.3,16.5,24.9,16.8,24.5,17.1z M25.9,22.9l-0.2-0.6l0.4,0c0.2,0,0.3-0.1,0.3-0.3v-0.9h-1.1V23h-0.6v-5.5h2.4
								v4.7c0,0.5-0.2,0.8-0.7,0.8H25.9z M26.5,19.1v-1h-1.1v1H26.5z M26.5,20.6v-0.9h-1.1v0.9H26.5z M28.3,17.8v3.6h-0.6v-3.6H28.3
								z M28,22.9l-0.1-0.6c0.3,0,0.5,0,0.8,0c0.2,0,0.3-0.1,0.3-0.4v-4.6h0.6v4.8c0,0.6-0.2,0.9-0.7,0.9H28z"/>
							<path class="st15" d="M33.8,14.2l0.6-0.4c0.9,0.6,1.6,1.7,2.3,3.4c0.9,2.4,2.2,4.1,3.8,5.1L40,22.8c-1.6-1-2.9-2.8-4-5.4
								c-0.1-0.2-0.1-0.3-0.2-0.4c-0.7,2.5-2,4.5-4.1,5.9l-0.4-0.6c2.1-1.4,3.5-3.4,4.2-6.1C35,15.3,34.5,14.7,33.8,14.2z"/>
							<path class="st15" d="M45.7,13.9c-0.2,0.2-0.3,0.5-0.5,0.7h3.9v0.6c-0.6,0.7-1.3,1.3-2.1,1.8c1.1,0.4,2.4,0.8,3.8,1l-0.3,0.7
								c-1.7-0.2-3.1-0.6-4.2-1.2c-1.2,0.6-2.6,1.1-4.2,1.3l-0.3-0.7c1.5-0.2,2.8-0.6,3.9-1.1c-0.6-0.4-1.1-0.7-1.5-1.2
								c-0.4,0.4-0.8,0.7-1.3,1l-0.5-0.5c1.1-0.7,1.9-1.5,2.6-2.6L45.7,13.9z M44.8,20.9c-0.6,0.7-1.4,1.3-2.3,1.9L42,22.2
								c0.9-0.5,1.6-1,2.2-1.7L44.8,20.9z M46,19.2v-1h0.7v1h3.3v0.7h-3.3v2.2c0,0.6-0.3,0.9-0.9,0.9h-1.1l-0.2-0.7c0.4,0,0.7,0,1,0
								c0.3,0,0.4-0.2,0.4-0.5v-2h-3.4v-0.7H46z M46.4,16.6c0.7-0.4,1.3-0.9,1.9-1.4h-3.5l-0.1,0.2C45.1,15.9,45.7,16.3,46.4,16.6z
								 M47.8,20.9l0.5-0.4c0.6,0.4,1.4,1,2.3,1.8L50,22.7C49.3,22,48.6,21.4,47.8,20.9z"/>
							<path class="st15" d="M55.6,22.5H55v-0.6h-1.1v0.8h-0.7v-4.1c-0.2,0.4-0.4,0.7-0.7,1l-0.4-0.6c0.8-1.2,1.3-2.5,1.5-4h-1.2
								v-0.7h3.4v0.7h-1.5c-0.1,0.8-0.3,1.5-0.6,2.2h1.8V22.5z M55,21.3V18h-1.1v3.3H55z M59.8,20.1v0.7h-3.7v-0.7H59.8z M57.7,15.7
								l-0.4,2.5h2.1l0.5-3.3h-3.5v-0.7h4.3l-0.5,3.9h1.1c0,2.4-0.1,3.8-0.4,4.2c-0.3,0.4-0.8,0.5-1.7,0.5c-0.3,0-0.6,0-0.9,0
								l-0.2-0.7c0.4,0,0.8,0.1,0.9,0.1c0.8,0,1.2-0.2,1.4-0.5c0.2-0.3,0.2-1.3,0.2-2.9h-4l0.5-3.2L57.7,15.7z"/>
							<path class="st15" d="M65.3,18.6c-0.1,0.2-0.1,0.4-0.2,0.5h2.1v0.6c-0.2,0.7-0.6,1.2-1.1,1.7c0.5,0.2,0.9,0.4,1.4,0.7
								l-0.4,0.6c-0.4-0.3-0.9-0.5-1.5-0.8c-0.7,0.5-1.5,0.8-2.5,1.1l-0.3-0.6c0.8-0.2,1.5-0.5,2.1-0.8c-0.4-0.2-0.9-0.4-1.4-0.6
								c0.3-0.4,0.5-0.8,0.7-1.2h-1.2v-0.6h1.5c0.1-0.2,0.2-0.4,0.2-0.6L65.3,18.6z M64.9,15.8v-1.9h0.7v1.9h1.8v0.6h-1.8v0.1
								c0.5,0.3,1.1,0.6,1.7,0.9L66.9,18c-0.5-0.4-0.9-0.7-1.3-1v1.3h-0.7v-1.9c-0.3,0.8-0.9,1.5-1.8,2l-0.3-0.6
								c0.8-0.4,1.3-0.9,1.6-1.5H63v-0.6H64.9z M64.4,15.3l-0.5,0.2c-0.2-0.5-0.4-0.9-0.7-1.3l0.6-0.2C64,14.4,64.2,14.8,64.4,15.3z
								 M66.6,19.7h-1.7c-0.2,0.3-0.3,0.7-0.5,1c0.4,0.1,0.8,0.3,1.1,0.4C65.9,20.7,66.3,20.3,66.6,19.7z M67.3,14.2
								c-0.2,0.4-0.4,0.9-0.8,1.3L66,15.3c0.3-0.4,0.6-0.8,0.8-1.3L67.3,14.2z M68.4,17.7c-0.2,0.5-0.4,0.9-0.6,1.2l-0.4-0.5
								c0.6-1.1,1-2.6,1.2-4.5l0.7,0.1c-0.1,0.5-0.1,1-0.2,1.4h2.6v0.7H71c0,1.7-0.4,3.1-0.9,4.3c0.5,0.9,1.1,1.6,1.8,2.1L71.6,23
								c-0.7-0.5-1.3-1.2-1.8-2c-0.5,0.8-1.1,1.5-1.8,2l-0.4-0.6c0.8-0.5,1.4-1.2,1.8-2.1C69,19.5,68.7,18.7,68.4,17.7z M68.7,16.6
								c0.2,1.2,0.6,2.2,1,3c0.4-1,0.6-2.2,0.6-3.5h-1.5L68.7,16.6z"/>
							<path class="st15" d="M80.4,16.6v0.7c-0.6,0.5-1.4,0.9-2.2,1.3v0.7h3.9V20h-3.9v2.1c0,0.5-0.3,0.8-0.9,0.8h-1.2L76,22.3
								c0.4,0,0.7,0,1.1,0c0.3,0,0.4-0.2,0.4-0.4V20h-4.2v-0.7h4.2v-1c0.8-0.4,1.4-0.8,1.8-1h-4.3v-0.7H80.4z M82,17.1h-0.7v-1.5h-7
								v1.5h-0.7v-2.2h3.9c-0.1-0.4-0.3-0.7-0.5-1l0.8-0.1c0.1,0.3,0.3,0.7,0.4,1.1H82V17.1z"/>
						</g>
					</g>
				</g>
				<defs>
					<filter id="Adobe_OpacityMaskFilter_5_" filterUnits="userSpaceOnUse" x="194" y="133" width="50" height="36">
						<feColorMatrix  type="matrix" values="1 0 0 0 0  0 1 0 0 0  0 0 1 0 0  0 0 0 1 0"/>
					</filter>
				</defs>
				<mask maskUnits="userSpaceOnUse" x="194" y="133" width="50" height="36" id="mask-4_5_">
					<g class="st16">
						<polygon id="path-3_5_" class="st3" points="0,198.1 280.4,198.1 280.4,1.7 0,1.7 						"/>
					</g>
				</mask>
				<g id="按钮" class="st17">
					<g transform="translate(194.000000, 133.000000)">
						<path id="Rectangle-2_1_" class="st18" d="M4,0h42c2.2,0,4,1.8,4,4v28c0,2.2-1.8,4-4,4H4c-2.2,0-4-1.8-4-4V4C0,1.8,1.8,0,4,0z
							"/>
						<g class="st0">
							<path class="st3" d="M19,14.4v0.7h-1.5c-0.1,0.8-0.3,1.6-0.6,2.3h1.8v4.5H17v0.8h-0.7v-3.9c-0.2,0.3-0.3,0.6-0.5,0.9L15.4,19
								c0.7-1.1,1.2-2.4,1.4-3.9h-1.1v-0.7H19z M18.1,21.3V18H17v3.2H18.1z M19.3,23l-0.5-0.5c0.5-0.7,0.7-1.6,0.8-2.7v-3.3
								c-0.1,0.1-0.3,0.3-0.4,0.4l-0.5-0.5c0.8-0.7,1.4-1.5,1.9-2.5l0.7,0.2c-0.1,0.2-0.2,0.4-0.3,0.6h2.4v0.5
								c-0.3,0.4-0.6,0.8-0.9,1.1h1.7v6c0,0.5-0.3,0.7-0.8,0.7h-0.7l-0.2-0.6c0.2,0,0.5,0,0.7,0c0.2,0,0.3-0.1,0.3-0.3v-1.3h-1.3
								v2.2h-0.6v-2.2h-1.3C20.1,21.6,19.8,22.3,19.3,23z M22.6,15.2h-1.9c-0.2,0.4-0.5,0.7-0.8,1h1.9C22,15.9,22.3,15.6,22.6,15.2z
								 M20.2,19.7c0,0.1,0,0.2,0,0.3h1.3v-1.3h-1.3V19.7z M20.2,16.8v1.2h1.3v-1.2H20.2z M23.5,16.8h-1.3v1.2h1.3V16.8z M23.5,18.7
								h-1.3V20h1.3V18.7z"/>
							<path class="st3" d="M28.1,16.9v4.4c0.4-0.3,0.8-0.6,1.2-1l0.2,0.7c-0.6,0.6-1.3,1.1-2,1.6l-0.3-0.6c0.2-0.1,0.2-0.3,0.2-0.4
								v-3.9h-1.5v-0.7H28.1z M28.8,15.5L28.3,16c-0.4-0.5-1-1-1.7-1.5l0.5-0.5C27.8,14.4,28.3,15,28.8,15.5z M32.5,13.9
								c0,0.8,0,1.6-0.1,2.3c0.5,2.6,1.4,4.6,2.8,6.1l-0.5,0.6c-1.1-1.4-1.9-3-2.4-5c0,0.3-0.1,0.5-0.1,0.8
								c-0.4,1.7-1.2,3.1-2.6,4.2L29,22.4c1.2-1,1.9-2.2,2.3-3.7c0.3-1.2,0.4-2.8,0.4-4.8H32.5z"/>
						</g>
					</g>
				</g>
			</g>
			<g class="st0">
				<path class="st1" d="M100.7,78.2h6.2v-2.4h-5.2v-1.1h5.2v-2.5c-1.7,0.1-3.5,0.1-5.3,0.2c-0.1-0.4-0.1-0.8-0.2-1.1
					c4.7-0.1,8.4-0.2,11.3-0.5l0.2,1.1c-1.6,0.1-3.2,0.2-4.9,0.3v2.5h5v1.1h-5v2.4h6.1v1.1H108v2.5c0,1.1-0.6,1.7-1.7,1.7
					c-0.6,0-1.4,0-2.4,0c0-0.4-0.1-0.8-0.2-1.2c1,0.1,1.8,0.1,2.3,0.1c0.6,0,0.8-0.3,0.8-0.9v-2.1h-6.2V78.2z"/>
				<path class="st1" d="M119.5,77.8c0.6,1.2,1.1,2.5,1.6,3.7c-0.4,0.2-0.7,0.3-1,0.5c-0.1-0.2-0.1-0.3-0.2-0.5
					c-1.7,0.2-3.3,0.3-4.7,0.5l-0.5-1.1c0.4-0.2,0.7-0.6,1-1.1c0.4-0.9,0.9-2,1.4-3.4h-2.3v-1h6.6v1h-3.1c-0.8,1.9-1.5,3.5-2,4.5
					c1-0.1,2.2-0.2,3.4-0.3c-0.3-0.8-0.6-1.5-1-2.3L119.5,77.8z M115.2,71.5h5.5v1h-5.5V71.5z M120.9,73.1h2c0-0.9,0-1.9,0-2.8h1.1
					c0,1,0,1.9,0,2.8h3.7c-0.1,3.4-0.2,6.2-0.3,8.3c-0.1,1.3-0.7,1.9-1.8,2c-0.6,0-1.2,0-1.8,0c-0.1-0.4-0.1-0.8-0.2-1.2
					c0.6,0.1,1.2,0.1,1.7,0.1c0.7,0,1-0.4,1.1-1.1c0.1-2.3,0.2-4.6,0.2-7H124c0,0.4,0,0.8,0,1.2c0,3.6-1.1,6.4-3.3,8.5
					c-0.3-0.3-0.5-0.6-0.8-0.9c1.9-1.7,2.9-4.2,3-7.6c0-0.4,0-0.8,0-1.1h-2V73.1z"/>
				<path class="st1" d="M129.7,77.1h1.2v-2.5h0.9v2.5h1.3V78h-1.3v1.9c0.5-0.1,1-0.1,1.5-0.2c0,0.3-0.1,0.7-0.1,0.9
					c-0.5,0.1-0.9,0.1-1.4,0.2v3H131v-2.9c-0.7,0.1-1.5,0.2-2.2,0.3l-0.2-1c0.8-0.1,1.6-0.2,2.4-0.3v-2h-2.2V77
					c0.3-1,0.7-2.2,1.1-3.7h-1.2v-0.9h1.4c0.2-0.7,0.3-1.4,0.5-2.1l1,0.2c-0.2,0.7-0.3,1.3-0.5,1.9h2.5v0.9h-2.7
					C130.4,74.8,130,76,129.7,77.1z M138.5,70.4l-0.2,0.3c1.1,1.6,2.4,2.8,4,3.4c-0.3,0.4-0.5,0.7-0.7,0.9c-0.6-0.3-1.2-0.7-1.7-1.2
					v0.7h-4.7V74c-0.5,0.4-1.1,0.9-1.7,1.2c-0.3-0.4-0.5-0.6-0.7-0.8c1.8-1.1,3.3-2.4,4.4-4H138.5z M134.5,83.8h-0.9v-8.1h3.6v6.7
					c0,0.8-0.4,1.2-1.1,1.2c-0.3,0-0.6,0-1.1,0c0-0.2-0.1-0.5-0.2-0.8c0.4,0,0.7,0,1,0c0.3,0,0.5-0.2,0.5-0.5v-1.6h-1.9V83.8z
					 M136.4,76.6h-1.9v1.3h1.9V76.6z M134.5,80h1.9v-1.3h-1.9V80z M137.6,71.4c-0.7,0.9-1.4,1.6-2.2,2.3h4.2
					C138.8,73.1,138.1,72.3,137.6,71.4z M140.5,75.5h0.9v6.7c0,1-0.4,1.5-1.3,1.5c-0.5,0-1,0-1.6,0c0-0.3-0.1-0.7-0.2-1
					c0.6,0.1,1.1,0.1,1.5,0.1c0.4,0,0.7-0.2,0.7-0.7V75.5z M138.4,76.2h0.9v5h-0.9V76.2z"/>
				<path class="st1" d="M146.4,71.1l0.9-0.6c1,0.6,2.1,2.2,3.4,4.8c1.7,3.7,3.6,6,5.6,6.8l-1,1.2c-2-1.2-3.8-3.7-5.5-7.5
					c-0.1-0.3-0.3-0.6-0.4-0.9c-1.1,3.6-3,6.4-5.9,8.4c-0.2-0.4-0.5-0.7-0.8-1c3-1.9,4.9-4.8,6-8.8
					C147.8,72.3,147.1,71.5,146.4,71.1z"/>
				<path class="st1" d="M157.2,74.6c1.5-1.2,2.7-2.7,3.8-4.3h1.2c-0.3,0.5-0.6,0.9-0.9,1.3h6.7v1c-1.1,1-2.2,1.9-3.4,2.6
					c1.4,0.5,3.2,0.9,5.5,1.1c-0.3,0.4-0.5,0.8-0.6,1.2c-2.6-0.4-4.6-1-6-1.7c-1.6,0.8-3.8,1.4-6.5,2c-0.1-0.3-0.3-0.7-0.5-1
					c2.5-0.5,4.5-1,5.9-1.6c-0.8-0.5-1.6-1.2-2.3-2c-0.7,0.8-1.3,1.5-2.1,2.1C157.7,75,157.4,74.8,157.2,74.6z M160.5,79.6l0.8,0.8
					c-1.1,1-2.3,1.9-3.7,2.8c-0.2-0.3-0.4-0.6-0.7-0.8C158.2,81.5,159.3,80.6,160.5,79.6z M157.9,78.1h5.1v-1.4h1.1v1.4h4.7v1H164
					v2.9c0,1.1-0.6,1.6-1.7,1.6c-0.5,0-1.1,0-1.7,0c-0.1-0.4-0.1-0.8-0.2-1.2c0.6,0.1,1.2,0.1,1.6,0.1c0.6,0,0.9-0.3,0.9-1V79h-5.1
					V78.1z M166.7,72.5h-6c0.8,0.9,1.8,1.6,2.9,2.2C164.6,74.1,165.7,73.4,166.7,72.5z M165.3,80.5l0.6-0.8c1.5,0.8,2.8,1.6,4,2.4
					l-0.7,1C168.2,82.2,166.9,81.4,165.3,80.5z"/>
				<path class="st1" d="M170.5,77.9c1.1-1.5,1.9-3.3,2.4-5.3h-2v-1h5.1v1h-2c-0.3,1.1-0.7,2.2-1.1,3.2h2.6v7.4h-1v-0.9h-1.7v1.1h-1
					v-5.7c-0.2,0.4-0.5,0.8-0.8,1.1C171,78.5,170.8,78.2,170.5,77.9z M174.6,76.7h-1.7v4.6h1.7V76.7z M176.1,79.4h5.8v1h-5.8V79.4z
					 M178.3,72.6l-0.4,4h3.2l0.5-4.5h-5v-1h6.2l-0.6,5.5h1.4c-0.1,1.9-0.1,3.5-0.2,4.8c-0.1,1.4-0.7,2-1.9,2c-0.6,0-1.3,0-2.1,0
					c-0.1-0.3-0.1-0.7-0.2-1.1c0.7,0.1,1.4,0.1,2,0.1c0.7,0,1.1-0.4,1.1-1.2c0.1-1,0.1-2.2,0.2-3.7h-5.7l0.4-5H178.3z"/>
			</g>
		</g>
	</g>
</g>
</svg>
