<?xml version="1.0" encoding="UTF-8"?>
<svg width="36px" height="34px" viewBox="0 0 36 34" version="1.1" xmlns="http://www.w3.org/2000/svg" xmlns:xlink="http://www.w3.org/1999/xlink">
    <!-- Generator: Sketch 49 (51002) - http://www.bohemiancoding.com/sketch -->
    <title>Slice 1</title>
    <desc>Created with Sketch.</desc>
    <defs>
        <polygon id="path-1" points="0 0.249196552 26.8973414 0.249196552 26.8973414 15.8182655 0 15.8182655"></polygon>
    </defs>
    <g id="Page-1" stroke="none" stroke-width="1" fill="none" fill-rule="evenodd">
        <g id="icon">
            <polygon id="Fill-1" fill="#10A957" points="23.4154483 26.9561966 34.7614828 26.9561966 34.7614828 25.1975759 23.4154483 25.1975759"></polygon>
            <polygon id="Fill-2" fill="#10A957" points="30.6184655 23.5254793 34.0483621 26.9565483 34.7617759 25.1955828 31.8612241 22.2821345"></polygon>
            <polygon id="Fill-3" fill="#10A957" points="23.4154483 31.0754724 34.7614828 31.0754724 34.7614828 29.3168517 23.4154483 29.3168517"></polygon>
            <polygon id="Fill-4" fill="#10A957" points="23.415331 31.0762931 26.3152966 33.9909138 27.5592276 32.7469828 24.1287448 29.3170862"></polygon>
            <g id="Group-10" transform="translate(0.000000, 0.576886)">
                <path d="M15.4066897,16.0768414 C11.455069,16.0768414 8.25203448,12.8732207 8.25203448,8.92218621 C8.25203448,4.97115172 11.455069,1.76811724 15.4066897,1.76811724 C19.3577241,1.76811724 22.5607586,4.97115172 22.5607586,8.92218621 C22.5607586,12.8732207 19.3577241,16.0768414 15.4066897,16.0768414 M15.4066897,0.00949655172 C10.4843103,0.00949655172 6.49341379,3.9998069 6.49341379,8.92218621 C6.49341379,13.8445655 10.4843103,17.8354621 15.4066897,17.8354621 C20.3284828,17.8354621 24.3193793,13.8445655 24.3193793,8.92218621 C24.3193793,3.9998069 20.3284828,0.00949655172 15.4066897,0.00949655172" id="Fill-5" fill="#10A957"></path>
                <g id="Group-9" transform="translate(0.000000, 15.827586)">
                    <mask id="mask-2" fill="white">
                        <use xlink:href="#path-1"></use>
                    </mask>
                    <g id="Clip-8"></g>
                    <path d="M22.2282034,3.89012759 C23.5043759,4.62933448 24.6486517,5.56961034 25.6182379,6.66757586 L26.8973414,5.38964483 C25.9541345,4.33798966 24.8749276,3.41178276 23.6778931,2.65088621 C23.6808241,2.64971379 23.683169,2.64854138 23.6866862,2.64736897 C23.6526862,2.62743793 23.6145828,2.60867931 23.5805828,2.58816207 C21.2545138,1.13436897 18.5134103,0.284368966 15.574169,0.256231034 C15.5190655,0.255644828 15.4622034,0.249196552 15.4065138,0.249196552 C12.3775828,0.249196552 9.55616897,1.12616207 7.17382414,2.63564483 C7.16561724,2.64092069 7.15506552,2.64561034 7.14627241,2.65088621 C7.14685862,2.65147241 7.14803103,2.65147241 7.14861724,2.65205862 C2.8523069,5.38554138 -0.000175862069,10.1859897 -0.000175862069,15.6553 C-0.000175862069,15.7098172 0.00334137931,15.7637483 0.00392758621,15.8182655 L1.81647931,15.8182655 C1.8158931,15.7637483 1.81237586,15.7098172 1.81237586,15.6553 C1.81237586,10.6274034 4.5441,6.24081724 8.60182414,3.88836897 C8.60416897,3.89247241 8.6071,3.89598966 8.60885862,3.9000931 C10.6136862,2.73471379 12.9409276,2.06467931 15.4264448,2.06467931 C15.5384103,2.06467931 15.648031,2.07054138 15.7594103,2.07288621 C15.9059621,2.07698966 16.0531,2.07933448 16.1990655,2.08812759 C16.3180655,2.09457586 16.4353069,2.10512759 16.5537207,2.1150931 C16.7272379,2.12916207 16.900169,2.14616207 17.0719276,2.16785172 C17.1616172,2.17781724 17.2513069,2.18895517 17.3398241,2.20126552 C19.099031,2.45333448 20.7497897,3.03954138 22.2241,3.89657586 C22.2252724,3.89423103 22.227031,3.89247241 22.2282034,3.89012759" id="Fill-7" fill="#10A957" mask="url(#mask-2)"></path>
                </g>
            </g>
        </g>
    </g>
</svg>