<?xml version="1.0" encoding="UTF-8"?>
<svg width="102px" height="102px" viewBox="0 0 102 102" version="1.1" xmlns="http://www.w3.org/2000/svg" xmlns:xlink="http://www.w3.org/1999/xlink">
    <!-- Generator: Sketch 49 (51002) - http://www.bohemiancoding.com/sketch -->
    <title>Slice 1</title>
    <desc>Created with Sketch.</desc>
    <defs></defs>
    <g id="Page-1" stroke="none" stroke-width="1" fill="none" fill-rule="evenodd">
        <g id="头像" transform="translate(1.000000, 1.000000)">
            <circle id="Oval" stroke="#DBDBDB" fill="#10A957" cx="50" cy="50" r="50"></circle>
            <g id="logo" transform="translate(20.000000, 20.000000)" fill="#FFFFFF" fill-rule="nonzero">
                <g id="Shape">
                    <path d="M29.786256,0 C13.2846702,0 0,13.3442427 0,29.786256 C0,46.2878419 13.2846702,59.5725121 29.786256,59.5725121 C46.2282694,59.5725121 59.5725121,46.2878419 59.5725121,29.786256 C59.5725121,13.3442427 46.2878419,0 29.786256,0 Z M29.786256,56.0577339 C15.4292806,56.0577339 3.51477821,44.3815215 3.51477821,29.786256 C3.51477821,15.4292806 15.3697081,3.51477821 29.786256,3.51477821 C44.3815215,3.51477821 56.0577339,15.4292806 56.0577339,29.786256 C56.0577339,44.3815215 44.3815215,56.0577339 29.786256,56.0577339 Z"></path>
                    <path d="M30.9262638,50.9248893 C42.9897552,50.9248893 52.8435973,41.145802 52.8435973,29.1738283 C52.9033175,25.6770638 52.067234,22.1802992 50.3353466,19.2169394 L30.747103,50.9248893 L30.9262638,50.9248893 Z"></path>
                    <polygon points="32.6687969 35.9723831 29.58244 30.747103 29.58244 30.747103 23.0603273 30.747103 29.4077406 41.3164197"></polygon>
                    <path d="M6.72592878,29.1738283 C6.72592878,41.2050692 16.5819297,50.806355 28.8254091,50.9248893 L9.29705945,19.2169394 C7.52175494,22.3581008 6.72592878,25.6770638 6.72592878,29.1738283 Z"></path>
                    <path d="M29.2766024,6.72592878 C24.3074796,6.72592878 19.7475787,8.63654667 16.0645818,11.8209098 C13.8430917,13.7315277 11.9723631,16.0879565 10.5693167,18.8265088 L16.7076448,18.8265088 L19.9814198,24.6220497 L26.5874301,24.6220497 L23.5474962,18.8265088 L30.9134899,18.8265088 L36.174914,28.8254091 L41.6701792,18.5717597 L48.0423484,18.5717597 C44.1839708,11.629848 37.1687386,6.72592878 29.2766024,6.72592878 Z"></path>
                </g>
            </g>
        </g>
    </g>
</svg>