<?xml version="1.0" encoding="UTF-8"?>
<svg width="31px" height="37px" viewBox="0 0 31 37" version="1.1" xmlns="http://www.w3.org/2000/svg" xmlns:xlink="http://www.w3.org/1999/xlink">
    <!-- Generator: Sketch 54.1 (76490) - https://sketchapp.com -->
    <title>形状</title>
    <desc>Created with Sketch.</desc>
    <g id="Page-1" stroke="none" stroke-width="1" fill="none" fill-rule="evenodd">
        <g id="巡视工单" transform="translate(-362.000000, -1253.000000)" fill="#10A957" fill-rule="nonzero" stroke="#9E9E9E" stroke-width="0.5">
            <g id="底部导航" transform="translate(0.000000, 1230.000000)">
                <g id="工单" transform="translate(358.500000, 24.000000)">
                    <path d="M25.9230769,14 L12.0769231,14 L12.076923,14 C11.4396709,14 10.9230769,14.522334 10.9230769,15.1666667 C10.9230769,15.8109993 11.4396709,16.3333333 12.076923,16.3333333 L25.9230769,16.3333333 L25.9230768,16.3333333 C26.5603289,16.3333334 27.076923,15.8109993 27.076923,15.1666667 C27.076923,14.522334 26.5603289,14 25.9230769,14 L25.9230769,14 Z M25.9230769,21 L12.0769231,21 L12.0769231,21 C11.439671,21 10.9230769,21.522334 10.9230769,22.1666667 C10.923077,22.8109993 11.439671,23.3333333 12.0769231,23.3333333 L25.9230769,23.3333333 L25.9230769,23.3333333 C26.560329,23.3333334 27.076923,22.8109993 27.076923,22.1666667 C27.0769231,21.522334 26.560329,21 25.9230769,21 L25.9230769,21 Z M30.5384615,1.0793835e-15 L7.46153846,1.0793835e-15 C5.55384615,1.0793835e-15 4,1.57111111 4,3.5 L4,31.5 C4,33.4288889 5.55384615,35 7.46153846,35 L30.5384615,35 C32.4461538,35 34,33.4288889 34,31.5 L34,3.5 C34,1.57111111 32.4461538,0 30.5384615,1.0793835e-15 Z M12.0769231,2.33333333 L25.9230769,2.33333333 L25.9230769,5.83333333 L12.0769231,5.83333333 L12.0769231,2.33333333 Z M31.6923077,31.5 L31.6923077,31.5 C31.6923077,32.1443327 31.1757136,32.6666667 30.5384615,32.6666667 C30.5384615,32.6666667 30.5384615,32.6666667 30.5384615,32.6666667 L7.46153846,32.6666667 L7.46153841,32.6666667 C6.82428631,32.6666666 6.30769226,32.1443327 6.30769226,31.5 C6.30769226,31.5 6.30769226,31.5 6.30769226,31.5 L6.30769226,3.5 C6.30769226,2.85833333 6.82692303,2.33333333 7.46153841,2.33333333 L9.76923072,2.33333333 L9.76923072,5.83333333 C9.76923072,7.12055556 10.8038461,8.16666667 12.076923,8.16666667 L25.9230769,8.16666667 C27.1961538,8.16666667 28.2307692,7.12055556 28.2307692,5.83333333 L28.2307692,2.33333333 L30.5384615,2.33333333 L30.5384614,2.33333333 C31.1757135,2.33333331 31.6923076,2.85566732 31.6923076,3.5 C31.6923076,3.5 31.6923076,3.5 31.6923076,3.5 L31.6923076,31.5 L31.6923077,31.5 Z" id="形状"></path>
                </g>
            </g>
        </g>
    </g>
</svg>
