<?xml version="1.0" encoding="utf-8"?>
<!-- Generator: Adobe Illustrator 22.0.1, SVG Export Plug-In . SVG Version: 6.00 Build 0)  -->
<svg version="1.1" id="图层_1" xmlns="http://www.w3.org/2000/svg" xmlns:xlink="http://www.w3.org/1999/xlink" x="0px" y="0px"
	 viewBox="0 0 24 24" style="enable-background:new 0 0 24 24;" xml:space="preserve">
<style type="text/css">
	.st0{fill:#101010;}
</style>
<g>
	<path class="st0" d="M20.8,0H3.2H2v1.2v21.6V24h1.2h17.6H22v-1.2V1.2V0H20.8z M20.8,22.8H3.2V1.2h17.6V22.8z"/>
	<rect x="5.4" y="4.5" class="st0" width="13.4" height="1.2"/>
	<rect x="5.4" y="18.5" class="st0" width="13.4" height="1.2"/>
	<path class="st0" d="M7.8,9.7L6,14.6h1.3l0.2-0.7H9l0.2,0.7h1.3L8.7,9.7H7.8z M7.9,12.9l0.4-1.3l0.4,1.3H7.9z"/>
	<polygon class="st0" points="12.9,14.6 12.9,10.7 14.1,10.7 14.1,9.7 10.5,9.7 10.5,10.7 11.7,10.7 11.7,14.6 	"/>
	<path class="st0" d="M16.4,13.6c-0.4,0-0.8-0.1-1.1-0.3L14.5,14c0.5,0.5,1.1,0.7,1.9,0.7c1,0,1.9-0.5,1.9-1.6
		c0-0.5-0.1-0.8-0.4-1.1c-0.2-0.2-0.5-0.3-1-0.4l-0.6-0.1c-0.2,0-0.3-0.1-0.3-0.1c-0.1-0.1-0.1-0.2-0.1-0.2c0-0.2,0.2-0.5,0.6-0.5
		c0.2,0,0.6,0,0.9,0.3l0.8-0.8c-0.4-0.4-1-0.6-1.7-0.6c-1.1,0-1.8,0.7-1.8,1.6c0,0.4,0.1,0.8,0.3,1c0.2,0.2,0.6,0.4,1,0.4l0.6,0.1
		c0.2,0,0.3,0.1,0.3,0.1c0.1,0.1,0.1,0.2,0.1,0.3C17.1,13.4,16.9,13.6,16.4,13.6z"/>
</g>
</svg>
