<?xml version="1.0" encoding="utf-8"?>
<!-- Generator: Adobe Illustrator 22.0.1, SVG Export Plug-In . SVG Version: 6.00 Build 0)  -->
<svg version="1.1" id="图层_1" xmlns="http://www.w3.org/2000/svg" xmlns:xlink="http://www.w3.org/1999/xlink" x="0px" y="0px"
	 viewBox="0 0 24 24" style="enable-background:new 0 0 24 24;" xml:space="preserve">
<style type="text/css">
	.st0{fill:#101010;}
</style>
<g>
	<rect x="4" y="1.6" class="st0" width="4" height="1.2"/>
	<rect x="16" y="1.6" class="st0" width="4" height="1.2"/>
	<rect x="16" y="11" class="st0" width="4" height="1.2"/>
	<polygon class="st0" points="4,12.2 5.4,12.2 5.4,13.6 6.6,13.6 6.6,12.2 8,12.2 8,11 6.6,11 6.6,9.6 5.4,9.6 5.4,11 4,11 	"/>
	<path class="st0" d="M24,5.6V4.4h0h-1.2H1.2H0h0v1.2h0v15.6h0v1.2h0h1.2h21.6H24h0v-1.2h0L24,5.6L24,5.6z M22.8,21.2H1.2V5.6h21.6
		V21.2z"/>
</g>
</svg>
