<?xml version="1.0" encoding="utf-8"?>
<!-- Generator: Adobe Illustrator 22.0.1, SVG Export Plug-In . SVG Version: 6.00 Build 0)  -->
<svg version="1.1" id="图层_1" xmlns="http://www.w3.org/2000/svg" xmlns:xlink="http://www.w3.org/1999/xlink" x="0px" y="0px"
	 viewBox="0 0 24 24" style="enable-background:new 0 0 24 24;" xml:space="preserve">
<style type="text/css">
	.st0{fill:#101010;}
</style>
<g>
	<path class="st0" d="M19.6,0H4.4H3.2h0v1.2h0V24h0h1.2h15.2h1.2v-1.2V1.2V0H19.6z M19.6,22.8H4.4V1.2h15.2V22.8z"/>
	<path class="st0" d="M9.2,15.4c0,1.5,1.3,2.8,2.8,2.8c1.5,0,2.8-1.3,2.8-2.8c0-1.3-0.9-2.5-2.2-2.7v-2.3h2V9.2h-2V7h2V5.8h-2h0
		h-1.2v6.9C10.2,13,9.2,14.1,9.2,15.4z M12,13.8c0.9,0,1.6,0.7,1.6,1.6c0,0.9-0.7,1.6-1.6,1.6c-0.9,0-1.6-0.7-1.6-1.6
		C10.4,14.5,11.1,13.8,12,13.8z"/>
</g>
</svg>
