<?xml version="1.0" encoding="utf-8"?>
<!-- Generator: Adobe Illustrator 23.0.1, SVG Export Plug-In . SVG Version: 6.00 Build 0)  -->
<svg version="1.0" id="图层_1" xmlns="http://www.w3.org/2000/svg" xmlns:xlink="http://www.w3.org/1999/xlink" x="0px" y="0px"
	 viewBox="0 0 24 24" style="enable-background:new 0 0 24 24;" xml:space="preserve">
<g>
	<rect x="1.79" y="21.13" style="fill:#10A957;" width="20.42" height="1.2"/>
	<path style="fill:#10A957;" d="M22.8,1.67L22.8,1.67L0,1.67v0v1.2v15.07v1.2h1.2H24v0v-1.2V2.87v-1.2v0H22.8z M22.8,17.93H1.2V2.87
		h21.6V17.93z"/>
	<polygon style="fill:#10A957;" points="3.01,12.45 3.86,13.3 7.97,9.18 11.53,12.73 12.38,11.88 12.37,11.88 14.19,10.07 
		17.36,13.24 18.21,12.39 18.21,12.39 20.99,9.61 20.14,8.76 17.36,11.54 15.04,9.22 15.04,9.22 14.19,8.37 14.19,8.37 14.19,8.37 
		13.34,9.22 13.34,9.22 11.53,11.03 7.98,7.48 7.97,7.48 7.97,7.48 	"/>
</g>
</svg>
