<?xml version="1.0" encoding="utf-8"?>
<!-- Generator: Adobe Illustrator 23.0.1, SVG Export Plug-In . SVG Version: 6.00 Build 0)  -->
<svg version="1.0" id="图层_1" xmlns="http://www.w3.org/2000/svg" xmlns:xlink="http://www.w3.org/1999/xlink" x="0px" y="0px"
	 viewBox="0 0 24 24" style="enable-background:new 0 0 24 24;" xml:space="preserve">
<g>
	<path style="fill:#10A957;" d="M0,0v11.1v0h1.2H9.9h1.2v0V0H0z M9.9,9.9H1.2V1.2H9.9V9.9z"/>
	<path style="fill:#10A957;" d="M12.9,0v11.1v0H24v0V0H12.9z M22.8,9.9H14.1V1.2h8.71V9.9z"/>
	<path style="fill:#10A957;" d="M0,12.9V24v0h11.1v0V12.9H0z M9.9,22.8H1.2v-8.7H9.9V22.8z"/>
	<path style="fill:#10A957;" d="M12.9,12.9V24v0H24v0V12.9H12.9z M22.8,22.8H14.1v-8.7h8.71V22.8z"/>
</g>
</svg>
