<?xml version="1.0" encoding="utf-8"?>
<!-- Generator: Adobe Illustrator 22.0.1, SVG Export Plug-In . SVG Version: 6.00 Build 0)  -->
<svg version="1.1" id="图层_1" xmlns="http://www.w3.org/2000/svg" xmlns:xlink="http://www.w3.org/1999/xlink" x="0px" y="0px"
	 viewBox="0 0 24 24" style="enable-background:new 0 0 24 24;" xml:space="preserve">
<style type="text/css">
	.st0{fill:#101010;}
</style>
<g>
	<path class="st0" d="M18.8,1.2V0h0h-1.2H6.4v0H5.2v0l0,0v1.2h0l0,2.4h0v1.2h0l0,2.4h0v1.2h0l0,12.8h0v1.2h0v0h1.2v0h11.2v0h1.2v0
		l0,0v-1.2h0l0-12.8h0V7.2h0l0-2.4h0V3.6h0L18.8,1.2L18.8,1.2z M17.6,21.2H6.4l0-12.8h11.2L17.6,21.2z M17.6,7.2H6.4l0-2.4h11.2
		L17.6,7.2z M17.6,3.6H6.4l0-2.4h11.2L17.6,3.6z"/>
	<rect x="14.8" y="10" class="st0" width="1.2" height="2.4"/>
	<rect x="15.2" y="22.8" class="st0" width="2.4" height="1.2"/>
	<rect x="6.4" y="22.8" class="st0" width="2.4" height="1.2"/>
</g>
</svg>
