<?xml version="1.0" encoding="utf-8"?>
<!-- Generator: Adobe Illustrator 22.0.1, SVG Export Plug-In . SVG Version: 6.00 Build 0)  -->
<svg version="1.1" id="图层_1" xmlns="http://www.w3.org/2000/svg" xmlns:xlink="http://www.w3.org/1999/xlink" x="0px" y="0px"
	 viewBox="0 0 24 24" style="enable-background:new 0 0 24 24;" xml:space="preserve">
<style type="text/css">
	.st0{fill:#101010;}
</style>
<g>
	<path class="st0" d="M22.8,0H1.2H0v1.2V6v1.2h1.2h1.6v1.2H1.2H0v1.2v4.8v1.2v0h1.2v0h1.6v1.2H1.2H0V18v4.8V24h1.2h21.6H24v-1.2V18
		v-1.2v0h-1.2v0h-1.6v-1.2h1.6H24v-1.2V9.6V8.4h-1.2h-1.6V7.2h1.6H24V6V1.2V0H22.8z M22.8,22.8H1.2V18h21.6V22.8z M20,16.8H4v-1.2
		h16V16.8z M22.8,14.4H1.2V9.6h21.6V14.4z M20,8.4H4V7.2h16V8.4z M22.8,6H1.2V1.2h21.6V6z"/>
	<rect x="18" y="3" class="st0" width="3.2" height="1.2"/>
	<rect x="2.8" y="2.4" class="st0" width="1.2" height="2.4"/>
	<rect x="5.6" y="2.4" class="st0" width="1.2" height="2.4"/>
	<rect x="8.4" y="2.4" class="st0" width="1.2" height="2.4"/>
	<rect x="18" y="11.6" class="st0" width="3.2" height="1.2"/>
	<rect x="2.8" y="11" class="st0" width="1.2" height="2.4"/>
	<rect x="5.6" y="11" class="st0" width="1.2" height="2.4"/>
	<rect x="8.4" y="11" class="st0" width="1.2" height="2.4"/>
	<rect x="18" y="19.8" class="st0" width="3.2" height="1.2"/>
	<rect x="2.8" y="19.2" class="st0" width="1.2" height="2.4"/>
	<rect x="5.6" y="19.2" class="st0" width="1.2" height="2.4"/>
	<rect x="8.4" y="19.2" class="st0" width="1.2" height="2.4"/>
</g>
</svg>
