<?xml version="1.0" encoding="utf-8"?>
<!-- Generator: Adobe Illustrator 22.0.1, SVG Export Plug-In . SVG Version: 6.00 Build 0)  -->
<svg version="1.1" id="图层_1" xmlns="http://www.w3.org/2000/svg" xmlns:xlink="http://www.w3.org/1999/xlink" x="0px" y="0px"
	 viewBox="0 0 24 24" style="enable-background:new 0 0 24 24;" xml:space="preserve">
<style type="text/css">
	.st0{fill:#101010;}
</style>
<g>
	<path class="st0" d="M4.4,7.2L4.4,7.2V8v8v0.8v0h0.8v0h4H10V16V8V7.2H9.2H4.4z M9.2,16h-4V8h4V16z"/>
	<path class="st0" d="M22.8,2H1.2H0h0v20h0h1.2h21.6H24v-1.2V3.2V2H22.8z M22.8,20.8H1.2V3.2h21.6V20.8z"/>
	<rect x="17.6" y="7.2" class="st0" width="1.2" height="1.2"/>
	<rect x="14.8" y="7.2" class="st0" width="1.2" height="1.2"/>
	<rect x="12" y="7.2" class="st0" width="1.2" height="1.2"/>
	<rect x="17.6" y="10" class="st0" width="1.2" height="1.2"/>
	<rect x="14.8" y="10" class="st0" width="1.2" height="1.2"/>
	<rect x="12" y="10" class="st0" width="1.2" height="1.2"/>
	<rect x="17.6" y="12.8" class="st0" width="1.2" height="1.2"/>
	<rect x="14.8" y="12.8" class="st0" width="1.2" height="1.2"/>
	<rect x="12" y="12.8" class="st0" width="1.2" height="1.2"/>
	<rect x="17.6" y="15.6" class="st0" width="1.2" height="1.2"/>
	<rect x="14.8" y="15.6" class="st0" width="1.2" height="1.2"/>
	<rect x="12" y="15.6" class="st0" width="1.2" height="1.2"/>
	<path class="st0" d="M2.8,19.8h18.4H22V19V4.6V3.8h-0.8H2.8H2v0.8V19v0.8H2.8z M2.8,4.6h18.4V19H2.8V4.6z"/>
</g>
</svg>
