<?xml version="1.0" encoding="utf-8"?>
<!-- Generator: Adobe Illustrator 22.0.1, SVG Export Plug-In . SVG Version: 6.00 Build 0)  -->
<svg version="1.1" id="图层_1" xmlns="http://www.w3.org/2000/svg" xmlns:xlink="http://www.w3.org/1999/xlink" x="0px" y="0px"
	 viewBox="0 0 24 24" style="enable-background:new 0 0 24 24;" xml:space="preserve">
<style type="text/css">
	.st0{fill:#101010;}
</style>
<g>
	<rect y="3.8" class="st0" width="11" height="1.2"/>
	<rect x="20" y="3.8" class="st0" width="4" height="1.2"/>
	<path class="st0" d="M18,6.6h1.2h0V5.4h0v-2h0V2.2h0H18h-5h-1.2v1.2v2v1.2H13H18z M13,3.4h5v2h-5V3.4z"/>
	<rect y="19" class="st0" width="11" height="1.2"/>
	<rect x="20" y="19" class="st0" width="4" height="1.2"/>
	<path class="st0" d="M18,17.4h-5h-1.2v1.2v2v1.2H13h5h1.2h0v-1.2h0v-2h0v-1.2h0H18z M18,20.6h-5v-2h5V20.6z"/>
	<path class="st0" d="M5.6,13v1.2h0h1.2h5.4h1.2h0V9.8h0h-1.2H6.8H5.6h0V11h0L5.6,13L5.6,13z M6.8,11h5.4v2H6.8V11z"/>
	<rect x="14.2" y="11.4" class="st0" width="9.8" height="1.2"/>
	<rect y="11.4" class="st0" width="4.8" height="1.2"/>
</g>
</svg>
