<?xml version="1.0" encoding="utf-8"?>
<!-- Generator: Adobe Illustrator 22.0.1, SVG Export Plug-In . SVG Version: 6.00 Build 0)  -->
<svg version="1.1" id="图层_1" xmlns="http://www.w3.org/2000/svg" xmlns:xlink="http://www.w3.org/1999/xlink" x="0px" y="0px"
	 viewBox="0 0 24 24" style="enable-background:new 0 0 24 24;" xml:space="preserve">
<style type="text/css">
	.st0{fill:#101010;}
</style>
<g>
	<path class="st0" d="M21.7,15.2c-0.1,0-0.2-0.1-0.3-0.1l0-0.9l-1,0l0,0.8c-0.4,0.1-0.8,0.3-1.2,0.6l-2.5-1.4
		c0.3-0.7,0.5-1.4,0.5-2.2c0-0.7-0.1-1.4-0.4-2l2.5-1.4C19.6,8.8,20,9,20.4,9l0,0.7l1,0l0-0.8c0.1,0,0.2-0.1,0.3-0.1
		c1-0.5,1.3-1.8,0.8-2.7c-0.5-1-1.8-1.3-2.7-0.8c-0.1,0-0.1,0.1-0.2,0.1L18.7,5l-0.5,0.9l0.7,0.4c-0.2,0.4-0.2,0.9-0.1,1.3L16.3,9
		c-0.8-1.2-2.2-2.1-3.8-2.3V3.9c0.5-0.1,0.9-0.4,1.1-0.8l0.7,0.4l0.5-0.9L14,2.2c0-0.1,0-0.1,0-0.2c0-1.1-0.9-2-2-2s-2,0.9-2,2
		c0,0.1,0,0.2,0,0.2L9.2,2.7l0.5,0.9l0.7-0.4c0.3,0.4,0.7,0.6,1.1,0.7v2.8c-1.6,0.2-3,1-3.8,2.3L5.2,7.6c0.1-0.4,0.1-0.9-0.1-1.3
		l0.7-0.4L5.3,5L4.5,5.5C4.4,5.4,4.4,5.4,4.3,5.3c-1-0.5-2.2-0.2-2.7,0.8S1.3,8.3,2.3,8.8c0.1,0,0.2,0.1,0.3,0.1l0,0.8l1,0l0-0.7
		C4,9,4.4,8.8,4.7,8.5l2.5,1.4c-0.3,0.6-0.4,1.3-0.4,2c0,0.8,0.2,1.5,0.5,2.2l-2.6,1.4C4.4,15.2,4,15,3.6,15l0-0.8l-1,0l0,0.9
		c-0.1,0-0.2,0.1-0.3,0.1c-1,0.5-1.3,1.8-0.8,2.7c0.5,1,1.8,1.3,2.7,0.8c0.1-0.1,0.2-0.2,0.4-0.3l0.8,0.5L6,18l-0.8-0.5
		c0.1-0.4,0.1-0.8,0-1.2L7.8,15c0.9,1.2,2.2,2,3.7,2.1v3c-0.4,0.1-0.7,0.3-1,0.6l-0.7-0.4l-0.5,0.9l0.8,0.5c0,0.1,0,0.3,0,0.4
		c0,1.1,0.9,2,2,2s2-0.9,2-2c0-0.1,0-0.3,0-0.4l0.8-0.5l-0.5-0.9l-0.8,0.5c-0.3-0.3-0.6-0.5-1-0.6v-3c1.5-0.1,2.9-1,3.7-2.1l2.6,1.4
		c-0.1,0.4-0.1,0.8,0,1.2L18.1,18l0.5,0.9l0.8-0.5c0.1,0.1,0.2,0.2,0.4,0.3c1,0.5,2.2,0.2,2.7-0.8C23,16.9,22.7,15.7,21.7,15.2z
		 M20.2,6.2c0.5-0.3,1.1-0.1,1.4,0.4c0.3,0.5,0.1,1.1-0.4,1.4c-0.5,0.3-1.1,0.1-1.4-0.4l0,0C19.6,7.1,19.7,6.5,20.2,6.2z M2.4,6.6
		c0.3-0.5,0.9-0.6,1.4-0.4s0.6,0.9,0.4,1.4l0,0C3.9,8.1,3.3,8.2,2.8,8C2.3,7.7,2.2,7.1,2.4,6.6z M3.8,17.8c-0.5,0.3-1.1,0.1-1.4-0.4
		c-0.3-0.5-0.1-1.1,0.4-1.4c0.5-0.3,1.1-0.1,1.4,0.4C4.4,16.9,4.3,17.5,3.8,17.8z M11,2c0-0.6,0.4-1,1-1s1,0.4,1,1s-0.4,1-1,1
		S11,2.6,11,2z M13,22c0,0.6-0.4,1-1,1s-1-0.4-1-1c0-0.6,0.4-1,1-1S13,21.4,13,22z M12,16.1c-2.3,0-4.2-1.9-4.2-4.2
		c0-2.3,1.9-4.2,4.2-4.2c2.3,0,4.2,1.9,4.2,4.2C16.2,14.2,14.3,16.1,12,16.1z M21.6,17.4c-0.3,0.5-0.9,0.6-1.4,0.4
		c-0.5-0.3-0.6-0.9-0.4-1.4c0.3-0.5,0.9-0.6,1.4-0.4C21.7,16.3,21.8,16.9,21.6,17.4z"/>
	<rect x="6.3" y="4.2" transform="matrix(0.8605 -0.5095 0.5095 0.8605 -1.4732 4.11)" class="st0" width="1" height="1"/>
	<rect x="7.8" y="3.3" transform="matrix(0.8605 -0.5095 0.5095 0.8605 -0.7899 4.7711)" class="st0" width="1" height="1"/>
	<rect x="16.8" y="4.2" transform="matrix(0.5095 -0.8605 0.8605 0.5095 4.4113 17.2281)" class="st0" width="1" height="1"/>
	<rect x="15.3" y="3.3" transform="matrix(0.5095 -0.8605 0.8605 0.5095 4.4407 15.4456)" class="st0" width="1" height="1"/>
	<rect x="6.3" y="18.6" transform="matrix(0.5094 -0.8605 0.8605 0.5094 -13.1 15.2504)" class="st0" width="1" height="1"/>
	<rect x="7.9" y="19.5" transform="matrix(0.5095 -0.8605 0.8605 0.5095 -13.1292 17.0325)" class="st0" width="1" height="1"/>
	<rect x="16.7" y="18.6" transform="matrix(0.8605 -0.5095 0.5095 0.8605 -7.3246 11.4324)" class="st0" width="1" height="1"/>
	<rect x="15.2" y="19.5" transform="matrix(0.8605 -0.5095 0.5095 0.8605 -8.0077 10.7709)" class="st0" width="1" height="1"/>
	<rect x="20.4" y="12.4" transform="matrix(1 -7.958926e-03 7.958926e-03 1 -0.1016 0.1668)" class="st0" width="1" height="1"/>
	
		<rect x="20.4" y="10.6" transform="matrix(1 -7.959121e-03 7.959121e-03 1 -8.732187e-02 0.1666)" class="st0" width="1" height="1"/>
	
		<rect x="2.6" y="12.3" transform="matrix(1 -7.958926e-03 7.958926e-03 1 -0.1019 2.514594e-02)" class="st0" width="1" height="1"/>
	
		<rect x="2.6" y="10.5" transform="matrix(1 -7.958926e-03 7.958926e-03 1 -8.756767e-02 2.497487e-02)" class="st0" width="1" height="1"/>
</g>
</svg>
