<?xml version="1.0" encoding="utf-8"?>
<!-- Generator: Adobe Illustrator 22.0.1, SVG Export Plug-In . SVG Version: 6.00 Build 0)  -->
<svg version="1.1" id="图层_1" xmlns="http://www.w3.org/2000/svg" xmlns:xlink="http://www.w3.org/1999/xlink" x="0px" y="0px"
	 viewBox="0 0 24 24" style="enable-background:new 0 0 24 24;" xml:space="preserve">
<style type="text/css">
	.st0{fill:#101010;}
</style>
<g>
	<path class="st0" d="M18.8,0L18.8,0L5.2,0v0H4v0h0v1.2h0v20h0v1.2h0h1.2h13.6H20h0V0H18.8z M5.2,21.2v-20h13.6v20H5.2z"/>
	<rect x="6.8" y="2.8" class="st0" width="10.4" height="1.2"/>
	<rect x="6" y="22.8" class="st0" width="2.4" height="1.2"/>
	<rect x="15.6" y="22.8" class="st0" width="2.4" height="1.2"/>
	<path class="st0" d="M12,8.8c-2.2,0-4,1.8-4,4c0,2.2,1.8,4,4,4s4-1.8,4-4C16,10.6,14.2,8.8,12,8.8z M12,15.6
		c-1.5,0-2.8-1.3-2.8-2.8c0-1.5,1.3-2.8,2.8-2.8s2.8,1.3,2.8,2.8C14.8,14.3,13.5,15.6,12,15.6z"/>
	<polygon class="st0" points="12.5,11.6 11.8,10.9 11.1,11.6 11.8,12.3 11.5,12.6 11.5,12.6 10.8,13.3 11.5,14 12.2,14.7 12.9,14 
		12.2,13.3 13.2,12.3 	"/>
</g>
</svg>
