<?xml version="1.0" encoding="utf-8"?>
<!-- Generator: Adobe Illustrator 22.0.1, SVG Export Plug-In . SVG Version: 6.00 Build 0)  -->
<svg version="1.1" id="图层_1" xmlns="http://www.w3.org/2000/svg" xmlns:xlink="http://www.w3.org/1999/xlink" x="0px" y="0px"
	 viewBox="0 0 24 24" style="enable-background:new 0 0 24 24;" xml:space="preserve">
<style type="text/css">
	.st0{fill:#101010;}
</style>
<g>
	<path class="st0" d="M24,10.1L11.8,0L0,10.1l0,0h0v1.2h2.4v11.5h0V24h0v0h1.2v0h16.8v0h1.2v0v-1.2V11.3H24L24,10.1L24,10.1L24,10.1
		z M20.4,22.8H3.6V11.3v-0.8v-0.4H1.9l10-8.5l10.3,8.5h-1.7v1.2h0V22.8z"/>
	<path class="st0" d="M9.8,12.5c-0.1-0.3-0.4-0.4-0.6-0.3l-1.4,0.5c-0.3,0.1-0.4,0.4-0.3,0.6v0c0.1,0.3,0.4,0.4,0.6,0.3l0.3-0.1
		l-2.5,4.4c-0.1,0.2-0.1,0.5,0.2,0.7c0,0,0,0,0.1,0c0,0,0,0,0,0c0,0,0,0,0.1,0c0,0,0,0,0,0c0,0,0,0,0.1,0c0,0,0,0,0,0h3.2
		c0.3,0,0.5-0.2,0.5-0.5c0-0.3-0.2-0.5-0.5-0.5H7.2L9.3,14l0.1,0.3c0.1,0.3,0.4,0.4,0.6,0.3c0.3-0.1,0.4-0.4,0.3-0.6L9.8,12.5z"/>
	<path class="st0" d="M13.7,12.4l-0.3,0c-0.3,0-0.5,0.2-0.6,0.4s0.2,0.5,0.4,0.6l1.5,0.2c0.3,0,0.5-0.2,0.6-0.4l0.2-1.5
		c0-0.3-0.2-0.5-0.4-0.6h0c-0.3,0-0.5,0.2-0.6,0.4l0,0.3l-2.2-3.6c-0.1-0.2-0.4-0.3-0.7-0.2c0,0,0,0,0,0c0,0,0,0,0,0
		c0,0,0,0-0.1,0.1c0,0,0,0,0,0c0,0,0,0,0,0.1c0,0,0,0,0,0l-1.5,2.8c-0.1,0.2,0,0.5,0.2,0.7c0.2,0.1,0.5,0,0.7-0.2l1.1-2L13.7,12.4z"
		/>
	<path class="st0" d="M17.8,17.7C17.8,17.7,17.8,17.7,17.8,17.7C17.8,17.7,17.8,17.7,17.8,17.7c0-0.1,0-0.1,0-0.2c0,0,0,0,0,0
		l-1.6-2.8c-0.1-0.2-0.4-0.3-0.7-0.2c-0.2,0.1-0.3,0.4-0.2,0.7l1.2,2l-3.5,0l0.2-0.2c0.2-0.2,0.1-0.5-0.1-0.7
		c-0.2-0.2-0.5-0.1-0.7,0.1l-0.9,1.2c-0.2,0.2-0.1,0.5,0.1,0.7l1.2,0.9c0.2,0.2,0.5,0.1,0.7-0.1c0.2-0.2,0.1-0.5-0.1-0.7l-0.2-0.2
		l4.3,0C17.6,18.3,17.8,18.1,17.8,17.7C17.8,17.8,17.8,17.8,17.8,17.7C17.8,17.8,17.8,17.8,17.8,17.7z"/>
</g>
</svg>
