<?xml version="1.0" encoding="utf-8"?>
<!-- Generator: Adobe Illustrator 22.0.1, SVG Export Plug-In . SVG Version: 6.00 Build 0)  -->
<svg version="1.1" id="图层_1" xmlns="http://www.w3.org/2000/svg" xmlns:xlink="http://www.w3.org/1999/xlink" x="0px" y="0px"
	 viewBox="0 0 24 24" style="enable-background:new 0 0 24 24;" xml:space="preserve">
<style type="text/css">
	.st0{fill:#101010;}
</style>
<g>
	<path class="st0" d="M19.1,22.1l-6.2-6.2l0,0L12,15l0,0l0,0l-0.8,0.8l0,0l-6.2,6.2l0,0l-1.2,1.2h16.7L19.1,22.1L19.1,22.1z
		 M6.6,22.1l5.4-5.4l5.4,5.4H6.6z"/>
	<polygon class="st0" points="22.8,0.7 22.8,0.7 0,0.7 0,1.9 0,1.9 0,16.9 0,18.1 1.2,18.1 6.5,18.1 7.7,16.9 1.2,16.9 1.2,1.9 
		22.8,1.9 22.8,16.9 16.3,16.9 17.5,18.1 24,18.1 24,18.1 24,16.9 24,0.7 	"/>
</g>
</svg>
