<?xml version="1.0" encoding="utf-8"?>
<!-- Generator: Adobe Illustrator 22.0.1, SVG Export Plug-In . SVG Version: 6.00 Build 0)  -->
<svg version="1.1" id="图层_1" xmlns="http://www.w3.org/2000/svg" xmlns:xlink="http://www.w3.org/1999/xlink" x="0px" y="0px"
	 viewBox="0 0 24 24" style="enable-background:new 0 0 24 24;" xml:space="preserve">
<style type="text/css">
	.st0{fill:#101010;}
</style>
<g>
	<path class="st0" d="M14.4,9.6c0-1.3-1.1-2.4-2.4-2.4S9.6,8.3,9.6,9.6c0,0.7,0.3,1.4,0.8,1.8L4.5,24h1.2l0,0l6.3-2.9l6.3,2.9l0,0
		l0,0h1.2l-6-12.6C14.1,11,14.4,10.3,14.4,9.6z M12,8.4c0.7,0,1.2,0.5,1.2,1.2s-0.5,1.2-1.2,1.2c-0.7,0-1.2-0.5-1.2-1.2
		S11.3,8.4,12,8.4z M17.5,22.3L12,19.7l-5.5,2.6l4.9-10.4c0.2,0,0.4,0.1,0.6,0.1s0.4,0,0.6-0.1L17.5,22.3z"/>
	<path class="st0" d="M16.3,14.3c1.3-1.2,2.1-2.9,2.1-4.7c0-3.5-2.9-6.4-6.4-6.4S5.6,6.1,5.6,9.6c0,1.9,0.8,3.6,2.1,4.7l0.5-1.2
		C7.3,12.2,6.8,11,6.8,9.6c0-2.9,2.3-5.2,5.2-5.2s5.2,2.3,5.2,5.2c0,1.4-0.5,2.6-1.4,3.6L16.3,14.3z"/>
	<path class="st0" d="M6.3,17.3l0.5-1.1c-2-1.5-3.2-3.9-3.2-6.6C3.6,5,7.4,1.2,12,1.2c4.6,0,8.4,3.8,8.4,8.4c0,2.7-1.3,5.1-3.2,6.6
		l0.5,1.1c2.4-1.7,3.9-4.6,3.9-7.7C21.6,4.3,17.3,0,12,0S2.4,4.3,2.4,9.6C2.4,12.8,3.9,15.6,6.3,17.3z"/>
</g>
</svg>
