<?xml version="1.0" encoding="utf-8"?>
<!-- Generator: Adobe Illustrator 22.0.1, SVG Export Plug-In . SVG Version: 6.00 Build 0)  -->
<svg version="1.1" id="图层_1" xmlns="http://www.w3.org/2000/svg" xmlns:xlink="http://www.w3.org/1999/xlink" x="0px" y="0px"
	 viewBox="0 0 24 24" style="enable-background:new 0 0 24 24;" xml:space="preserve">
<style type="text/css">
	.st0{fill:#101010;}
</style>
<path class="st0" d="M22.8,14.5h-3.3v-2.1v-1.2v0h-6.8V9.5H16v0h1.2v0V8.3V1.2V0H16H8.1H6.9v1.2v7.1v1.2v0h1.2v0h3.4v1.7H5.8H4.6h0
	v3.3H1.2H0v1.2v7.1V24v0h1.2v0h7.9v0h1.2v0v-1.2v-7.1v-1.2H9.1H5.8v-2.1h5.7v0h1.2v0h5.6v2.1h-3.4h-1.2v1.2v7.1V24v0h1.2v0h7.9v0H24
	v0v-1.2v-7.1v-1.2H22.8z M8.1,1.2H16v7.1H8.1V1.2z M9.1,15.7v7.1H1.2v-7.1h3.4h1.2H9.1z M22.8,22.8h-7.9v-7.1h3.4h1.2h3.3V22.8z"/>
</svg>
