<?xml version="1.0" encoding="utf-8"?>
<!-- Generator: Adobe Illustrator 22.0.1, SVG Export Plug-In . SVG Version: 6.00 Build 0)  -->
<svg version="1.1" id="图层_1" xmlns="http://www.w3.org/2000/svg" xmlns:xlink="http://www.w3.org/1999/xlink" x="0px" y="0px"
	 viewBox="0 0 24 24" style="enable-background:new 0 0 24 24;" xml:space="preserve">
<style type="text/css">
	.st0{fill:#101010;}
</style>
<g>
	<path class="st0" d="M17.6,0L17.6,0l-7.2,0v0H9.2v0H6.4v0H5.2v0h0v1.2h0v4h0v1.2h0v14.8h0v1.2h0h1.2h11.2h1.2h0V0H17.6z M17.6,1.2
		v4h-7.2v-4H17.6z M6.4,1.2h2.8v4H6.4V1.2z M6.4,21.2V6.4h11.2v14.8H6.4z"/>
	<rect x="14.8" y="10.4" class="st0" width="1.2" height="2.4"/>
	<rect x="6.8" y="22.8" class="st0" width="2.4" height="1.2"/>
	<rect x="14.8" y="22.8" class="st0" width="2.4" height="1.2"/>
	<path class="st0" d="M12.3,4.2c0.4,0,0.8-0.3,0.8-0.7V2.2h-0.5v1.3c0,0.2-0.1,0.3-0.3,0.3S12,3.7,12,3.5V2.2h-0.5v1.3
		C11.5,3.9,11.9,4.2,12.3,4.2z"/>
	<path class="st0" d="M13.9,3.5h0.3c0.4,0,0.7-0.3,0.7-0.6c0-0.3-0.2-0.6-0.7-0.6h-0.8v2h0.5V3.5z M13.9,2.6h0.3
		c0.1,0,0.2,0.1,0.2,0.2c0,0.1-0.1,0.2-0.2,0.2h-0.3V2.6z"/>
	<path class="st0" d="M15.8,3.8c-0.2,0-0.3,0-0.4-0.1L15,3.9c0.2,0.2,0.5,0.3,0.8,0.3c0.4,0,0.8-0.2,0.8-0.6c0-0.2,0-0.3-0.1-0.4
		C16.3,3,16.2,3,16,3l-0.2,0c-0.1,0-0.1,0-0.1-0.1c0,0,0-0.1,0-0.1c0-0.1,0.1-0.2,0.2-0.2c0.1,0,0.3,0,0.4,0.1l0.3-0.3
		c-0.2-0.2-0.4-0.2-0.7-0.2c-0.5,0-0.7,0.3-0.7,0.6c0,0.2,0,0.3,0.1,0.4c0.1,0.1,0.2,0.2,0.4,0.2l0.2,0c0.1,0,0.1,0,0.1,0.1
		c0,0,0,0.1,0,0.1C16,3.7,15.9,3.8,15.8,3.8z"/>
</g>
</svg>
