<?xml version="1.0" encoding="utf-8"?>
<!-- Generator: Adobe Illustrator 22.0.1, SVG Export Plug-In . SVG Version: 6.00 Build 0)  -->
<svg version="1.1" id="图层_1" xmlns="http://www.w3.org/2000/svg" xmlns:xlink="http://www.w3.org/1999/xlink" x="0px" y="0px"
	 viewBox="0 0 24 24" style="enable-background:new 0 0 24 24;" xml:space="preserve">
<style type="text/css">
	.st0{fill:#101010;}
</style>
<g>
	<path class="st0" d="M17.3,22.8l-2.8-4.7c3.9-1.1,6.7-4.7,6.7-8.9C21.2,4.1,17,0,12,0S2.8,4.2,2.8,9.2c0,4.2,2.8,7.7,6.6,8.8
		l-2.7,4.8H3.9L4,24h16l0-1.2H17.3z M3.9,9.2c0-4.4,3.6-8,8-8s8,3.6,8,8c0,4.4-3.6,8-8,8S3.9,13.6,3.9,9.2z M10.6,18.3
		c0.5,0.1,0.9,0.1,1.4,0.1c0.4,0,0.8,0,1.2-0.1l2.6,4.5H8L10.6,18.3z"/>
	<path class="st0" d="M18,9.1c0-3.3-2.7-6-6-6c-3.3,0-6,2.7-6,6c0,3.3,2.7,6,6,6C15.3,15.1,18,12.4,18,9.1z M7.1,9.2
		c0-2.7,2.2-4.8,4.8-4.8s4.8,2.2,4.8,4.8c0,2.7-2.2,4.8-4.8,4.8S7.1,11.8,7.1,9.2z"/>
	<path class="st0" d="M9.1,9.4C9.1,9.4,9.1,9.4,9.1,9.4l1.2,0c0,0,0,0,0,0c0-1.1,0.9-2,2-2c0,0,0,0,0.1,0V6.2c0,0,0,0-0.1,0
		C10.5,6.2,9.1,7.6,9.1,9.4z"/>
</g>
</svg>
