<?xml version="1.0" encoding="utf-8"?>
<!-- Generator: Adobe Illustrator 23.0.1, SVG Export Plug-In . SVG Version: 6.00 Build 0)  -->
<svg version="1.0" id="图层_1" xmlns="http://www.w3.org/2000/svg" xmlns:xlink="http://www.w3.org/1999/xlink" x="0px" y="0px"
	 viewBox="0 0 59 54" style="enable-background:new 0 0 59 54;" xml:space="preserve">
<style type="text/css">
	.st0{fill:#10a957;}
</style>
<g>
	<path class="st0" d="M57,10.2C57,10.2,57,10.2,57,10.2C57,10.2,57,10.2,57,10.2C57,10.2,57,10.2,57,10.2C57,10.2,57,10.2,57,10.2
		c-2.6-5.3-7-8.7-12.2-9.6c-5.3-0.9-10.9,0.9-15.3,4.8c-4.4-3.9-10.1-5.7-15.3-4.8C8.9,1.4,4.6,4.8,2,10.2c0,0,0,0,0,0
		c-5.6,11.3,3.1,21.6,7.1,25.5c0,0,0,0,0,0c0,0,0,0,0,0l19.4,17.5c0,0,0,0,0,0c0.1,0.1,0.3,0.2,0.4,0.3c0,0,0,0,0.1,0
		c0.2,0.1,0.3,0.1,0.5,0.1c0,0,0,0,0,0c0,0,0,0,0,0s0,0,0,0c0,0,0,0,0,0c0.2,0,0.3,0,0.5-0.1c0,0,0,0,0.1,0c0.1-0.1,0.3-0.1,0.4-0.3
		c0,0,0,0,0,0l19.4-17.5c0,0,0,0,0,0c0,0,0,0,0,0C53.9,31.8,62.7,21.5,57,10.2z M47.9,33.5L29.5,50.1L11.1,33.5
		c-3.5-3.4-11.2-12.5-6.5-22c0,0,0,0,0,0c0,0,0,0,0,0c2.2-4.5,5.7-7.3,10-8c4.7-0.8,9.9,1.1,13.8,4.9c0.6,0.6,1.5,0.6,2.1,0
		c3.9-3.9,9-5.7,13.8-4.9c4.3,0.7,7.8,3.5,10,8c0,0,0,0,0,0c0,0,0,0,0,0C59.1,21.1,51.4,30.1,47.9,33.5z"/>
	<path class="st0" d="M17,7.3c-3.1,0-6.1,1.9-7.9,4.9C7,16,7.2,20.7,9.7,24.8c0.3,0.5,0.8,0.7,1.3,0.7c0.3,0,0.5-0.1,0.8-0.2
		c0.7-0.4,0.9-1.3,0.5-2.1c-1.9-3.2-2.1-6.7-0.5-9.6c1.2-2.1,3.2-3.4,5.2-3.4c0.8,0,1.5-0.7,1.5-1.5S17.8,7.3,17,7.3z"/>
</g>
</svg>
