<?xml version="1.0" encoding="utf-8"?>
<!-- Generator: Adobe Illustrator 23.0.1, SVG Export Plug-In . SVG Version: 6.00 Build 0)  -->
<svg version="1.0" id="图层_1" xmlns="http://www.w3.org/2000/svg" xmlns:xlink="http://www.w3.org/1999/xlink" x="0px" y="0px"
	 viewBox="0 0 100 100" style="enable-background:new 0 0 100 100;" xml:space="preserve">
<style type="text/css">
	.st0{fill:#9E9E9E;}
</style>
<g>
	<path class="st0" d="M50,0C22.3,0,0,22.4,0,50c0,27.7,22.3,50,50,50c27.6,0,50-22.3,50-50C100,22.4,77.7,0,50,0z M50,94.1
		C25.9,94.1,5.9,74.5,5.9,50C5.9,25.9,25.8,5.9,50,5.9c24.5,0,44.1,20,44.1,44.1C94.1,74.5,74.5,94.1,50,94.1z"/>
	<path class="st0" d="M82.5,33.2L49.7,86.7H50c20.2,0,36.7-16.5,36.7-36.7C86.8,44.1,85.4,38.2,82.5,33.2z"/>
	<polygon class="st0" points="39.5,50.4 50.4,68.2 56,59.2 50.7,50.4 	"/>
	<path class="st0" d="M13.3,50c0,20.3,16.1,36.5,36.1,36.7L17.5,33.2C14.6,38.5,13.3,44.1,13.3,50z"/>
	<path class="st0" d="M34.2,41.4h11.3l-5.2-9.1h12.6l9,15.7l9.4-16.1h10.9C75.6,21,63.6,13.3,50.1,13.3c-8.5,0-16.3,3-22.6,8
		c-3.8,3-7,6.7-9.4,11h10.5L34.2,41.4z"/>
</g>
</svg>
