<?xml version="1.0" encoding="UTF-8"?>
<svg width="80px" height="80px" viewBox="0 0 80 80" version="1.1" xmlns="http://www.w3.org/2000/svg" xmlns:xlink="http://www.w3.org/1999/xlink">
    <!-- Generator: Sketch 49 (51002) - http://www.bohemiancoding.com/sketch -->
    <title>Slice 1</title>
    <desc>Created with Sketch.</desc>
    <defs>
        <polygon id="path-1" points="0.000327868852 0.25204918 40.9836066 0.25204918 40.9836066 37.2979508 0.000327868852 37.2979508"></polygon>
        <polygon id="path-3" points="0.11057377 0.448360656 8.07696721 0.448360656 8.07696721 4.43237705 0.11057377 4.43237705"></polygon>
    </defs>
    <g id="Page-1" stroke="none" stroke-width="1" fill="none" fill-rule="evenodd">
        <g id="img">
            <rect id="bg" fill="#ff9800" x="0" y="0" width="80" height="80" rx="10"></rect>
            <g id="icon" transform="translate(20.000000, 15.000000)">
                <g id="Group-3" transform="translate(0.000000, 5.289426)">
                    <mask id="mask-2" fill="white">
                        <use xlink:href="#path-1"></use>
                    </mask>
                    <g id="Clip-2"></g>
                    <path d="M40.9839344,37.2979508 L40.1642623,34.8389344 L36.8855738,27.9741803 L36.8822951,16.6479508 L34.4232787,16.6479508 L34.4265574,27.9741803 L37.7052459,34.8389344 L20.4921311,34.8389344 L3.27901639,34.8389344 L6.55688525,27.9741803 L6.55770492,27.9741803 L6.55442623,16.6397541 C6.5552459,8.94467213 12.7929508,2.70696721 20.4888525,2.70696721 C28.1847541,2.70696721 34.4232787,8.9454918 34.4232787,16.6413934 L36.874918,16.6413934 C36.874918,7.5897541 29.5372131,0.25204918 20.4847541,0.25204918 C11.5355738,0.25204918 4.27409836,7.42827869 4.11098361,16.3389344 L4.09540984,16.3389344 L4.09540984,16.6397541 L4.09540984,16.6413934 L4.09868852,27.9741803 L4.09786885,27.9741803 L0.82,34.8389344 L0.000327868852,37.2979508 L20.4921311,37.2979508 L40.9839344,37.2979508 Z" id="Fill-1" fill="#FFFFFF" mask="url(#mask-2)"></path>
                </g>
                <path d="M24.7289344,43.4070492 C24.0518852,43.4070492 23.5027049,43.9562295 23.5027049,44.6332787 C23.5027049,45.9914754 22.3961475,47.0922951 21.0379508,47.0922951 C19.6805738,47.0922951 18.5764754,45.9914754 18.5764754,44.6332787 C18.5764754,43.9562295 18.0272951,43.4070492 17.3494262,43.4070492 C16.672377,43.4070492 16.1231967,43.9562295 16.1231967,44.6332787 L16.119918,44.6332787 C16.119918,47.3504918 18.322377,49.5513115 21.0379508,49.5513115 C23.7551639,49.5513115 25.9559836,47.3504918 25.9559836,44.6332787 C25.9559836,43.9562295 25.4068033,43.4070492 24.7289344,43.4070492" id="Fill-4" fill="#FFFFFF"></path>
                <path d="M24.4727869,4.78319672 C24.4719672,4.78319672 24.4711475,4.78237705 24.4703279,4.78237705 C24.4703279,4.7897541 24.4727869,4.79713115 24.4727869,4.80368852 C24.4727869,4.98401639 24.4957377,4.60942623 24.4727869,4.78319672" id="Fill-6" fill="#FFFFFF"></path>
                <g id="Group-10" transform="translate(16.393443, 0.371393)">
                    <mask id="mask-4" fill="white">
                        <use xlink:href="#path-3"></use>
                    </mask>
                    <g id="Clip-9"></g>
                    <path d="M8.07696721,4.41106557 C8.0654918,2.22090164 6.28762295,0.44795082 4.095,0.44795082 C1.895,0.44795082 0.11057377,2.23237705 0.11057377,4.43237705 C1.36713115,4.10122951 2.78680328,3.88565574 4.14827869,3.88565574 C5.50811475,3.88565574 6.82122951,4.07991803 8.07696721,4.41106557" id="Fill-8" fill="#FFFFFF" mask="url(#mask-4)"></path>
                </g>
            </g>
        </g>
    </g>
</svg>
