<?xml version="1.0" encoding="utf-8"?>
<!-- Generator: Adobe Illustrator 22.0.1, SVG Export Plug-In . SVG Version: 6.00 Build 0)  -->
<svg version="1.1" id="图层_1" xmlns="http://www.w3.org/2000/svg" xmlns:xlink="http://www.w3.org/1999/xlink" x="0px" y="0px"
	 viewBox="0 0 60 60" style="enable-background:new 0 0 60 60;" xml:space="preserve">
<style type="text/css">
	.st0{fill:#ffffff;}
</style>
<g>
	<g>
		<path class="st0" d="M27.5,39.9L27.5,39.9c-0.6,0.6-1.5,0.6-2.1,0L14.8,29.3c-0.6-0.6-0.6-1.5,0-2.1l0,0c0.6-0.6,1.5-0.6,2.1,0
			l10.6,10.6C28.1,38.4,28.1,39.3,27.5,39.9z"/>
		<path class="st0" d="M25.4,39.9L25.4,39.9c-0.6-0.6-0.6-1.5,0-2.1l17.7-17.7c0.6-0.6,1.5-0.6,2.1,0v0c0.6,0.6,0.6,1.5,0,2.1
			L27.5,39.9C26.9,40.5,26,40.5,25.4,39.9z"/>
	</g>

</g>
</svg>
