<?xml version="1.0" encoding="utf-8"?>
<!-- Generator: Adobe Illustrator 22.0.1, SVG Export Plug-In . SVG Version: 6.00 Build 0)  -->
<svg version="1.1" id="图层_1" xmlns="http://www.w3.org/2000/svg" xmlns:xlink="http://www.w3.org/1999/xlink" x="0px" y="0px"
	 viewBox="0 0 60 60" style="enable-background:new 0 0 60 60;" xml:space="preserve">
<style type="text/css">
	.st0{fill:#10A957;}
</style>
<g>
	<path class="st0" d="M51.6,27.1c5-5.1,5-13.3,0-18.3c-5.1-5.1-13.3-5.1-18.3,0l0,0l-5.1,5.1c-0.6,0.6-0.6,1.5,0,2.1
		c0.6,0.6,1.5,0.6,2.1,0l5.1-5.1v0c3.9-3.9,10.2-3.9,14.1,0c3.9,3.9,3.9,10.2,0,14.1l0,0l-7.3,7.3l0,0c-3.9,3.9-10.2,3.9-14.1,0l0,0
		c-0.6-0.6-1.5-0.6-2.1,0c-0.6,0.6-0.6,1.5,0,2.1c0,0,0,0,0,0c5.1,5.1,13.3,5.1,18.4,0l0,0L51.6,27.1L51.6,27.1
		C51.6,27.2,51.6,27.2,51.6,27.1L51.6,27.1L51.6,27.1z"/>
	<path class="st0" d="M30.5,44l-5.1,5.1l0,0c-3.9,3.9-10.2,3.9-14.1,0c-3.9-3.9-3.9-10.2,0-14.1l0,0l7.3-7.3l0,0
		c3.9-3.9,10.2-3.9,14.1,0l0,0c0.6,0.6,1.5,0.6,2.1,0c0.6-0.6,0.6-1.5,0-2.1c0,0,0,0,0,0c-5.1-5.1-13.3-5.1-18.4,0l0,0l-7.3,7.3l0,0
		c-5,5.1-5,13.3,0,18.3s13.3,5.1,18.3,0l0,0l5.1-5.1c0.6-0.6,0.6-1.5,0-2.1C32.1,43.4,31.1,43.4,30.5,44z"/>
</g>
</svg>
