<?xml version="1.0" encoding="utf-8"?>
<!-- Generator: Adobe Illustrator 23.0.1, SVG Export Plug-In . SVG Version: 6.00 Build 0)  -->
<svg version="1.0" id="图层_1" xmlns="http://www.w3.org/2000/svg" xmlns:xlink="http://www.w3.org/1999/xlink" x="0px" y="0px"
	 viewBox="0 0 189.3 177.98" style="enable-background:new 0 0 189.3 177.98;" xml:space="preserve">
<path style="fill:#E8E8E8;" d="M108.94,3.03c-2.95,0-5.34,2.39-5.34,5.34c0,2.95,2.39,5.34,5.34,5.34c2.95,0,5.34-2.39,5.34-5.34
	C114.28,5.42,111.89,3.03,108.94,3.03z M108.94,12.73c-2.41,0-4.36-1.95-4.36-4.36s1.95-4.36,4.36-4.36s4.36,1.95,4.36,4.36
	S111.35,12.73,108.94,12.73z"/>
<g>
	<path style="fill:#F0F3F4;" d="M162.08,107.27c0.64-4.01,0.98-8.11,0.98-12.3c0-42.8-34.7-77.5-77.5-77.5
		c-13.51,0-26.21,3.46-37.27,9.54l4.02,4.02c2.54,2.54,2.54,6.65,0,9.19c-2.44,2.44-6.32,2.53-8.87,0.29L31.8,28.86
		c-2.54-2.54-6.65-2.54-9.19,0c-2.54,2.54-2.54,6.65,0,9.19l5.23,5.23c0,0,0,0,0,0L31.54,47c2.54,2.54,2.54,6.65,0,9.19
		c-2.29,2.29-5.87,2.51-8.42,0.65l-2.92-2.92c-3.32-3.32-8.7-3.32-12.02,0s-3.32,8.7,0,12.02l4.02,4.02
		c-2.68,7.84-4.14,16.25-4.14,25c0,26.91,13.72,50.61,34.54,64.5h85.88c4.95-3.31,9.52-7.15,13.58-11.48l0.26,0.26
		c3.32,3.32,8.7,3.32,12.02,0s3.32-8.7,0-12.02l-12.75-12.75c-1.8-2.54-1.57-6.08,0.71-8.36v0c2.54-2.54,6.67-2.54,9.21,0l6.75,6.75
		c0,0,0,0,0,0l5.69,5.69c2.54,2.54,6.67,2.54,9.21,0c2.54-2.54,2.54-6.67,0-9.21L162.08,107.27z"/>
	
		<ellipse transform="matrix(0.7071 -0.7071 0.7071 0.7071 -8.0355 14.7027)" style="fill:#F0F3F4;" cx="13.73" cy="17.05" rx="6.43" ry="6.43"/>
	
		<ellipse transform="matrix(0.3827 -0.9239 0.9239 0.3827 -13.6637 253.51)" style="fill:#F0F3F4;" cx="182.87" cy="136.98" rx="6.43" ry="6.43"/>
</g>
<g>
	<path style="fill:#E8E8E8;" d="M64.81,9.58h-6.07c-0.67,0-1.21-0.54-1.21-1.21v0c0-0.67,0.54-1.21,1.21-1.21h6.07
		c0.67,0,1.21,0.54,1.21,1.21v0C66.03,9.04,65.49,9.58,64.81,9.58z"/>
	<path style="fill:#E8E8E8;" d="M60.56,11.4V5.33c0-0.67,0.54-1.21,1.21-1.21h0c0.67,0,1.21,0.54,1.21,1.21v6.07
		c0,0.67-0.54,1.21-1.21,1.21h0C61.11,12.62,60.56,12.07,60.56,11.4z"/>
</g>
<g>
	<path style="fill:#E8E8E8;" d="M145.06,29.68h-6.07c-0.67,0-1.21-0.54-1.21-1.21v0c0-0.67,0.54-1.21,1.21-1.21h6.07
		c0.67,0,1.21,0.54,1.21,1.21v0C146.27,29.14,145.73,29.68,145.06,29.68z"/>
	<path style="fill:#E8E8E8;" d="M140.81,31.5v-6.07c0-0.67,0.54-1.21,1.21-1.21l0,0c0.67,0,1.21,0.54,1.21,1.21v6.07
		c0,0.67-0.54,1.21-1.21,1.21l0,0C141.35,32.72,140.81,32.17,140.81,31.5z"/>
</g>
<g>
	<path style="fill:#E2E0E0;" d="M148.23,159.47h-128c-0.55,0-1-0.45-1-1v0c0-0.55,0.45-1,1-1h128c0.55,0,1,0.45,1,1v0
		C149.23,159.02,148.78,159.47,148.23,159.47z"/>
	<path style="fill:#E2E0E0;" d="M164.73,159.47h-8c-0.55,0-1-0.45-1-1v0c0-0.55,0.45-1,1-1h8c0.55,0,1,0.45,1,1v0
		C165.73,159.02,165.28,159.47,164.73,159.47z"/>
	<g>
		<path style="fill:#E2E0E0;" d="M99.24,166.47h-3.18c-0.55,0-1-0.45-1-1l0,0c0-0.55,0.45-1,1-1h3.18c0.55,0,1,0.45,1,1l0,0
			C100.24,166.02,99.79,166.47,99.24,166.47z"/>
		<path style="fill:#E2E0E0;" d="M135.12,166.47h-25.18c-0.55,0-1-0.45-1-1l0,0c0-0.55,0.45-1,1-1h25.18c0.55,0,1,0.45,1,1l0,0
			C136.12,166.02,135.67,166.47,135.12,166.47z"/>
		<path style="fill:#E2E0E0;" d="M84.37,166.47H39.19c-0.55,0-1-0.45-1-1l0,0c0-0.55,0.45-1,1-1h45.18c0.55,0,1,0.45,1,1l0,0
			C85.37,166.02,84.92,166.47,84.37,166.47z"/>
	</g>
	<g>
		<path style="fill:#E2E0E0;" d="M42.24,173.47H16.07c-0.55,0-1-0.45-1-1l0,0c0-0.55,0.45-1,1-1h26.18c0.55,0,1,0.45,1,1l0,0
			C43.24,173.02,42.79,173.47,42.24,173.47z"/>
		<path style="fill:#E2E0E0;" d="M162.58,173.47H62.4c-0.55,0-1-0.45-1-1l0,0c0-0.55,0.45-1,1-1h100.18c0.55,0,1,0.45,1,1l0,0
			C163.58,173.02,163.13,173.47,162.58,173.47z"/>
	</g>
</g>
<g>
	<path style="fill:#D8D8D8;" d="M32.35,108.04h-6.07c-0.67,0-1.21-0.54-1.21-1.21v0c0-0.67,0.54-1.21,1.21-1.21h6.07
		c0.67,0,1.21,0.54,1.21,1.21v0C33.57,107.5,33.02,108.04,32.35,108.04z"/>
	<path style="fill:#D8D8D8;" d="M28.1,109.86v-6.07c0-0.67,0.54-1.21,1.21-1.21h0c0.67,0,1.21,0.54,1.21,1.21v6.07
		c0,0.67-0.54,1.21-1.21,1.21h0C28.65,111.08,28.1,110.53,28.1,109.86z"/>
</g>
<g>
	<path style="fill:#D8D8D8;" d="M132.81,62.51l-4.29-4.29c-0.47-0.47-0.47-1.24,0-1.72l0,0c0.47-0.47,1.24-0.47,1.72,0l4.29,4.29
		c0.47,0.47,0.47,1.24,0,1.72l0,0C134.05,62.98,133.28,62.98,132.81,62.51z"/>
	<path style="fill:#D8D8D8;" d="M128.51,60.79l4.29-4.29c0.47-0.47,1.24-0.47,1.72,0l0,0c0.47,0.47,0.47,1.24,0,1.72l-4.29,4.29
		c-0.47,0.47-1.24,0.47-1.72,0l0,0C128.04,62.04,128.04,61.27,128.51,60.79z"/>
</g>
<path style="fill:#D8D8D8;" d="M77.7,29.68c-2.95,0-5.34,2.39-5.34,5.34c0,2.95,2.39,5.34,5.34,5.34c2.95,0,5.34-2.39,5.34-5.34
	C83.04,32.07,80.65,29.68,77.7,29.68z M77.7,39.38c-2.41,0-4.36-1.95-4.36-4.36s1.95-4.36,4.36-4.36s4.36,1.95,4.36,4.36
	S80.11,39.38,77.7,39.38z"/>
<path style="fill:#D8D8D8;" d="M24.38,61.84c-2.95,0-5.34,2.39-5.34,5.34c0,2.95,2.39,5.34,5.34,5.34c2.95,0,5.34-2.39,5.34-5.34
	C29.73,64.24,27.33,61.84,24.38,61.84z M24.38,71.55c-2.41,0-4.36-1.95-4.36-4.36s1.95-4.36,4.36-4.36s4.36,1.95,4.36,4.36
	S26.79,71.55,24.38,71.55z"/>
<path style="fill:#D8D8D8;" d="M143.01,90.57c-2.95,0-5.34,2.39-5.34,5.34c0,2.95,2.39,5.34,5.34,5.34c2.95,0,5.34-2.39,5.34-5.34
	C148.35,92.96,145.96,90.57,143.01,90.57z M143.01,100.27c-2.41,0-4.36-1.95-4.36-4.36s1.95-4.36,4.36-4.36s4.36,1.95,4.36,4.36
	S145.42,100.27,143.01,100.27z"/>
<path style="fill:#D8D8D8;" d="M121.83,134.67c-1.52,0-2.75,1.23-2.75,2.75c0,1.52,1.23,2.75,2.75,2.75s2.75-1.23,2.75-2.75
	C124.58,135.9,123.35,134.67,121.83,134.67z M121.83,139.24c-1.01,0-1.83-0.82-1.83-1.83s0.82-1.83,1.83-1.83s1.83,0.82,1.83,1.83
	S122.84,139.24,121.83,139.24z"/>
<path style="fill:#D8D8D8;" d="M57.53,124.08c-1.52,0-2.75,1.23-2.75,2.75c0,1.52,1.23,2.75,2.75,2.75s2.75-1.23,2.75-2.75
	C60.28,125.31,59.05,124.08,57.53,124.08z M57.53,128.65c-1.01,0-1.83-0.82-1.83-1.83s0.82-1.83,1.83-1.83s1.83,0.82,1.83,1.83
	S58.54,128.65,57.53,128.65z"/>
<g>
	<polygon style="fill:#FFFFFF;" points="122.62,63.74 48.62,63.74 48.62,119.27 71.38,119.27 85.62,133.74 99.79,119.27 
		122.62,119.27 	"/>
	<g>
		<polygon style="fill:#D8D8D8;" points="85.62,133.74 70.44,118.38 72.56,116.24 87.74,131.59 		"/>
		<polygon style="fill:#D8D8D8;" points="85.61,133.74 100.79,118.38 98.67,116.24 83.49,131.59 		"/>
	</g>
	<rect x="48.62" y="63.74" style="fill:#D8D8D8;" width="74" height="3"/>
	<g>
		<rect x="62.62" y="82.01" style="fill:#D8D8D8;" width="46" height="3"/>
		<rect x="62.62" y="98.01" style="fill:#D8D8D8;" width="34.17" height="3"/>
	</g>
	
		<rect x="93.35" y="90.01" transform="matrix(-1.836970e-16 1 -1 -1.836970e-16 212.6216 -29.6097)" style="fill:#D8D8D8;" width="55.53" height="3"/>
	
		<rect x="22.35" y="90.01" transform="matrix(-1.836970e-16 1 -1 -1.836970e-16 141.6216 41.3903)" style="fill:#D8D8D8;" width="55.53" height="3"/>
	<g>
		<polygon style="fill:#D8D8D8;" points="72.56,116.24 48.62,116.24 48.62,119.27 75.56,119.27 		"/>
		<polygon style="fill:#D8D8D8;" points="98.67,116.24 95.67,119.27 122.62,119.27 122.62,116.24 		"/>
	</g>
</g>
</svg>
