<?xml version="1.0" encoding="utf-8"?>
<!-- Generator: Adobe Illustrator 22.0.1, SVG Export Plug-In . SVG Version: 6.00 Build 0)  -->
<svg version="1.1" id="图层_1" xmlns="http://www.w3.org/2000/svg" xmlns:xlink="http://www.w3.org/1999/xlink" x="0px" y="0px"
	 viewBox="0 0 60 60" style="enable-background:new 0 0 60 60;" xml:space="preserve">
<style type="text/css">
	.st0{fill:#ffffff;}
</style>
<g>
	<path class="st0" d="M55,51.4l-1-3l-4-8.5L50,26h-3l0,13.9l4,8.5H30H9l4-8.5h0l0-14c0-9.5,7.6-17.2,17-17.2c9.4,0,17,7.7,17,17.2h3
		c0-11.1-9-20.2-20-20.2c-10.9,0-19.8,8.8-20,19.8h0V26c0,0,0,0,0,0l0,14h0l-4,8.5l-1,3h25H55z"/>
	<path class="st0" d="M35.2,52.4c-0.8,0-1.5,0.7-1.5,1.5c0,1.7-1.3,3-3,3c-1.7,0-3-1.4-3-3c0-0.8-0.7-1.5-1.5-1.5s-1.5,0.7-1.5,1.5
		h0c0,3.3,2.7,6.1,6,6.1s6-2.7,6-6.1C36.7,53.1,36,52.4,35.2,52.4z"/>
	<path class="st0" d="M34.9,4.9C34.9,4.9,34.9,4.9,34.9,4.9C34.9,4.9,34.9,4.9,34.9,4.9C34.9,5.1,34.9,4.7,34.9,4.9z"/>
	<path class="st0" d="M34.9,4.9C34.8,2.2,32.7,0,30,0c-2.7,0-4.9,2.2-4.9,4.9c1.5-0.4,3.3-0.7,4.9-0.7C31.7,4.2,33.3,4.5,34.9,4.9z"
		/>
</g>
</svg>
