<?xml version="1.0" encoding="utf-8"?>
<!-- Generator: Adobe Illustrator 23.0.1, SVG Export Plug-In . SVG Version: 6.00 Build 0)  -->
<svg version="1.0" id="图层_1" xmlns="http://www.w3.org/2000/svg" xmlns:xlink="http://www.w3.org/1999/xlink" x="0px" y="0px"
	 viewBox="0 0 60 60" style="enable-background:new 0 0 60 60;" xml:space="preserve">
<style type="text/css">
	.st0{fill:#ffffff;}
</style>
<path class="st0" d="M56.7,8c0-6-17.2-7.6-26.4-7.6S4,2,4,8c0,1.1,0.6,2.1,1.6,2.9c0,0,0,0.1,0.1,0.1l16.2,19.6c0,0,0,0,0,0
	c1.3,1.5,1.8,2.3,1.8,4.1v19.5l0,0.4c0,1.5,0,3.4,1,4.5c0.5,0.5,1.1,0.7,1.7,0.7c0,0,0,0,0,0c0.1,0,0.2,0,0.3,0c0,0,0.1,0,0.1,0
	c0.1,0,0.2-0.1,0.3-0.1c0,0,0,0,0,0l7.7-4.4c0,0,0,0,0,0c1.8-0.9,2.9-3,2.9-5.6V35.5c0-1.9,0.6-2.7,1.8-4.1c0,0,0,0,0,0c0,0,0,0,0,0
	l15.7-20.6c0,0,0.1-0.1,0.1-0.1C56.3,9.8,56.7,9,56.7,8z M30.4,3.4c15.2,0,23.4,3.2,23.4,4.6c0,0.2-0.1,0.4-0.4,0.6
	c-0.1,0-0.1,0.1-0.1,0.1c-2,1.5-9.8,3.9-22.8,3.9C15.2,12.6,7,9.3,7,8S15.2,3.4,30.4,3.4z M37.4,29.5c-1.2,1.4-2.5,3-2.5,6v14.2
	c0,1.1-0.3,2.5-1.3,3c0,0,0,0,0,0c0,0,0,0-0.1,0l-6.7,3.8c-0.1-0.6-0.1-1.4-0.1-1.8l0-0.5V34.8c0-3-1.2-4.5-2.5-6c0,0,0,0,0,0
	c0,0,0,0,0,0L11.7,13.5c5.8,1.5,13.5,2,18.7,2c5.3,0,13.4-0.5,19.2-2.2L37.4,29.5z"/>
</svg>
