<?xml version="1.0" encoding="UTF-8"?>
<svg width="41px" height="72px" viewBox="0 0 41 72" version="1.1" xmlns="http://www.w3.org/2000/svg" xmlns:xlink="http://www.w3.org/1999/xlink">
    <!-- Generator: Sketch 54.1 (76490) - https://sketchapp.com -->
    <title>UPS</title>
    <desc>Created with Sketch.</desc>
    <g id="Page-1" stroke="none" stroke-width="1" fill="none" fill-rule="evenodd">
        <g id="工单复制-4" transform="translate(-92.000000, -302.000000)">
            <rect fill="#F0F3F4" x="0" y="0" width="750" height="1334"></rect>
            <g id="设备列表" transform="translate(0.000000, 138.000000)">
                <g id="艾默生-UHA1R-0030L">
                    <g id="UPS状态" transform="translate(10.000000, 130.000000)">
                        <path d="M0,14.0000894 C0,6.26805351 6.26747774,0 14.0019375,0 L345.998063,0 C353.731119,0 360,6.26462603 360,14.0000894 L360,125.999911 C360,133.731946 353.732522,140 345.998063,140 L14.0019375,140 C6.26888094,140 0,133.735374 0,125.999911 L0,14.0000894 Z" id="bg" fill="#FFFFFF"></path>
                        <g id="UPS" transform="translate(82.000000, 34.000000)" fill="#F86066">
                            <polygon id="Fill-1" points="0 67 4 67 4 0 0 0"></polygon>
                            <polygon id="Fill-2" points="37 67 41 67 41 0 37 0"></polygon>
                            <polygon id="Fill-3" points="0 4 41 4 41 0 0 0"></polygon>
                            <polygon id="Fill-4" points="0 19 41 19 41 15 0 15"></polygon>
                            <polygon id="Fill-5" points="12 18 16 18 16 0 12 0"></polygon>
                            <polygon id="Fill-6" points="29 38 33 38 33 31 29 31"></polygon>
                            <polygon id="Fill-7" points="0 67 41 67 41 63 0 63"></polygon>
                            <polygon id="Fill-8" points="5 72 12 72 12 68 5 68"></polygon>
                            <polygon id="Fill-9" points="29 72 36 72 36 68 29 68"></polygon>
                            <g id="编组" transform="translate(19.000000, 6.000000)">
                                <path d="M2.45701071,6.41328333 C1.23011786,6.41328333 0.224796429,5.59311667 0.224796429,4.31211667 L0.224796429,0.518116667 L1.67679643,0.518116667 L1.67679643,4.27945 C1.67679643,4.82195 1.97615357,5.13228333 2.45701071,5.13228333 C2.93786786,5.13228333 3.253725,4.82195 3.253725,4.27945 L3.253725,0.518116667 L4.70454643,0.518116667 L4.70454643,4.31211667 C4.70454643,5.59311667 3.68390357,6.41328333 2.45701071,6.41328333" id="Fill-10"></path>
                                <path d="M8.07137143,1.80821667 L7.25108571,1.80821667 L7.25108571,2.99121667 L8.07137143,2.99121667 C8.46972857,2.99121667 8.70190714,2.70305 8.70190714,2.39971667 C8.70190714,2.09521667 8.46972857,1.80821667 8.07137143,1.80821667 M8.13855,4.27921667 L7.25108571,4.27921667 L7.25108571,6.36405 L5.79908571,6.36405 L5.79908571,0.51905 L8.13855,0.51905 C9.44794286,0.51905 10.1539071,1.43955 10.1539071,2.39971667 C10.1539071,3.35988333 9.44794286,4.27921667 8.13855,4.27921667" id="Fill-12"></path>
                                <path d="M12.6820607,6.41328333 C11.7780964,6.41328333 11.0391321,6.24878333 10.4439536,5.64211667 L11.3726679,4.72278333 C11.6779179,5.02728333 12.2177036,5.13228333 12.6903107,5.13228333 C13.2619179,5.13228333 13.5377036,4.94445 13.5377036,4.60728333 C13.5377036,4.46728333 13.503525,4.35295 13.421025,4.26195 C13.3455964,4.18961667 13.2206679,4.13128333 13.0309179,4.10678333 L12.3167036,4.00761667 C11.7945964,3.93411667 11.3962393,3.76261667 11.1322393,3.49078333 C10.8576321,3.21195 10.7256321,2.81761667 10.7256321,2.31711667 C10.7256321,1.24961667 11.5376679,0.469116667 12.8812393,0.469116667 C13.7274536,0.469116667 14.3662393,0.666283333 14.8718464,1.16795 L13.9596321,2.07095 C13.5872036,1.70111667 13.0969179,1.72561667 12.8399893,1.72561667 C12.3343821,1.72561667 12.125775,2.01378333 12.125775,2.26695 C12.125775,2.34161667 12.1517036,2.44895 12.2424536,2.53878333 C12.3167036,2.61228333 12.4416321,2.68695 12.6490607,2.71145 L13.3620964,2.80945 C13.8924536,2.88411667 14.2754893,3.04745 14.5229893,3.29361667 C14.8388464,3.59811667 14.963775,4.03328333 14.963775,4.57461667 C14.963775,5.76461667 13.9266321,6.41328333 12.6820607,6.41328333" id="Fill-14"></path>
                            </g>
                        </g>
                    </g>
                </g>
            </g>
        </g>
    </g>
</svg>