<?xml version="1.0" encoding="utf-8"?>
<!-- Generator: Adobe Illustrator 22.0.1, SVG Export Plug-In . SVG Version: 6.00 Build 0)  -->
<svg version="1.1" id="图层_1" xmlns="http://www.w3.org/2000/svg" xmlns:xlink="http://www.w3.org/1999/xlink" x="0px" y="0px"
	 viewBox="0 0 60 60" style="enable-background:new 0 0 60 60;" xml:space="preserve">
<style type="text/css">
	.st0{fill:#10A957;}
</style>
<g>
	<path class="st0" d="M30,13.7c-4.4,0-8,3.6-8,8c0,4.4,3.5,7.9,7.8,8c0.1,0,0.1,0,0.2,0c0.1,0,0.1,0,0.2,0c4.3-0.1,7.8-3.6,7.8-8
		C38,17.2,34.4,13.7,30,13.7z"/>
	<path class="st0" d="M30,0C13.4,0,0,13.4,0,30s13.4,30,30,30s30-13.4,30-30S46.6,0,30,0z M52.8,48.7l-1.9,2.4c0,0.2,0,0.5,0,0
		c-1.2-10.4-10-18.4-20.7-18.5c-0.1,0-0.1,0-0.2,0c-0.1,0-0.1,0-0.2,0c-10.7,0.1-19.5,8.1-20.7,18.5c-0.1,0.4,0,0.2,0,0L6.7,48
		c-0.4,1.8,0-1.9,0,0c2-8.5,8.5-15.2,16.9-17.5c-2.7-2-4.5-5.2-4.5-8.9c0-6.1,4.9-11,11-11s11,4.9,11,11c0,3.7-1.8,6.9-4.5,8.9
		c8.4,2.4,15,9.2,16.9,17.8C53.1,48.7,52.8,46.9,52.8,48.7z"/>
</g>
</svg>
