<?xml version="1.0" encoding="utf-8"?>
<!-- Generator: Adobe Illustrator 22.0.1, SVG Export Plug-In . SVG Version: 6.00 Build 0)  -->
<svg version="1.1" id="图层_1" xmlns="http://www.w3.org/2000/svg" xmlns:xlink="http://www.w3.org/1999/xlink" x="0px" y="0px"
	 viewBox="0 0 60 60" style="enable-background:new 0 0 60 60;" xml:space="preserve">
<style type="text/css">
	.st0{fill:#10A957;}
</style>
<g>
	<rect x="4.5" y="53" class="st0" width="51.1" height="3"/>
	<path class="st0" d="M57,4L57,4L0,4v0v3v37.9v3v0h3h57v0v-3V7V4v0v0H57z M45.5,31l-2.1,2.1l-7.9-8l-4.5,4.6l0,0l-2.1,2.1l-8.9-8.9
		L9.6,33.3l-2.1-2.1l12.4-12.5l0,0l0,0l8.9,8.9l4.5-4.6l0,0l2.1-2.1l0,0l0,0l2.1,2.1l0,0l5.8,5.8l7-7l2.1,2.1L45.5,31L45.5,31z"/>
</g>
</svg>
