<?xml version="1.0" encoding="utf-8"?>
<!-- Generator: Adobe Illustrator 22.0.1, SVG Export Plug-In . SVG Version: 6.00 Build 0)  -->
<svg version="1.1" id="图层_1" xmlns="http://www.w3.org/2000/svg" xmlns:xlink="http://www.w3.org/1999/xlink" x="0px" y="0px"
	 viewBox="0 0 60 60" style="enable-background:new 0 0 60 60;" xml:space="preserve">
<style type="text/css">
	.st0{fill:#10A957;}
</style>
<g>
	<path class="st0" d="M19.3,2l18.4,18.4l0,0c0.4,0.4,0.8,0.7,1.2,1.1V1.4C36.1,0.5,33.1,0,30,0C26.2,0,22.6,0.7,19.3,2z"/>
	<path class="st0" d="M30,17.6L30,17.6C30,17.6,30,17.6,30,17.6c0.1,0,0.2,0,0.3,0L16.1,3.4C10.2,6.5,5.4,11.5,2.7,17.6H30z"/>
	<path class="st0" d="M60,30c0-3.8-0.7-7.5-2-10.9L39.6,37.5c-0.4,0.5-0.8,0.9-1.2,1.3h20.3C59.5,36,60,33.1,60,30z"/>
	<path class="st0" d="M38.9,29.9c0-4.9-4-8.9-8.9-8.9c-4.9,0-8.9,4-8.9,8.9c0,4.9,4,8.9,8.9,8.9c2.9,0,5.5-1.4,7.1-3.5l0,0l0,0
		C38.2,33.8,38.9,31.9,38.9,29.9z"/>
	<path class="st0" d="M42.3,2.6V30h0c0,0.1,0,0.1,0,0.2l14.2-14.2C53.4,10.1,48.4,5.4,42.3,2.6z"/>
	<path class="st0" d="M20.4,22.3L20.4,22.3c0.4-0.5,0.8-1,1.3-1.4H1.4C0.5,23.8,0,26.8,0,30c0,3.8,0.7,7.4,2,10.7L20.4,22.3z"/>
	<path class="st0" d="M40.9,58L22.3,39.4c-0.5-0.4-0.9-0.8-1.3-1.2v20.4c2.8,0.9,5.8,1.4,8.9,1.4C33.8,60,37.5,59.3,40.9,58z"/>
	<path class="st0" d="M30,42.2L30,42.2c-0.1,0-0.2,0-0.3,0l14.4,14.4c5.9-3.1,10.6-8.2,13.4-14.3H30z"/>
	<path class="st0" d="M17.7,57.4V30h0c0,0,0-0.1,0-0.1c0-0.1,0-0.2,0-0.3L3.4,43.9C6.6,49.9,11.6,54.6,17.7,57.4z"/>
</g>
</svg>
