<?xml version="1.0" encoding="utf-8"?>
<!-- Generator: Adobe Illustrator 22.0.1, SVG Export Plug-In . SVG Version: 6.00 Build 0)  -->
<svg version="1.1" id="图层_1" xmlns="http://www.w3.org/2000/svg" xmlns:xlink="http://www.w3.org/1999/xlink" x="0px" y="0px"
	 viewBox="0 0 60 60" style="enable-background:new 0 0 60 60;" xml:space="preserve">
<style type="text/css">
	.st0{fill:#9E9E9E;}
</style>
<path class="st0" d="M30,0C13.4,0,0,13.4,0,30s13.4,30,30,30s30-13.4,30-30S46.6,0,30,0z M30,3c14.9,0,27,12.1,27,27
	c0,5.6-1.7,10.8-4.6,15.1c-2.7-7-8.6-12.5-15.9-14.5c2.7-2,4.5-5.2,4.5-8.9c0-6.1-4.9-11-11-11s-11,4.9-11,11c0,3.7,1.8,6.9,4.5,8.9
	C16.2,32.6,10.3,38,7.6,45.1C4.7,40.8,3,35.6,3,30C3,15.1,15.1,3,30,3z M30,29.6c-0.1,0-0.1,0-0.2,0c-4.3-0.1-7.8-3.6-7.8-8
	c0-4.4,3.6-8,8-8s8,3.6,8,8c0,4.4-3.5,7.9-7.8,8C30.1,29.7,30.1,29.6,30,29.6z M30,57c-8,0-15.2-3.5-20.2-9.1
	c2.5-8.8,10.5-15.2,20-15.3c0.1,0,0.1,0,0.2,0c0.1,0,0.1,0,0.2,0c9.5,0.1,17.5,6.5,20,15.3C45.2,53.5,38,57,30,57z"/>
</svg>
