<?xml version="1.0" encoding="utf-8"?>
<!-- Generator: Adobe Illustrator 22.0.1, SVG Export Plug-In . SVG Version: 6.00 Build 0)  -->
<svg version="1.1" id="图层_1" xmlns="http://www.w3.org/2000/svg" xmlns:xlink="http://www.w3.org/1999/xlink" x="0px" y="0px"
	 viewBox="0 0 60 60" style="enable-background:new 0 0 60 60;" xml:space="preserve">
<style type="text/css">
	.st0{fill:#9E9E9E;}
</style>
<g>
	<rect x="4.5" y="53" class="st0" width="51.1" height="3"/>
	<path class="st0" d="M57,4L57,4L0,4v0v3v37.9v3h3h57v0v-3V7V4v0H57z M57,44.9H3V7h54V44.9z"/>
	<polygon class="st0" points="7.5,31.1 9.6,33.3 19.9,22.9 28.8,31.8 30.9,29.7 30.9,29.7 35.5,25.1 43.4,33.1 45.5,31 45.5,31 
		52.5,24 50.4,21.8 43.4,28.8 37.6,23 37.6,23 35.5,20.9 35.5,20.9 35.5,20.9 33.3,23 33.4,23 28.8,27.6 19.9,18.6 19.9,18.6 
		19.9,18.6 	"/>
</g>
</svg>
