<?xml version="1.0" encoding="utf-8"?>
<!-- Generator: Adobe Illustrator 22.0.1, SVG Export Plug-In . SVG Version: 6.00 Build 0)  -->
<svg version="1.1" id="图层_1" xmlns="http://www.w3.org/2000/svg" xmlns:xlink="http://www.w3.org/1999/xlink" x="0px" y="0px"
	 viewBox="0 0 60 60" style="enable-background:new 0 0 60 60;" xml:space="preserve">
<style type="text/css">
	.st0{fill:#9E9E9E;}
</style>
<path class="st0" d="M30,0C13.4,0,0,13.4,0,30s13.4,30,30,30s30-13.4,30-30S46.6,0,30,0z M53.9,17.3L41,30.2c0-0.1,0-0.1,0-0.2h0
	V5.3C46.5,7.8,51.1,12,53.9,17.3z M36.4,34.8C34.9,36.7,32.6,38,30,38c-4.5,0-8.1-3.6-8.1-8.1c0-4.5,3.6-8.1,8.1-8.1
	c4.5,0,8.1,3.6,8.1,8.1C38.1,31.7,37.4,33.4,36.4,34.8L36.4,34.8L36.4,34.8z M38.1,4.2v18.2c-0.3-0.4-0.7-0.7-1.1-1l0,0L20.4,4.7
	C23.4,3.6,26.6,3,30,3C32.8,3,35.5,3.4,38.1,4.2z M17.5,6l12.8,12.8c-0.1,0-0.2,0-0.3,0c0,0,0,0,0,0v0H5.4C7.9,13.4,12.1,8.8,17.5,6
	z M4.2,21.8h18.2c-0.4,0.4-0.8,0.8-1.1,1.2l0,0L4.7,39.7C3.6,36.7,3,33.4,3,30C3,27.2,3.4,24.4,4.2,21.8z M6.1,42.6L19,29.7
	c0,0.1,0,0.2,0,0.2c0,0,0,0.1,0,0.1h0v24.7C13.4,52.2,8.9,47.9,6.1,42.6z M21.9,55.8V37.4c0.4,0.4,0.7,0.7,1.1,1.1l16.7,16.7
	c-3,1.2-6.3,1.8-9.8,1.8C27.2,57,24.5,56.6,21.9,55.8z M42.7,53.9L29.7,40.9c0.1,0,0.2,0,0.3,0l0,0h24.7
	C52.3,46.5,48,51.1,42.7,53.9z M55.9,38H37.5c0.4-0.4,0.8-0.8,1.1-1.2l16.6-16.6c1.2,3,1.8,6.3,1.8,9.8C57,32.8,56.6,35.4,55.9,38z"
	/>
</svg>
