<?xml version="1.0" encoding="UTF-8"?>
<svg width="34px" height="34px" viewBox="0 0 34 34" version="1.1" xmlns="http://www.w3.org/2000/svg" xmlns:xlink="http://www.w3.org/1999/xlink">
    <!-- Generator: Sketch 49 (51002) - http://www.bohemiancoding.com/sketch -->
    <title>Slice 1</title>
    <desc>Created with Sketch.</desc>
    <defs></defs>
    <g id="Page-1" stroke="none" stroke-width="1" fill="none" fill-rule="evenodd">
        <path d="M29.1839,32.3 L29.1839,12.9840333 L17.8505667,12.9840333 L17.8505667,32.3 L29.1839,32.3 Z M30.8844667,32.3 L33.9983,32.3 L33.9983,34 L0,34 L0,32.3 L3.1161,32.3 L3.1161,1.7 L3.1161,0 L17.8505667,0 L17.8505667,1.7 L17.8505667,11.2840333 L30.8822,11.2840333 L30.8844667,11.2840333 L30.8844667,32.3 Z M16.1505667,32.3 L16.1505667,12.9840333 L16.1494333,11.2840333 L16.1505667,1.7 L4.8161,1.7 L4.8161,32.3 L16.1505667,32.3 Z M19.6202667,18.5447333 L19.6202667,16.8447333 L27.5536,16.8447333 L27.5536,18.5447333 L19.6202667,18.5447333 Z M19.6202667,23.6832667 L19.6202667,21.9832667 L27.5536,21.9832667 L27.5536,23.6832667 L19.6202667,23.6832667 Z M19.6202667,28.8223667 L19.6202667,27.1223667 L27.5536,27.1223667 L27.5536,28.8223667 L19.6202667,28.8223667 Z M6.51666667,7.13376667 L6.51666667,5.43376667 L14.45,5.43376667 L14.45,7.13376667 L6.51666667,7.13376667 Z M6.51666667,12.2728667 L6.51666667,10.5728667 L14.45,10.5728667 L14.45,12.2728667 L6.51666667,12.2728667 Z M6.51666667,17.4114 L6.51666667,15.7114 L14.45,15.7114 L14.45,17.4114 L6.51666667,17.4114 Z M6.51666667,22.9913667 L6.51666667,21.2913667 L14.45,21.2913667 L14.45,22.9913667 L6.51666667,22.9913667 Z M6.51666667,28.1299 L6.51666667,26.4299 L14.45,26.4299 L14.45,28.1299 L6.51666667,28.1299 Z" id="icon" fill="#101010"></path>
    </g>
</svg>