<?xml version="1.0" encoding="UTF-8"?>
<svg width="74px" height="60px" viewBox="0 0 74 60" version="1.1" xmlns="http://www.w3.org/2000/svg" xmlns:xlink="http://www.w3.org/1999/xlink">
    <!-- Generator: Sketch 49 (51002) - http://www.bohemiancoding.com/sketch -->
    <title>Slice 1</title>
    <desc>Created with Sketch.</desc>
    <defs></defs>
    <g id="Page-1" stroke="none" stroke-width="1" fill="none" fill-rule="evenodd">
        <g id="icon" fill="#9E9E9E">
            <polygon id="Fill-1" points="58.8096 19.0776 63.6096 19.0776 63.6096 15.4776 58.8096 15.4776"></polygon>
            <polygon id="Fill-2" points="0.18576 7.06812 -0.00024 60.00012 3.59136 60.00012 3.77616 7.06812"></polygon>
            <polygon id="Fill-3" points="68.4096 60 72.0012 60 72.0012 7.068 68.4096 7.068"></polygon>
            <polygon id="Fill-4" points="0.186 60 72.0012 60 72.0012 56.3904 0.186 56.3904"></polygon>
            <polygon id="Fill-5" points="22.9272 3.6096 49.2576 3.6096 49.2576 -7.10542736e-15 22.9272 -7.10542736e-15"></polygon>
            <polygon id="Fill-6" points="22.92732 0.0006 15.74532 10.677 19.33692 10.677 26.51772 0.0006"></polygon>
            <polygon id="Fill-7" points="45.66888 0.0006 52.84848 10.677 56.43888 10.677 49.25808 0.0006"></polygon>
            <polygon id="Fill-8" points="0.18576 7.06812 0.18576 10.67772 19.33656 10.67772 20.89056 7.06812"></polygon>
            <polygon id="Fill-9" points="51.29568 7.06812 52.84848 10.67772 72.00048 10.67772 72.00048 7.06812"></polygon>
            <path d="M36.14928,44.96136 C30.16968,44.96136 25.32168,40.11336 25.32168,34.13496 C25.32168,28.15416 30.16968,23.30616 36.14928,23.30616 C42.12888,23.30616 46.97568,28.15416 46.97568,34.13496 C46.97568,40.11336 42.12888,44.96136 36.14928,44.96136 M36.14928,19.73496 C28.19568,19.73496 21.74928,26.18136 21.74928,34.13496 C21.74928,42.08616 28.19568,48.53496 36.14928,48.53496 C44.10168,48.53496 50.54928,42.08616 50.54928,34.13496 C50.54928,26.18136 44.10168,19.73496 36.14928,19.73496" id="Fill-10"></path>
        </g>
    </g>
</svg>