<?xml version="1.0" encoding="utf-8"?>
<!-- Generator: Adobe Illustrator 22.0.1, SVG Export Plug-In . SVG Version: 6.00 Build 0)  -->
<svg version="1.1" id="图层_1" xmlns="http://www.w3.org/2000/svg" xmlns:xlink="http://www.w3.org/1999/xlink" x="0px" y="0px"
	 viewBox="0 0 60 60" style="enable-background:new 0 0 60 60;" xml:space="preserve">
<style type="text/css">
	.st0{fill:#EE6E73;}
</style>
<g>
	<path class="st0" d="M52.5,57h-45C6.7,57,6,57.7,6,58.5S6.7,60,7.5,60h45c0.8,0,1.5-0.7,1.5-1.5S53.3,57,52.5,57z"/>
	<path class="st0" d="M30,24.9c-0.8,0-1.5,0.7-1.5,1.5v9c0,0.8,0.7,1.5,1.5,1.5s1.5-0.7,1.5-1.5v-9C31.5,25.5,30.8,24.9,30,24.9z"/>
	<circle class="st0" cx="30" cy="41.4" r="1.5"/>
	<path class="st0" d="M30,9c0.8,0,1.5-0.7,1.5-1.5v-6C31.5,0.7,30.8,0,30,0s-1.5,0.7-1.5,1.5v6C28.5,8.3,29.2,9,30,9z"/>
	<path class="st0" d="M11.1,15.3c0.6-0.6,0.6-1.5,0-2.1L6.9,9C6.3,8.4,5.3,8.4,4.7,9c-0.6,0.6-0.6,1.5,0,2.1L9,15.3
		C9.6,15.9,10.5,15.9,11.1,15.3z"/>
	<path class="st0" d="M55.3,8.9c-0.6-0.6-1.5-0.6-2.1,0l-4.2,4.2c-0.6,0.6-0.6,1.5,0,2.1c0.6,0.6,1.5,0.6,2.1,0l4.2-4.2
		C55.8,10.5,55.8,9.5,55.3,8.9z"/>
	<path class="st0" d="M30,12.6c-13,0-23.5,10.3-24,23.2v14c0,0,0,0,0,0s0,0,0,0c0,0.8,0.7,1.5,1.5,1.5h45c0.8,0,1.5-0.7,1.5-1.5
		c0,0,0,0,0,0s0,0,0,0v-14C53.5,22.9,42.9,12.6,30,12.6z M51,48.4H9V35.8c0.4-11.2,9.7-20.2,21-20.2s20.6,9,21,20.2V48.4z"/>
</g>
</svg>
