<?xml version="1.0" encoding="UTF-8"?>
<svg width="24px" height="24px" viewBox="0 0 24 24" version="1.1" xmlns="http://www.w3.org/2000/svg" xmlns:xlink="http://www.w3.org/1999/xlink">
    <!-- Generator: Sketch 49 (51002) - http://www.bohemiancoding.com/sketch -->
    <title>Slice 1</title>
    <desc>Created with Sketch.</desc>
    <defs>
        <polygon id="path-1" points="0.3456 0.386322581 6.5356 0.386322581 6.5356 13.9710194 0.3456 13.9710194"></polygon>
        <polygon id="path-3" points="0.30812 0.386322581 6.67372 0.386322581 6.67372 13.9710194 0.30812 13.9710194"></polygon>
    </defs>
    <g id="Page-1" stroke="none" stroke-width="1" fill="none" fill-rule="evenodd">
        <g id="icon">
            <path d="M7.50256,21.5016387 C3.78416,19.850671 1.20016,16.2185419 1.20016,11.9999613 C1.20016,7.64086452 3.95816,3.90692903 7.87736,2.3388 L8.38936,0.923187097 C3.52656,2.40615484 0.00016,6.80396129 0.00016,11.9999613 C0.00016,16.7380258 2.93416,20.8110581 7.13816,22.6168645 L7.50256,21.5016387 Z" id="Fill-1" fill="#EE6E73"></path>
            <path d="M17.34356,1.60207742 L16.94356,2.7084 C20.42076,4.44491613 22.79996,7.9524 22.79996,11.9998839 C22.79996,17.772271 17.96476,22.4514968 11.99996,22.4514968 C11.82716,22.4514968 11.65556,22.4468516 11.48476,22.4391097 L10.72316,23.5465935 C11.14316,23.5899484 11.56836,23.6127871 11.99996,23.6127871 C18.62756,23.6127871 23.99996,18.4136903 23.99996,11.9998839 C23.99996,7.44491613 21.28836,3.50465806 17.34356,1.60207742" id="Fill-3" fill="#EE6E73"></path>
            <g id="Group-7" transform="translate(4.800000, 0.000774)">
                <mask id="mask-2" fill="white">
                    <use xlink:href="#path-1"></use>
                </mask>
                <g id="Clip-6"></g>
                <polygon id="Fill-5" fill="#EE6E73" mask="url(#mask-2)" points="1.6164 13.9710194 0.3456 13.9710194 5.4532 0.386245161 6.5356 0.887922581"></polygon>
            </g>
            <g id="Group-10" transform="translate(9.600000, 0.000774)">
                <mask id="mask-4" fill="white">
                    <use xlink:href="#path-3"></use>
                </mask>
                <g id="Clip-9"></g>
                <polygon id="Fill-8" fill="#EE6E73" mask="url(#mask-4)" points="1.57892 13.9710194 0.30812 13.9710194 5.40332 0.386245161 6.67372 0.387019355"></polygon>
            </g>
            <polygon id="Fill-11" fill="#EE6E73" points="9.29924 23.6136774 8.02844 23.6136774 16.69804 10.1945806 17.96844 10.1953548"></polygon>
            <polygon id="Fill-13" fill="#EE6E73" points="9.29924 23.6136774 8.02844 23.6136774 12.06124 12.8105806 13.33204 12.8113548"></polygon>
            <polygon id="Fill-15" fill="#EE6E73" points="9.8168 1.5483871 10.2528 0.387096774 16.274 0.387096774 15.8372 1.5483871"></polygon>
            <polygon id="Fill-17" fill="#EE6E73" points="10.88868 11.355871 11.32468 10.1945806 17.96588 10.1945806 17.20388 11.355871"></polygon>
            <polygon id="Fill-19" fill="#EE6E73" points="5.14572 13.9717935 5.58212 12.8105032 12.18212 12.8105032 11.74532 13.9717935"></polygon>
        </g>
    </g>
</svg>