<?xml version="1.0" encoding="utf-8"?>
<!-- Generator: Adobe Illustrator 22.0.1, SVG Export Plug-In . SVG Version: 6.00 Build 0)  -->
<svg version="1.1" id="图层_1" xmlns="http://www.w3.org/2000/svg" xmlns:xlink="http://www.w3.org/1999/xlink" x="0px" y="0px"
	 viewBox="0 0 60 60" style="enable-background:new 0 0 60 60;" xml:space="preserve">
<style type="text/css">
	.st0{fill:#373A38;}
</style>
<g>
	<path class="st0" d="M41.8,32.4c-0.6,0.6-0.6,1.5,0,2.1c0.6,0.6,1.5,0.6,2.1,0l7.3-7.3l0,0c0,0,0,0,0,0l0.1-0.1l0,0
		c5-5.1,5-13.3-0.1-18.3C46.1,3.7,38,3.7,32.9,8.7l0,0l-7.3,7.3c-0.6,0.6-0.6,1.5,0,2.1h0c0.6,0.6,1.5,0.6,2.1,0l7.3-7.3v0
		c3.9-3.9,10.3-3.9,14.2,0c3.9,3.9,3.9,10.3,0,14.2L41.8,32.4z"/>
	<path class="st0" d="M32.4,41.8l-7.3,7.3c-3.9,3.9-10.3,3.9-14.2,0C7,45.2,7,38.8,10.9,34.9l7.3-7.3c0.6-0.6,0.6-1.5,0-2.1
		c-0.6-0.6-1.5-0.6-2.1,0l-7.3,7.3l0,0c-5,5.1-5,13.3,0.1,18.3c5.1,5.1,13.3,5.1,18.3,0.1l0,0l7.4-7.4c0.6-0.6,0.6-1.5,0-2.1
		C33.9,41.2,33,41.2,32.4,41.8z"/>
	<path class="st0" d="M15.8,18c0.6,0.6,1.5,0.6,2.1,0c0.6-0.6,0.6-1.5,0-2.1l-3.5-3.5c-0.6-0.6-1.5-0.6-2.1,0
		c-0.6,0.6-0.6,1.5,0,2.1L15.8,18z"/>
	<path class="st0" d="M21.9,11.1c0.3,0.8,1.2,1.1,2,0.8c0.8-0.3,1.1-1.2,0.8-2l-1.9-4.6c-0.3-0.8-1.2-1.1-2-0.8s-1.1,1.2-0.8,2
		L21.9,11.1z"/>
	<path class="st0" d="M10,24.7c0.8,0.3,1.6,0,2-0.8c0.3-0.8,0-1.6-0.8-2L6.5,20c-0.8-0.3-1.6,0-2,0.8c-0.3,0.8,0,1.6,0.8,2L10,24.7z
		"/>
	<path class="st0" d="M44.2,42c-0.6-0.6-1.5-0.6-2.1,0c-0.6,0.6-0.6,1.5,0,2.1l3.5,3.5c0.6,0.6,1.5,0.6,2.1,0c0.6-0.6,0.6-1.5,0-2.1
		L44.2,42z"/>
	<path class="st0" d="M54.7,37.2L50,35.3c-0.8-0.3-1.6,0-2,0.8c-0.3,0.8,0,1.6,0.8,2l4.6,1.9c0.8,0.3,1.6,0,2-0.8
		S55.4,37.6,54.7,37.2z"/>
	<path class="st0" d="M38.1,48.9c-0.3-0.8-1.2-1.1-2-0.8c-0.8,0.3-1.1,1.2-0.8,2l1.9,4.6c0.3,0.8,1.2,1.1,2,0.8s1.1-1.2,0.8-2
		L38.1,48.9z"/>
</g>
</svg>
