<?xml version="1.0" encoding="UTF-8"?>
<svg width="30px" height="36px" viewBox="0 0 30 36" version="1.1" xmlns="http://www.w3.org/2000/svg" xmlns:xlink="http://www.w3.org/1999/xlink">
    <!-- Generator: Sketch 49 (51002) - http://www.bohemiancoding.com/sketch -->
    <title>Slice 1</title>
    <desc>Created with Sketch.</desc>
    <defs></defs>
    <g id="Page-1" stroke="none" stroke-width="1" fill="none" fill-rule="evenodd">
        <g id="icon" fill="#101010">
            <polygon id="Fill-1" points="0.581552542 0.0118372881 2.11612881 1.78621017 20.8526034 1.78132881 22.6910441 0.00634576271"></polygon>
            <polygon id="Fill-2" points="0.581552542 0.0118372881 8.20745085 8.82939661 8.86582373 6.79082034 2.9984339 0.00573559322"></polygon>
            <polygon id="Fill-3" points="0 29.2937492 11.6896271 35.4552407 11.6896271 33.5594441 0.548542373 27.4998508"></polygon>
            <polygon id="Fill-4" points="0 29.2937492 1.71945763 30.1998508 8.86454237 6.79008814 7.39586441 5.09015593"></polygon>
            <polygon id="Fill-5" points="14.6903797 6.81254237 15.3389898 8.82366102 22.9654983 0.00610169492 20.5480068 0"></polygon>
            <polygon id="Fill-6" points="21.3636814 26.9225085 22.0129017 28.9342373 29.6394102 20.1160678 27.2219186 20.1105763"></polygon>
            <polygon id="Fill-7" points="11.6898102 33.5595661 11.6898102 35.4553627 23.0621492 29.4061424 22.5129966 27.6116339"></polygon>
            <polygon id="Fill-8" points="23.0620881 29.3988203 15.9542237 5.34715932 14.4831051 7.03854915 21.3426305 30.304922"></polygon>
            <polygon id="Fill-9" points="14.5816475 6.92402034 28.4385966 21.5040203 29.7553424 19.9920203 16.059478 5.22652881"></polygon>
        </g>
    </g>
</svg>