<?xml version="1.0" encoding="UTF-8"?>
<svg width="34px" height="34px" viewBox="0 0 34 34" version="1.1" xmlns="http://www.w3.org/2000/svg" xmlns:xlink="http://www.w3.org/1999/xlink">
    <!-- Generator: Sketch 49 (51002) - http://www.bohemiancoding.com/sketch -->
    <title>Slice 1</title>
    <desc>Created with Sketch.</desc>
    <defs>
        <polygon id="path-1" points="3.38082545e-05 0.000113333333 33.4614967 0.000113333333 33.4614967 33.4663133 3.38082545e-05 33.4663133"></polygon>
    </defs>
    <g id="Page-1" stroke="none" stroke-width="1" fill="none" fill-rule="evenodd">
        <g id="icon">
            <mask id="mask-2" fill="white">
                <use xlink:href="#path-1"></use>
            </mask>
            <g id="Clip-2"></g>
            <path d="M20.71943,31.4009833 C21.9116967,30.0591167 22.91243,28.12395 23.6354967,25.7756833 C25.58313,26.30155 26.8569967,26.96115 27.5528633,27.3952167 C25.69363,29.2822167 23.34763,30.68585 20.71943,31.4009833 M5.92716333,27.4042833 C6.61226333,26.9719167 7.87989667,26.3089167 9.83773,25.7802167 C10.5596633,28.1267833 11.5603967,30.0596833 12.75153,31.4009833 C10.12843,30.6869833 7.78469667,29.28675 5.92716333,27.4042833 M12.75153,2.07995 C11.5558633,3.42635 10.5522967,5.36945 9.82923,7.72791667 C7.86516333,7.19411667 6.59186333,6.52488333 5.90959667,6.09421667 C7.76939667,4.20325 10.1193633,2.79621667 12.75153,2.07995 M27.5749633,6.10781667 C26.8881633,6.54188333 25.6148633,7.20828333 23.64513,7.73811667 C22.9220633,5.37455 21.9167967,3.42805 20.71943,2.07995 C23.35783,2.79735 25.7128967,4.21005 27.5749633,6.10781667 M24.8821633,17.4757167 L31.90883,17.4757167 C31.75073,20.7788167 30.5323967,23.8087833 28.5875967,26.23185 C27.82033,25.7195833 26.3526633,24.9086833 24.04123,24.2876167 C24.53593,22.23515 24.8322967,19.9322167 24.8821633,17.4757167 M17.4797967,23.42005 L17.4797967,17.4757167 L23.34763,17.4757167 C23.2988967,19.7656167 23.0223633,21.96145 22.54353,23.9408167 C21.1149633,23.6586167 19.43423,23.45915 17.4797967,23.42005 M17.4797967,31.8259833 L17.4797967,24.9545833 C19.2755633,24.9931167 20.81973,25.1750167 22.1315633,25.42945 C21.87883,26.2375167 21.58813,26.99855 21.2628633,27.7029167 C20.20773,29.9814833 18.8607633,31.4361167 17.4797967,31.8259833 M15.9452633,24.9574167 L15.9452633,31.81295 C14.58073,31.4038167 13.2518967,29.95655 12.2080967,27.7029167 C11.88283,26.9996833 11.59383,26.2397833 11.34053,25.4334167 C12.6387633,25.1806833 14.1670633,25.0004833 15.9452633,24.9574167 M10.1238967,17.4757167 L15.9452633,17.4757167 L15.9452633,23.4223167 C14.01123,23.4670833 12.34693,23.66825 10.9302633,23.9510167 C10.4491633,21.96825 10.17263,19.7695833 10.1238967,17.4757167 M15.9452633,10.09205 L15.9452633,15.9411833 L10.1255967,15.9411833 C10.1771633,13.68415 10.4508633,11.52005 10.9217633,9.56618333 C12.3395633,9.84838333 14.00613,10.0484167 15.9452633,10.09205 M15.9452633,1.66798333 L15.9452633,8.55695 C14.1653633,8.51445 12.6330967,8.33198333 11.3314633,8.07698333 C11.5864633,7.25928333 11.8788633,6.48918333 12.2080967,5.77801667 C13.2518967,3.52438333 14.58073,2.07655 15.9452633,1.66798333 M17.4797967,8.55808333 L17.4797967,1.65495 C18.8607633,2.04425 20.20773,3.49888333 21.2628633,5.77801667 C21.5926633,6.49145 21.8867633,7.26325 22.14233,8.08378333 C20.8293633,8.33765 19.2823633,8.51841667 17.4797967,8.55808333 M23.34593,15.9411833 L17.4797967,15.9411833 L17.4797967,10.0926167 C19.4364967,10.0518167 21.1194967,9.85121667 22.5497633,9.56675 C23.0206633,11.5206167 23.2937967,13.68415 23.34593,15.9411833 M31.9059967,15.9411833 L24.88103,15.9411833 C24.8277633,13.5186833 24.53423,11.24635 24.0474633,9.21825 C26.3696633,8.59265 27.8412967,7.77778333 28.6034633,7.26835 C30.52673,9.67271667 31.73543,12.6715167 31.9059967,15.9411833 M4.87656333,7.25758333 C5.62909667,7.76531667 7.09676333,8.58641667 9.42406333,9.21655 C8.93673,11.24465 8.64319667,13.51755 8.59049667,15.9411833 L1.56496333,15.9411833 C1.73553,12.6664167 2.94876333,9.66365 4.87656333,7.25758333 M1.56213,17.4757167 L8.58936333,17.4757167 C8.63923,19.9373167 8.93616333,22.24535 9.43313,24.3012167 C7.12056333,24.92625 5.65403,25.73885 4.89469667,26.2460167 C2.94366333,23.8201167 1.72079667,20.7856167 1.56213,17.4757167 M29.3474967,27.7272833 C32.0079967,24.68145 33.4614967,20.82245 33.4614967,16.7401833 C33.4614967,12.2725833 31.72183,8.07245 28.5626633,4.91328333 C25.45223,1.80285 21.3319967,0.0694166667 16.9408967,0.0167166667 C16.86893,-0.00595 16.5549967,-0.00538333333 16.4824633,0.0172833333 C12.1100633,0.0813166667 8.00796333,1.81361667 4.90886333,4.91328333 C1.80239667,8.01918333 0.0700966667,12.1314833 0.0122966667,16.51465 C-0.00357,16.5769833 -0.00413666667,16.83765 0.0111633333,16.8982833 C0.0519633333,21.30695 1.78653,25.4453167 4.90886333,28.56765 C8.06746333,31.72625 12.2681633,33.4664833 16.7357633,33.4664833 C21.2033633,33.4664833 25.4040633,31.72625 28.5626633,28.56765 C28.79273,28.3375833 29.0148633,28.1012833 29.22963,27.8598833 C29.24833,27.84345 29.26703,27.8253167 29.2845967,27.80605 C29.30783,27.78055 29.3276633,27.7539167 29.3474967,27.7272833" id="Fill-1" fill="#101010" mask="url(#mask-2)"></path>
        </g>
    </g>
</svg>